/* XPM */
static char * close_xpm[] = {
"9 9 4 1",
" 	c None",
".	c #CCCCCC",
"+	c #000000",
"@	c #808080",
"  .....  ",
" ....... ",
"..+@.@+..",
"..@+@+@..",
"...@+@...",
"..@+@+@..",
"..+@.@+..",
" ....... ",
"  .....  "};
