/* XPM */
static char * left_arrow_xpm[] = {
"9 9 4 1",
" 	c None",
".	c #BFBFBF",
"+	c #000000",
"@	c #808080",
".........",
".....+@..",
"....+@...",
"...+@....",
"..+@.....",
"...+@....",
"....+@...",
".....+@..",
"........."};
