/* XPM */
static char * right_arrow_xpm[] = {
"9 9 4 1",
" 	c None",
".	c #BFBFBF",
"+	c #808080",
"@	c #000000",
".........",
"..+@.....",
"...+@....",
"....+@...",
".....+@..",
"....+@...",
"...+@....",
"..+@.....",
"........."};
