/* XPM */
static char * down_xpm[] = {
"8 12 4 1",
" 	c none",
".	c gray90",
"X	c gray45",
"O	c gray75",
"........",
".OOOOOOX",
" .OOOOX ",
" .OOOOX ",
"  .OOX  ",
"  .OOX  ",
"   OX   ",
"   OX   ",
"        ",
"        ",
"        ",
"        "};
