/* XPM */
static char * stop_xpm[] = {
"24 24 3 1",
" 	c None",
".	c #F8F810104040",
"X	c #F8F8FCFCF8F8",
"                        ",
"                        ",
"       ..........       ",
"      ............      ",
"     ..............     ",
"    ................    ",
"   ..................   ",
"  ..XX..XXX..XX..XXX..  ",
"  .X..X..X..X..X.X..X.  ",
"  .X.....X..X..X.X..X.  ",
"  .X.....X..X..X.X..X.  ",
"  ..X....X..X..X.X..X.  ",
"  ...X...X..X..X.XXX..  ",
"  ....X..X..X..X.X....  ",
"  ....X..X..X..X.X....  ",
"  .X..X..X..X..X.X....  ",
"  ..XX...X...XX..X....  ",
"   ..................   ",
"    ................    ",
"     ..............     ",
"      ............      ",
"       ..........       ",
"                        ",
"                        "};
