/* XPM */
static char * gud_pstar_xpm[] = {
"24 24 2 1",
" 	c #BDBDBEBEBDBD",
".	c #000000000000",
"                        ",
"                        ",
"                        ",
"                        ",
"                        ",
"                        ",
"                        ",
"                        ",
"         ... ...        ",
"          ... ...       ",
"          ..   ..   .   ",
"          ..   .. . . . ",
"          ..   ..  ...  ",
"          ..   .. . . . ",
"          ..   ..   .   ",
"          ... ..        ",
"          .. ..         ",
"          ..            ",
"          ..            ",
"          ..            ",
"         ....           ",
"                        ",
"                        ",
"                        "};
