/* XPM */
static char * checked_xpm[] = {
"12 12 5 1",
" 	c None",
".	c gray20",
"+	c white",
"@	c gray70",
"#	c black",
"............",
"............",
"..@@@@@@##+.",
"..@@@@@@##+.",
"..#@@@@##@+.",
"..##@@@##@+.",
"..###@##@@+.",
"..@#####@@+.",
"..@@###@@@+.",
"..@++##++++.",
".@+++++++++.",
"............"};
