/* XPM */
static char * mail_exec_xpm[] = {
/* columns rows colors chars-per-pixel */
"24 24 6 1",
" 	c None",
".	c black",
"X	c #a5d8a5d89550",
"o	c #d305d305bc3c",
"O	c #ea03ea03d271",
"+	c white",
/* pixels */
"                        ",
"                        ",
"                        ",
"                 ..     ",
"             XX  ..     ",
"         oo  XX  ..     ",
"     OO  oo  XX  ..     ",
"     OO  oo  XX  ..     ",
"     OO  oo  XX  ..     ",
"     OO  oo  XX  ..     ",
"     OO  oo  XX  ..     ",
"     OO  oo  XX  ..     ",
"     OO  oo  XX  ..     ",
"     OO  oo  XX         ",
"     OO  oo             ",
"     OO      +   ..     ",
"             XX  ..     ",
"         oo  XX         ",
"     OO  oo             ",
"     OO                 ",
"                        ",
"                        ",
"                        ",
"                        "};
