/* XPM */
static char *magick[] = {
/* columns rows colors chars-per-pixel */
"24 24 5 1",
"  c Gray0",
". c #673e666663d4",
"X c #a852a7bea3d2",
"o c #eb46ea1de471",
"O c None",
/* pixels */
"OOOOOOOOOOOOOOOOOOOOOOOO",
"OOOOOOOOOOOOOOOOOOOOOOOO",
"OOOOOOOOOOOOOOOOOOOOOOOO",
"OOOOOOOOOOOOOOOOOOOOOOOO",
"OOOOOOOOOOOOOOOOOOOOOOOO",
"OOOOOOOOOOOOOO    OOOOOO",
"OOOOOOOOO     .ooX OOOOO",
"OOOO     .XooooooX OOOOO",
"OOO .Xoooooooooo.XX OOOO",
"OOO o..ooooooooX.Xo OOOO",
"OOO XoX..oooooo.Xoo OOOO",
"OOOO oooXX.Xoo...ooX OOO",
"OOOO oooooXX..XoX.Xo OOO",
"OOOO Xoooo.ooooooo.X OOO",
"OOOOO oooXXoooooooo.X OO",
"OOOOO ooo.oooooooooX  OO",
"OOOOO XoXXooooooX   OOOO",
"OOOOOO o.ooooX   OOOOOOO",
"OOOOOO .XoX   OOOOOOOOOO",
"OOOOOO ..  OOOOOOOOOOOOO",
"OOOOOOO  OOOOOOOOOOOOOOO",
"OOOOOOOOOOOOOOOOOOOOOOOO",
"OOOOOOOOOOOOOOOOOOOOOOOO",
"OOOOOOOOOOOOOOOOOOOOOOOO"
};
