/* XPM */
static char * next_image_24_xpm[] = {
"24 24 18 1",
" 	c None",
".	c #000000",
"+	c #BCBCB8",
"@	c #DADAD6",
"#	c #FFFFFF",
"$	c #6B9060",
"%	c #A9C7A6",
"&	c #778E6F",
"*	c #BDD3B8",
"=	c #C1D6BD",
"-	c #445B2C",
";	c #506B46",
">	c #C2D7BE",
",	c #77A16E",
"'	c #0F1308",
")	c #A4C3A2",
"!	c #B0CAAD",
"~	c #8CA782",
"                        ",
"  ..................    ",
"  .###############@+.   ",
"  .###############+#+.  ",
"  .###############+&;'. ",
"  .###;+##########@&;'. ",
"  .###..+@##########@+. ",
"  .###.,.+@@#@#@@@@@@+. ",
"  .#@@.>$.+@@###@@@@@+. ",
".......>%$.+@@@@@@@@@+. ",
".>=====*%%$.+@@@@@@@@+. ",
".>%%%%!%%%%$.++@@@@@@+. ",
".@=***=****%$.++@@@@@+. ",
".)$$$$$$$$$$-.&+@@@@++. ",
".~$$$$$$$$$-.&++@@@@@+. ",
".,$$$$$$$$-.;&++@@@@@+. ",
".......$$-.&++++@@@@++. ",
"  .++&.$-.;&+++++++@++. ",
"  .@++.-.&++++@@@@@@@+. ",
"  .#++..&&+++++++++@@+. ",
"  .#@+.+++++@@@@@++@++. ",
"  .#@@+++++@@@@++++@++. ",
"  .#++++++++++++++++++. ",
"  ..................... "};
