/* XPM */
static char * prev_image_24_xpm[] = {
"24 24 17 1",
" 	c None",
".	c #000000",
"+	c #FFFFFF",
"@	c #DADAD6",
"#	c #BCBCB8",
"$	c #6B9060",
"%	c #778E6F",
"&	c #A9C7A6",
"*	c #445B2C",
"=	c #C1D6BD",
"-	c #5B7950",
";	c #C2D7BE",
">	c #A6BFA0",
",	c #0F1308",
"'	c #BDD3B8",
")	c #B0CAAD",
"!	c #8CA782",
"                        ",
"    ..................  ",
"   ,+#++++++++++++++@.  ",
"  ,++%@+++++++++++++@.  ",
" .@#%%@+++++++++++++@.  ",
" .%@##@+++++++++@.@@@.  ",
" .#++++++++++++#..@@@.  ",
" .@+++++++++@@#.;.#@@.  ",
" .+++++++++++#.@>.##@.  ",
" .+++++++@@@#.@&>.......",
" .+++++++@@#.@&&';;;;;>.",
" .+@+@@@@##.+&&&&)&&&&%.",
" .+@+@@@@#.@==========!.",
" .+@@@@@@#.-$$$$$$$$$$*.",
" .+@@@@@@##.-$$$$$$$$$*.",
" .+@@@@@###%.-$$$-*****.",
" .+@@@@@@@@#%.-$*.......",
" .+@@########%.-*.%%%.  ",
" .+@@@@@@@@@##%.*.%##.  ",
" .+@@##########%..###.  ",
" .+@@@@@@@@@@###%.###.  ",
" .+@@@@@@@@@@@#######.  ",
" .+##################.  ",
" .....................  "};
