/* XPM */
static char *refresh[] = {
/* columns rows colors chars-per-pixel */
"24 24 86 1",
"  c black",
". c #0D110C",
"X c #172116",
"o c #283926",
"O c #23323E",
"+ c #304353",
"@ c #405A71",
"# c #425D73",
"$ c #435E74",
"% c #435F76",
"& c #456178",
"* c #47647C",
"= c #48657D",
"- c #4C6B85",
"; c #4E6E89",
": c #4F6F8A",
"> c #50718D",
", c #537490",
"< c #537592",
"1 c #587B99",
"2 c #597D9C",
"3 c #5A7E9D",
"4 c #5B7F9E",
"5 c #5B80A0",
"6 c #5C81A1",
"7 c #5D82A2",
"8 c #5E83A3",
"9 c #6084A3",
"0 c #6185A4",
"q c #6286A5",
"w c #6387A6",
"e c #6588A6",
"r c #6689A7",
"t c #678AA8",
"y c #6B8DAA",
"u c #6C8EAB",
"i c #6E8FAB",
"p c #7091AD",
"a c #7192AE",
"s c #7393AE",
"d c #7595B0",
"f c #7C9AB3",
"g c #7F9DB6",
"h c #819EB6",
"j c #829FB7",
"k c #85A1B8",
"l c #86A2B9",
"z c #8CA7BD",
"x c #90A9BF",
"c c #92ABC0",
"v c #94ACC1",
"b c #9DB3C6",
"n c #9FB5C8",
"m c #A0B6C9",
"M c #A3B8CA",
"N c #A8BCCD",
"B c #ADC0D0",
"V c #B0C2D1",
"C c #B1C3D2",
"Z c #B4C5D3",
"A c #B7C8D6",
"S c #B9C9D6",
"D c #BCCCD9",
"F c #BFCEDA",
"G c #C4D2DD",
"H c #C5D3DE",
"J c #C7D3DE",
"K c #C8D4DF",
"L c #C9D5E0",
"P c #CAD6E1",
"I c #CCD7E1",
"U c #CDD8E2",
"Y c #CED9E3",
"T c #CFDAE4",
"R c #D1DBE4",
"E c #D3DDE6",
"W c #D5DEE6",
"Q c #D8E1E9",
"! c #DDE5EC",
"~ c #E1E8EE",
"^ c #E4EAEF",
"/ c #F2F5F7",
"( c #F3F6F8",
") c #F6F8F9",
"_ c #F7F9FA",
"` c None",
/* pixels */
"```````    `````````````",
"``````      ````````````",
"`````   (    ```````````",
"```     K_    ```   ````",
"`` .qmKKLL/    `      ``",
"` XhKKLLPPY_     s1    `",
"  qKLLLPYREEB     x<    ",
" OmKk88qqrt=       N    ",
" sJy889qrr%        Z>   ",
" mc8#   r#         Zu   ",
" G4>    &          Cd   ",
" D2          Y    mBs   ",
" ls         L~   CSNw   ",
" -g        D!^!QRGAs<   ",
"  b       CYRYKGDCzt+   ",
"  ;h     cGKPPPGGf2*    ",
"   <r     r9qq9882;     ",
"           92112;#      ",
"`           42         `",
"``      `   o2        ``",
"```    ```           ```",
"```````````         ````",
"````````````      ``````",
"`````````````    ```````"
};
