/* XPM */
static char *magick[] = {
/* columns rows colors chars-per-pixel */
"24 24 8 1",
"  c #01260126010f",
". c #56004ef93434",
"X c #5c9c5c9c57c7",
"o c #8e8e7d7d4545",
"O c #a72aa72a95e6",
"+ c #d015d015b9c5",
"@ c #e90de90dd2e3",
"# c None",
/* pixels */
"########################",
"################  ######",
"###############  o #####",
"########### ##  o ######",
"#########  O   o #######",
"#######  O@@  o ########",
"#####  O+++  o #########",
"###  O++++  o  #########",
"## XX++++ .  @.#########",
"## @.O+++  @@@@ ########",
"## @@.++++@@@@@O #######",
"## @@.O+O.  .O@@ #######",
"## @XO+O.O++O.+@@ ######",
"##  O++.O@@+OX.@@O #####",
"## X+++ +#+OOO @@@+ ####",
"## O++@ +@OOOO @@@O ####",
"### +@@.OOOOOX.@@  #####",
"### +@@O.OOOX  + #######",
"####X@@@O.  .X  ########",
"#### @@@@@@@+    #######",
"##### @@@@@O ##   ######",
"##### O@@+. ####   #####",
"###### @O #######  #####",
"#######  ###############"
};
