/* XPM */
static char * separator_xpm[] = {
"2 24 3 1",
" 	c None",
".	c #DBD3CB",
"+	c #FCFBFA",
"  ",
"  ",
"  ",
".+",
".+",
".+",
".+",
".+",
".+",
".+",
".+",
".+",
".+",
".+",
".+",
".+",
".+",
".+",
".+",
".+",
".+",
"  ",
"  ",
"  "};
