/* XPM */
static char * stock_sort_descending_xpm[] = {
"24 23 7 1",
" 	c None",
".	c #000000",
"+	c #D1DECF",
"@	c #7DA377",
"#	c #314E6C",
"$	c #E4ECE3",
"%	c #B3C9AF",
"                        ",
"                        ",
"  ......                ",
"     ...                ",
"    ...                 ",
"   ...                  ",
"  ...                   ",
"  ......                ",
"          .             ",
"                        ",
"            .           ",
"                        ",
"    .         .         ",
"   .+.   .              ",
"  .+@@. ..       ####   ",
"   .@@@.$.      ##  ##  ",
"    .@@%@.      ##  ##  ",
"     .%@@.      ######  ",
"    .$@@@.      ##  ##  ",
"   .......      ##  ##  ",
"                        ",
"                        ",
"                        "};
