/* XPM */
static char * stock_sort_ascending_xpm[] = {
"23 23 7 1",
" 	c None",
".	c #314E6C",
"+	c #000000",
"@	c #D1DECF",
"#	c #7DA377",
"$	c #E4ECE3",
"%	c #B3C9AF",
"                       ",
"   ....                ",
"  ..  ..               ",
"  ..  ..               ",
"  ......               ",
"  ..  ..               ",
"  ..  ..               ",
"                       ",
"          +            ",
"                       ",
"            +          ",
"                       ",
"    +         +        ",
"   +@+   +             ",
"  +@##+ ++      ++++++ ",
"   +###+$+         +++ ",
"    +##%#+        +++  ",
"     +%##+       +++   ",
"    +$###+      +++    ",
"   +++++++      ++++++ ",
"                       ",
"                       ",
"                       "};
