<?xml version="1.0" encoding="UTF-8" standalone="no"?>
<!-- Gnu Emacs Logo

   Copyright (C) 2008-2017 Free Software Foundation, Inc.

   Author: Francesc Rocher <francesc.rocher@gmail.com>
   Based on the original work by Luis Fernandes <elf@ee.ryerson.ca>

   This file is part of GNU Emacs.

   GNU Emacs is free software: you can redistribute it and/or modify
   it under the terms of the GNU General Public License as published by
   the Free Software Foundation; either version 3 of the License, or
   (at your option) any later version.

   GNU Emacs is distributed in the hope that it will be useful,
   but WITHOUT ANY WARRANTY; without even the implied warranty of
   MERCHANTABILITY or FITNESS FOR A PARTICULAR PURPOSE.  See the
   GNU General Public License for more details.

   You should have received a copy of the GNU General Public License
   along with GNU Emacs.  If not, see <https://www.gnu.org/licenses/>.

-->

<svg
   xmlns:dc="http://purl.org/dc/elements/1.1/"
   xmlns:cc="http://creativecommons.org/ns#"
   xmlns:rdf="http://www.w3.org/1999/02/22-rdf-syntax-ns#"
   xmlns:svg="http://www.w3.org/2000/svg"
   xmlns="http://www.w3.org/2000/svg"
   xmlns:sodipodi="http://sodipodi.sourceforge.net/DTD/sodipodi-0.dtd"
   xmlns:inkscape="http://www.inkscape.org/namespaces/inkscape"
   version="1.0"
   width="333"
   height="233"
   id="svg6706"
   style="display:inline"
   inkscape:version="0.48.4 r9939"
   sodipodi:docname="splash.svg"
   inkscape:export-filename="/opt/src/emacs/etc/images/splash.png"
   inkscape:export-xdpi="90"
   inkscape:export-ydpi="90">
  <sodipodi:namedview
     pagecolor="#ffffff"
     bordercolor="#666666"
     borderopacity="1"
     objecttolerance="10"
     gridtolerance="10"
     guidetolerance="10"
     inkscape:pageopacity="1"
     inkscape:pageshadow="2"
     inkscape:window-width="1920"
     inkscape:window-height="1004"
     id="namedview3107"
     showgrid="false"
     inkscape:showpageshadow="false"
     inkscape:zoom="1"
     inkscape:cx="-49.78722"
     inkscape:cy="105.19797"
     inkscape:window-x="0"
     inkscape:window-y="24"
     inkscape:window-maximized="1"
     inkscape:current-layer="layer1" />
  <metadata
     id="metadata2314">
    <rdf:RDF>
      <cc:Work
         rdf:about="">
        <dc:format>image/svg+xml</dc:format>
        <dc:type
           rdf:resource="http://purl.org/dc/dcmitype/StillImage" />
        <dc:title />
        <dc:date>2008/06/28</dc:date>
        <dc:creator>
          <cc:Agent>
            <dc:title>Francesc Rocher</dc:title>
          </cc:Agent>
        </dc:creator>
        <dc:rights>
          <cc:Agent>
            <dc:title>GPL</dc:title>
          </cc:Agent>
        </dc:rights>
        <dc:description>GNU Emacs splash image</dc:description>
        <dc:contributor>
          <cc:Agent>
            <dc:title>Based on the original work by Luis Fernandes.</dc:title>
          </cc:Agent>
        </dc:contributor>
        <cc:license
           rdf:resource="https://www.gnu.org/copyleft/gpl.html" />
      </cc:Work>
    </rdf:RDF>
  </metadata>
  <defs
     id="defs6709" />
  <g
     inkscape:groupmode="layer"
     id="layer1"
     inkscape:label="emacs"
     style="display:inline">
    <g
       style="display:inline"
       id="g3171"
       transform="translate(-0.3199963,-16.05214)">
      <path
         inkscape:connector-curvature="0"
         id="gnu-7-7-5"
         d="m 91.501627,223.13422 c 2.44866,-7.38073 7.44672,-16.72109 12.277833,-22.94475 5.71059,-7.35667 7.37834,-9.3856 28.68987,-34.90319 16.87203,-20.20187 19.22297,-23.17963 22.55477,-28.56842 1.5428,-2.49527 3.17766,-4.53686 3.63304,-4.53686 1.18186,0 1.10043,0.30992 -1.63307,6.21531 -1.35357,2.92424 -2.46105,5.64533 -2.46105,6.04686 0,0.40153 -2.97647,4.90375 -6.6144,10.00493 -8.98843,12.6038 -10.76026,14.97181 -13.08231,17.48444 -1.0981,1.18822 -3.8535,4.49366 -6.1231,7.34539 -2.2696,2.85173 -4.58719,5.62332 -5.15019,6.15909 -0.56299,0.53575 -2.79558,3.19769 -4.9613,5.91542 -6.69122,8.39667 -16.09521,19.83397 -17.43166,21.20066 -0.69977,0.71561 -3.044273,3.91702 -5.209993,7.11426 -4.16128,6.14322 -5.79503,7.40513 -4.48844,3.46686 z m 66.481533,-23.7645 c 0.22279,-0.5941 1.5292,-4.28446 2.90315,-8.20081 3.44555,-9.82127 13.66236,-27.15831 19.73886,-33.49505 l 2.48602,-2.59251 2.25191,2.37646 c 2.67739,2.82543 3.88298,2.92758 8.02572,0.68 3.08741,-1.67502 7.69643,-8.22076 20.10229,-28.54929 4.55053,-7.45659 5.01229,-7.9395 5.0346,-5.26516 0.0415,4.9808 -22.21528,41.2544 -29.34472,47.82522 -4.11732,3.7947 -6.18823,4.04757 -8.84718,1.0802 -1.06473,-1.18822 -2.3151,-2.15972 -2.77861,-2.15886 -1.62142,0.003 -12.08302,16.59943 -16.47702,26.13939 -0.82094,1.78235 -1.9443,3.24062 -2.49635,3.24062 -0.55207,0 -0.82147,-0.48609 -0.59867,-1.08021 z m 84.56819,-24.82537 c -2.06645,-0.8019 1.13497,-15.11544 9.38534,-45.76041 8.25036,-30.64496 13.71984,-51.383787 14.84879,-58.25729 1.12895,-6.873503 2.03487,-14.092092 -4.36472,-16.458525 -6.39958,-2.366433 -16.77636,10.967049 -21.18571,12.891935 -1.80822,-0.98102 -3.1468,-0.58863 2.90016,-11.56546 6.04696,-10.97683 17.96376,-16.533598 24.45815,-14.02345 6.49439,2.510148 9.06627,8.870934 9.02208,16.2618 -0.0442,7.390866 -1.34227,9.483254 -10.57054,34.657444 -9.22827,25.174186 -15.27911,53.155486 -18.56738,69.382646 -1.67576,8.37809 -3.60972,13.73571 -5.92617,12.87131 z m -96.84888,-54.21518 c 1.40606,-16.35743 -4.16257,-18.77418 -12.79668,-25.53246 0,-1.55773 8.7013,-12.73719 9.91373,-12.73719 1.73907,0 4.26796,0.851938 9.50728,9.07372 5.23932,8.221782 2.81919,33.478 -4.79284,37.656 -1.73206,0.81373 -1.83075,0.3578 -1.83149,-8.46007 z m -67.235101,2.4601 C 66.149626,114.64118 107.1616,65.642805 109.89257,67.61866 c 1.43393,1.147042 -25.884213,36.7541 -19.110563,41.27888 6.77365,4.52478 36.496453,-21.773029 38.824823,-19.65206 2.32837,2.120969 -42.806145,38.90369 -51.139461,33.54379 z M 203.02623,89.36059 c -4.35468,-2.67753 -4.37646,-3.98287 -0.1931,-11.57676 l 3.90554,-7.08957 2.54785,2.65806 c 3.02363,3.15442 6.72598,3.45147 12.70923,1.01972 4.8079,-1.95406 8.30397,-5.19427 11.75211,-10.89203 l 2.61484,-4.32082 -0.49413,3.33468 c -0.73833,4.9825 -10.09007,19.20733 -14.90376,22.66994 -7.26038,5.22257 -13.78694,6.74948 -17.93858,4.19678 z m -30.4,-8.22399 C 157.50408,77.285901 148.7977,56.570002 130.36074,56.13461 c -4.30021,0 -9.89066,3.33457 -11.79031,7.03263 -2.74495,5.3436 -3.95008,5.711 -6.19677,1.88915 -3.1561,-5.36887 -12.746673,-12.37843 -16.936323,-12.37843 -0.62849,0 -6.18822,4.49121 -12.35495,9.98046 -11.48323,10.22167 -16.71895,13.29663 -22.702,13.33298 -3.49086,0.0212 -7.74406,-2.69911 -10.336349,-6.61109 -1.58653,-2.3942 -1.54623,-2.69169 1.09475,-8.08174 1.508069,-3.07782 3.079199,-6.37379 3.491429,-7.32437 0.65221,-1.50398 0.99078,-1.25829 2.60844,1.8928 1.91118,3.72288 6.32103,7.18093 9.15741,7.18093 4.15083,0 11.50453,-4.7246 21.3988,-13.7483 9.55523,-8.71448 10.82987,-9.58412 14.047543,-9.58412 4.29359,0 9.55637,2.77633 14.65637,7.73182 2.06945,2.0108 3.86226,3.5242 3.98403,3.36311 3.62266,-5.566805 10.90469,-9.699668 16.87635,-9.15074 16.82938,1.857986 31.50411,28.885923 47.63888,30.02986 6.12183,0.0506 13.64798,-10.853925 15.61976,-8.99729 0.1695,0.99261 -1.28406,4.87189 -3.23015,8.62062 -5.69216,10.252657 -13.63209,13.763692 -24.76142,9.82371 z"
         style="fill:#c64e3b;fill-opacity:1;stroke:#c64e3b;stroke-width:0.9769991;stroke-miterlimit:4;stroke-opacity:1;stroke-dasharray:none;display:inline"
         sodipodi:nodetypes="sssssssssscssssssscssscssssssczzzczzzzccccszcccczzcsscssscsssccssssssssssssscccccc" />
      <path
         sodipodi:nodetypes="cscszzczcsczzzssccssssssssssscssccsssssssssssccssccssssssssccssccccssscssssccsssscsscc"
         inkscape:connector-curvature="0"
         id="emacs-9-4-3"
         d="m 33.019748,221.94909 c -6.110408,-9.38954 3.380608,-25.48422 15.35655,-34.75342 6.516165,-5.04342 14.224569,-9.82272 13.070959,-9.82483 -0.99658,-0.002 -3.28511,-0.79177 -5.08562,-1.75545 -6.217869,-3.328 -13.320748,-11.33731 7.05534,-28.37574 20.376088,-17.03843 58.074533,-25.26395 64.900723,-20.35237 6.82619,4.91158 -21.13643,22.39146 -22.51985,21.00884 -0.54574,-1.30268 16.61528,-10.7144 12.28657,-13.45436 -4.32871,-2.73996 -49.428283,10.06303 -49.047283,27.89807 0.71955,5.15612 9.09591,7.16542 19.10752,2.72826 7.00502,-3.10464 12.660323,-6.60408 12.285323,-4.56715 -13.758486,12.27671 -39.124345,23.59007 -45.869963,29.39978 -6.745618,5.80971 -7.543869,11.67601 -6.794789,14.18989 0.74908,2.51388 2.060512,5.22647 6.829019,5.51844 4.768507,0.29197 8.89581,0.12074 32.27058,-16.5637 5.16228,-3.68473 10.22809,-7.76323 13.653653,-9.77045 4.32602,-2.53484 10.05688,-4.56948 8.97699,-1.65526 -3.77936,7.61077 -5.74585,10.67934 -9.16756,16.15546 8.11118,-6.33235 15.74717,-14.15513 24.3066,-15.7298 2.0811,-0.38286 6.77241,-1.55766 8.63617,0.99596 0.76447,1.04743 -0.45512,5.1162 -2.21368,8.92266 -0.53908,1.16685 1.05142,0.38368 4.67533,-2.30213 7.44131,-5.51505 14.07912,-8.75072 17.95158,-8.75072 4.57712,0 4.83279,1.74832 1.24097,8.48622 -3.75741,7.04855 -6.75962,17.21422 -4.65148,19.88378 1.46622,1.85669 7.96734,-2.91147 10.3276,-4.31865 2.42293,-1.44454 6.05649,-3.67201 7.44149,-4.72955 10.37298,-7.92039 39.1617,-23.15505 40.99851,-21.53603 0.82449,0.72672 -1.6928,2.43145 -10.4509,7.07749 -14.25554,7.56231 -22.59862,14.9854 -22.60932,20.11619 -0.006,2.71011 4.1743,2.15203 7.26381,1.4275 4.40695,-1.03349 12.41622,-3.9676 -0.1736,3.14023 -13.16001,7.42974 -22.48474,6.17813 -16.63437,-3.95665 l 3.73574,-6.16441 -9.13253,6.55379 c -13.1916,9.46671 -19.35595,10.10807 -22.76505,7.11544 -2.61211,-2.29301 -1.99117,-8.56165 1.43897,-14.5266 2.74703,-4.77707 3.88176,-8.84229 2.46817,-8.84229 -2.38604,0 -7.35932,4.53611 -13.26994,10.69747 -9.97489,10.39803 -8.541,15.10079 -10.5912,15.36938 -1.2597,0.16503 -6.97748,-1.59412 -4.55589,-8.64068 1.80805,-5.26122 4.69288,-8.68747 6.82226,-11.55279 3.86672,-5.2031 1.48047,-5.97342 -3.79027,-3.77097 -3.05613,1.27704 -5.35016,4.83814 -17.152833,15.01371 -13.80489,11.90178 -18.19909,17.31989 -20.79043,11.99664 -1.27325,-2.61557 1.0176,-5.97434 3.23361,-9.57032 4.3675,-7.21553 10.68782,-13.92474 8.63284,-16.40083 -2.05019,0.66573 -5.70142,3.94706 -7.91742,5.72051 -2.21601,1.77344 -5.21691,3.98662 -6.66868,4.91816 -1.45175,0.93154 -5.75786,3.9162 -9.56912,6.63255 -12.148528,7.72218 -28.712254,17.824 -33.545099,10.89873 z m 160.303772,-8.81383 c -4.88506,-3.00364 -1.44968,-15.28518 5.948,-21.26421 3.32796,-2.68976 12.33843,-8.3073 13.32481,-8.3073 0.27463,0 -1.05354,2.61529 -2.9515,5.81174 -5.51025,9.28008 -4.30612,16.29397 2.79731,16.29397 5.95677,0 10.60291,-1.935 15.24759,-9.21089 3.95762,-6.19961 10.07679,-10.04817 15.75277,-13.07984 4.88528,-2.60934 16.10975,-4.00015 19.83723,-4.00272 5.28129,-0.004 5.07061,0.66399 -3.766,4.03459 -5.96006,1.81342 -23.41185,8.68768 -18.33848,20.56454 1.0883,2.49035 5.34941,2.76493 8.03403,2.5731 2.64994,-0.18935 5.81168,-1.7253 7.33518,-2.42296 1.52351,-0.69765 3.03519,0.21321 3.03519,0.61971 -5.88638,3.94569 -11.44839,6.45882 -14.00234,7.27145 -2.61375,0.96599 -7.35132,2.03318 -10.23523,1.93803 -5.03631,0.0339 -9.16147,-1.48631 -10.57379,-3.37846 -0.79608,-1.43217 -1.06163,-2.48284 -0.96262,-3.97903 0.2568,-3.8804 0.16517,-2.52343 -4.28527,0.23044 -13.102,8.10733 -21.40719,9.25285 -26.19688,6.30784 z m 75.29251,0.5386 c -1.38501,-0.41486 -3.99134,-0.79396 -5.79185,-0.84243 -5.99934,-0.16153 -3.6372,-2.26466 5.12716,-4.56493 2.24719,-0.58979 2.74693,-0.49039 2.32997,0.46346 -1.0714,2.45099 8.09297,3.14025 13.72804,1.0325 5.4798,-2.04969 7.70684,-5.31293 8.2153,-10.06119 0.16756,-8.34719 -12.6158,-6.31988 -18.32043,-6.36109 -12.98146,-0.0572 -14.34396,-1.01124 -7.14295,-5.00172 9.56822,-5.3023 20.88185,-11.1336 25.8426,-10.44585 5.86061,0.8125 5.42599,3.39743 -0.5575,3.43312 -3.92889,0.0234 -13.80136,5.14348 -14.97622,6.81223 -1.22979,1.74676 2.12319,2.47254 11.4854,2.48607 8.58743,0.0125 10.7826,1.48644 11.8355,2.18392 2.50203,1.65742 3.46341,8.67923 -0.80123,12.20836 -7.5132,6.21744 -19.30064,10.28748 -30.97375,8.65755 z"
         style="fill:#3c74bd;fill-opacity:1;stroke:#3c74bd;stroke-width:0.99999905;stroke-opacity:1;display:inline" />
    </g>
  </g>
</svg>
