<?xml version="1.0" encoding="UTF-8" standalone="no"?>
<!-- Gnu Emacs Logo

   Copyright (C) 2008-2013 Free Software Foundation, Inc.

   Author: Francesc Rocher <f.rocher@members.fsf.org>
   Based on the original work by Luis Fernandes <elf@ee.ryerson.ca>

   This file is part of GNU Emacs.

   GNU Emacs is free software: you can redistribute it and/or modify
   it under the terms of the GNU General Public License as published by
   the Free Software Foundation; either version 3 of the License, or
   (at your option) any later version.

   GNU Emacs is distributed in the hope that it will be useful,
   but WITHOUT ANY WARRANTY; without even the implied warranty of
   MERCHANTABILITY or FITNESS FOR A PARTICULAR PURPOSE.  See the
   GNU General Public License for more details.

   You should have received a copy of the GNU General Public License
   along with GNU Emacs.  If not, see <http://www.gnu.org/licenses/>.

-->

<svg
   xmlns:dc="http://purl.org/dc/elements/1.1/"
   xmlns:cc="http://creativecommons.org/ns#"
   xmlns:rdf="http://www.w3.org/1999/02/22-rdf-syntax-ns#"
   xmlns:svg="http://www.w3.org/2000/svg"
   xmlns="http://www.w3.org/2000/svg"
   xmlns:xlink="http://www.w3.org/1999/xlink"
   version="1.0"
   width="275.96875"
   height="190.40625"
   id="svg6706"
   style="display:inline">
  <metadata
     id="metadata2314">
    <rdf:RDF>
      <cc:Work
         rdf:about="">
        <dc:format>image/svg+xml</dc:format>
        <dc:type
           rdf:resource="http://purl.org/dc/dcmitype/StillImage" />
        <dc:title></dc:title>
        <dc:date>2008/06/28</dc:date>
        <dc:creator>
          <cc:Agent>
            <dc:title>Francesc Rocher</dc:title>
          </cc:Agent>
        </dc:creator>
        <dc:rights>
          <cc:Agent>
            <dc:title>GPL</dc:title>
          </cc:Agent>
        </dc:rights>
        <dc:description>GNU Emacs splash image</dc:description>
        <dc:contributor>
          <cc:Agent>
            <dc:title>Based on the original work by Luis Fernandes.</dc:title>
          </cc:Agent>
        </dc:contributor>
        <cc:license
           rdf:resource="http://www.gnu.org/copyleft/gpl.html" />
      </cc:Work>
    </rdf:RDF>
  </metadata>
  <defs
     id="defs6709">
    <linearGradient
       id="linearGradient2550">
      <stop
         id="stop2552"
         style="stop-color:#4c94f1;stop-opacity:0.78431374"
         offset="0" />
      <stop
         id="stop2554"
         style="stop-color:#4c94f1;stop-opacity:0.78431374"
         offset="1" />
    </linearGradient>
    <linearGradient
       id="linearGradient7896">
      <stop
         id="stop7898"
         style="stop-color:#fc644b;stop-opacity:0.78431374"
         offset="0" />
      <stop
         id="stop7900"
         style="stop-color:#fc644b;stop-opacity:0.78431374"
         offset="1" />
    </linearGradient>
    <linearGradient
       xlink:href="#linearGradient2550"
       id="linearGradient2556"
       x1="147.62743"
       y1="92.09787"
       x2="145.82028"
       y2="203.60176"
       gradientUnits="userSpaceOnUse" />
    <linearGradient
       xlink:href="#linearGradient7896"
       id="linearGradient2425"
       gradientUnits="userSpaceOnUse"
       gradientTransform="translate(-2.4002643e-7,-2.6398943e-6)"
       x1="147.52159"
       y1="0.92070419"
       x2="147.12886"
       y2="211.99936" />
  </defs>
  <g
     transform="translate(5.34375,-11.4375)"
     id="layer2"
     style="display:inline">
    <path
       id="bg-emacs"
       d="M -0.54734668,196.72853 C -10.238062,181.78405 5.3965305,167.92976 14.809201,161.97512 c 6.963497,-4.40524 14.224571,-9.82272 13.070957,-9.82483 -0.996579,-0.002 -3.28511,-0.79177 -5.085617,-1.75545 -6.217876,-3.328 -7.955628,-16.0503 7.055337,-28.37575 16.709358,-12.01621 42.570706,-26.817295 64.900729,-20.35237 3.972323,1.58882 2.904483,4.42259 -3.766368,9.99493 -5.675178,4.74062 -17.792772,11.85728 -18.753492,11.01391 -0.233326,-0.20481 2.490068,-2.19795 6.051979,-4.42919 3.551812,-2.45188 6.827,-5.57228 6.234589,-9.02517 -1.977492,-3.21848 -14.566202,0.87624 -19.657994,3.11812 -8.980399,3.95401 -30.419617,17.3969 -29.389287,24.77996 0.719552,5.15612 9.095912,7.16542 19.107524,2.72826 7.005023,-3.10464 12.660323,-6.60409 12.285323,-4.56715 -0.365454,1.98509 -12.574667,10.22701 -19.359801,12.99119 -10.773868,4.38916 -18.049435,9.35351 -26.510163,16.40859 -7.801376,6.50528 -6.794788,9.58593 -6.794788,14.18989 0,3.11466 2.974668,5.51843 6.829021,5.51843 7.964514,0 8.895804,0.12074 32.270578,-16.56369 5.162282,-3.68473 10.228089,-7.76323 13.653652,-9.77045 4.326017,-2.53484 9.463124,-4.13198 8.976988,-1.65526 -3.779364,7.61077 -5.74585,10.67934 -9.167556,16.15546 8.11118,-6.33235 15.840916,-14.71763 24.306604,-15.7298 2.101063,-0.25121 7.741174,-0.49516 8.636184,0.99596 0.66736,1.11183 -0.45512,5.1162 -2.21368,8.92266 -0.53908,1.16685 1.05142,0.38368 4.67533,-2.30213 7.4413,-5.51505 14.07911,-8.75072 17.95157,-8.75072 4.57712,0 4.83279,1.74832 1.24097,8.48622 -3.75741,7.04855 -6.75962,17.21422 -4.65148,19.88378 1.46622,1.85669 7.96734,-2.91147 10.3276,-4.31865 2.42293,-1.44454 6.05649,-3.67201 7.44149,-4.72955 10.37298,-7.92039 39.1617,-23.15505 40.99851,-21.53603 0.82449,0.72672 -1.6928,2.43145 -10.4509,7.07749 -14.25554,7.56231 -22.59862,14.9854 -22.60932,20.11619 -0.006,2.71011 4.1743,2.15203 7.26381,1.4275 4.40695,-1.03349 12.41622,-3.9676 -0.1736,3.14023 -13.16001,7.42973 -22.48474,6.17812 -16.63437,-3.95665 l 3.73574,-6.16441 -9.13253,6.55379 c -13.1916,9.46671 -19.35595,10.10807 -22.76505,7.11544 -2.6121,-2.29301 -1.99116,-8.56165 1.43897,-14.5266 2.74703,-4.77707 3.88176,-8.84229 2.46817,-8.84229 -2.38604,0 -7.35931,4.53611 -13.269938,10.69747 -9.974903,10.39803 -8.541011,15.10079 -10.591215,15.36937 -1.2597,0.16503 -6.977484,-1.59412 -4.555892,-8.64067 1.80805,-5.26122 4.692881,-8.68747 6.822262,-11.55279 3.866732,-5.2031 1.480467,-5.97342 -3.790272,-3.77097 -3.05613,1.27704 -5.350157,4.83814 -17.152826,15.01371 -13.804895,11.90177 -18.199091,17.31988 -20.790434,11.99663 -1.273249,-2.61557 1.017602,-5.97434 3.23361,-9.57032 4.367498,-7.21552 10.687821,-13.92473 8.632844,-16.40082 -2.050191,0.66573 -5.701417,3.94706 -7.917424,5.72051 -2.216008,1.77344 -5.216905,3.98662 -6.668674,4.91816 -1.451757,0.93154 -5.757863,3.9162 -9.569125,6.63254 -3.811251,2.71637 -10.546273,6.79489 -14.966706,9.06335 -9.584043,4.91833 -13.8359278,5.33836 -18.57838668,1.83533 z M 159.75643,187.9147 c -4.88506,-3.00364 -1.44968,-15.28517 5.948,-21.2642 3.32796,-2.68976 12.33843,-8.3073 13.32481,-8.3073 0.27463,0 -1.05354,2.61529 -2.9515,5.81174 -5.51025,9.28008 -4.30612,16.29397 2.79731,16.29397 5.95677,0 10.60291,-1.935 15.24759,-9.21089 3.95762,-6.19961 10.07679,-10.04817 15.75277,-13.07984 4.88528,-2.60934 15.49103,-5.23799 19.83723,-4.00272 6.01532,1.70966 5.07061,0.66399 -3.766,4.03459 -9.35359,3.5678 -12.15223,5.23437 -15.80579,9.41222 -4.62835,5.29254 -5.17979,8.5948 -1.91397,11.46168 2.05902,1.80749 3.56776,2.26807 7.41531,2.26374 2.65669,-0.003 5.81168,-1.7253 7.33518,-2.42296 1.52351,-0.69765 3.03519,0.21321 3.03519,0.61971 -5.88638,3.94569 -11.44839,6.45882 -14.00234,7.27145 -2.61375,0.96599 -7.35132,2.03318 -10.23523,1.93803 -5.03631,0.0339 -9.16147,-1.48631 -10.57379,-3.37846 -0.79608,-1.43217 -1.3268,-2.70381 -0.96262,-3.97903 1.0679,-3.73939 0.16517,-2.52343 -4.28527,0.23044 -13.102,8.10733 -21.40719,9.25285 -26.19688,6.30784 z m 75.29251,0.53861 c -1.38501,-0.41487 -3.99134,-0.79396 -5.79185,-0.84243 -5.99934,-0.16153 -3.6372,-2.26466 5.12716,-4.56493 2.24719,-0.58979 2.74693,-0.49039 2.32997,0.46346 -1.0714,2.45099 8.09297,3.14024 13.72804,1.0325 5.4798,-2.04969 7.70684,-5.31293 8.2153,-10.06119 0.16756,-8.34719 -12.6158,-6.31988 -18.32043,-6.36109 -12.98146,-0.0572 -14.34396,-1.01124 -7.14295,-5.00172 9.56822,-5.3023 20.88185,-11.1336 25.8426,-10.44585 5.86061,0.8125 5.42599,3.39743 -0.5575,3.43312 -3.92889,0.0234 -13.80136,5.14348 -14.97622,6.81223 -1.22979,1.74676 2.12319,2.47254 11.4854,2.48607 8.58743,0.0125 9.56792,0.19334 11.8355,2.18392 3.81332,3.3475 3.46341,8.67923 -0.80123,12.20836 -7.5132,6.21743 -19.30064,10.28748 -30.97375,8.65755 z"
       style="opacity:1;fill:#000000;display:inline" />
    <path
       id="bg-gnu"
       d="m 55.834396,197.41294 c 2.448659,-7.38073 7.446723,-16.72109 12.277833,-22.94475 5.710592,-7.35667 7.378339,-9.3856 28.689891,-34.90319 16.87202,-20.20188 19.22296,-23.17964 22.55476,-28.56842 1.5428,-2.49527 3.17766,-4.53686 3.63304,-4.53686 1.18186,0 1.10043,0.30992 -1.63307,6.21531 -1.35357,2.92423 -2.46105,5.64532 -2.46105,6.04685 0,0.40153 -2.97647,4.90375 -6.6144,10.00493 -8.98843,12.60381 -10.76025,14.97182 -13.0823,17.48445 -1.0981,1.18822 -3.8535,4.49366 -6.123108,7.34539 -2.269606,2.85173 -4.587188,5.62332 -5.150194,6.15909 -0.562997,0.53575 -2.795585,3.19769 -4.961309,5.91542 -6.691216,8.39667 -16.095209,19.83397 -17.431654,21.20066 -0.699773,0.71561 -3.044271,3.91702 -5.209995,7.11426 -4.16128,6.14322 -5.795033,7.40513 -4.488444,3.46686 z m 66.481544,-23.7645 c 0.22279,-0.5941 1.5292,-4.28446 2.90315,-8.20081 3.44555,-9.82127 13.66236,-27.15831 19.73886,-33.49506 l 2.48602,-2.59251 2.25191,2.37646 c 2.67739,2.82544 3.88298,2.92759 8.02572,0.68 3.08741,-1.67502 7.69643,-8.22076 20.10229,-28.54928 4.55053,-7.456586 5.01229,-7.939498 5.0346,-5.26516 0.0415,4.9808 -22.21528,41.2544 -29.34472,47.82522 -4.11732,3.7947 -6.18823,4.04757 -8.84718,1.0802 -1.06473,-1.18822 -2.3151,-2.15972 -2.77861,-2.15886 -1.62142,0.003 -12.08302,16.59943 -16.47702,26.13939 -0.82094,1.78235 -1.9443,3.24062 -2.49635,3.24062 -0.55207,0 -0.82147,-0.48609 -0.59867,-1.08021 z m 84.19319,-24.88787 c 0,-7.49007 7.66313,-38.06798 12.33356,-49.21415 3.04458,-7.266009 7.33463,-20.847085 8.32578,-26.356986 0.42748,-2.376449 1.49075,-7.626245 2.36285,-11.666209 0.87207,-4.039964 1.5862,-11.563 1.58694,-16.717855 0.002,-10.935036 -1.20271,-13.589976 -7.10476,-15.663026 -7.62736,-2.67905 -10.16765,-1.47291 -13.00198,6.173428 -1.74243,4.700723 -3.72352,6.856253 -5.44369,5.923006 -1.89626,-1.028794 -1.05403,-4.387566 2.90016,-11.565454 8.13973,-14.77576 14.55936,-18.45654 24.45815,-14.02345 5.65324,2.53175 9.02208,8.60392 9.02208,16.2618 0,9.333563 -7.01946,35.141105 -14.28285,52.511886 -4.47563,10.703728 -11.5668,35.30103 -14.85507,51.5282 -2.1002,10.36421 -3.15113,13.73222 -4.51891,14.48205 -1.5746,0.86323 -1.78226,0.66827 -1.78226,-1.67324 z M 110.03525,94.607887 c -7.1e-4,-8.464568 -0.25892,-9.796146 -2.81265,-14.505144 -2.66535,-4.914782 -7.28206,-9.937882 -9.13385,-9.937882 -0.4676,0 -0.85017,-0.490243 -0.85017,-1.08943 0,-1.557732 8.70129,-12.737188 9.91372,-12.737188 1.73907,0 7.4566,5.456815 9.50728,9.073719 2.60567,4.595744 3.35771,11.337596 2.2795,20.434785 -0.9601,8.100583 -4.13995,15.843563 -7.07234,17.221213 -1.73206,0.81373 -1.83075,0.3578 -1.83149,-8.460073 z m -69.268036,2.283327 c -3.977291,-2.746359 -3.44557,-6.261434 2.439644,-16.127646 4.970535,-8.33282 10.094017,-15.38029 21.43897,-29.489855 6.601357,-8.209992 8.637667,-10.20312 9.579511,-9.376336 0.799394,0.701746 -2.618999,5.390153 -11.474198,15.737111 -16.940162,19.79395 -18.734332,27.221155 -6.575701,27.221155 3.304542,0 6.058837,-0.617002 8.461092,-1.895408 6.360466,-3.38485 18.203678,-11.286415 23.507089,-15.683501 2.848527,-2.361722 5.456729,-4.05036 5.795999,-3.752528 1.04524,0.917548 -4.907057,10.147668 -7.816978,12.121655 -1.511589,1.025416 -5.874113,4.197632 -9.69449,7.049372 -3.820388,2.85174 -8.563965,6.157166 -10.541309,7.345392 -1.977334,1.188224 -4.400156,2.796969 -5.384044,3.574986 -2.248219,1.777799 -11.920783,5.066639 -14.901091,5.066639 -1.232383,0 -3.407898,-0.80597 -4.834494,-1.791036 z M 167.35901,63.639316 c -4.35468,-2.677534 -4.37646,-3.982873 -0.1931,-11.57676 l 3.90554,-7.089571 2.54785,2.658058 c 3.02363,3.154415 6.72598,3.451472 12.70923,1.019721 4.8079,-1.95406 8.30397,-5.194275 11.75211,-10.892036 l 2.61484,-4.320814 -0.49413,3.334678 c -0.73833,4.982504 -10.09007,19.207325 -14.90376,22.669936 -7.26038,5.222576 -13.78694,6.749482 -17.93858,4.196788 z m -32.7125,-5.536491 c -1.89501,-0.888629 -8.4802,-6.332726 -14.63377,-12.09799 -11.53272,-10.804983 -19.30559,-15.591501 -25.31921,-15.591501 -4.300218,0 -9.890682,3.33457 -11.790334,7.032628 -2.74495,5.343604 -3.950075,5.711001 -6.196765,1.88915 -3.156098,-5.368868 -12.746669,-12.378428 -16.936324,-12.378428 -0.628489,0 -6.188212,4.49121 -12.354949,9.980456 -11.483232,10.221671 -16.718945,13.296629 -22.701995,13.33298 -3.490867,0.0212 -7.744061,-2.699113 -10.336357,-6.611093 -1.586521,-2.394192 -1.546221,-2.69169 1.094758,-8.081731 1.508064,-3.077822 3.079193,-6.373792 3.491421,-7.324372 0.652211,-1.50398 0.990788,-1.25829 2.608443,1.8928 1.911186,3.72288 6.321032,7.180923 9.157411,7.180923 4.150835,0 11.504527,-4.724593 21.3988,-13.748293 9.555236,-8.71448 10.829873,-9.58412 14.047538,-9.58412 4.293595,0 9.556372,2.77633 14.656374,7.73182 2.069449,2.0108 3.86226,3.5242 3.984029,3.36311 0.12178,-0.16109 0.945137,-1.31084 1.829667,-2.55499 0.88453,-1.24416 3.685604,-3.3308 6.224606,-4.63699 3.686737,-1.89664 5.463317,-2.29109 8.822097,-1.95876 6.8491,0.67769 15.00978,5.73859 25.22338,15.64246 9.22954,8.949677 17.70147,14.387397 22.41549,14.387397 3.79377,0 9.50175,-3.242454 12.44138,-7.067419 2.42259,-3.152211 2.91825,-3.453173 3.17838,-1.929873 0.1695,0.992615 -1.28406,4.871896 -3.23015,8.620627 -3.35987,6.472087 -6.91202,10.130201 -12.7132,13.092455 -3.04983,1.557333 -10.43785,1.258306 -14.36072,-0.581246 z"
       style="opacity:1;fill:#000000;display:inline" />
  </g>
  <g
     transform="translate(5.34375,-11.4375)"
     id="layer3"
     style="display:inline">
    <path
       id="gnu"
       d="m 57.534816,196.31319 c 2.448659,-7.38073 7.446723,-16.72109 12.277833,-22.94475 5.710592,-7.35667 7.378339,-9.3856 28.689891,-34.90319 16.87202,-20.20188 19.22296,-23.17964 22.55476,-28.56842 1.5428,-2.49527 3.17766,-4.53686 3.63304,-4.53686 1.18186,0 1.10043,0.30992 -1.63307,6.21531 -1.35357,2.92423 -2.46105,5.64532 -2.46105,6.04685 0,0.40153 -2.97647,4.90375 -6.6144,10.00493 -8.98843,12.60381 -10.76025,14.97182 -13.0823,17.48445 -1.0981,1.18822 -3.8535,4.49366 -6.123108,7.34539 -2.269606,2.85173 -4.587188,5.62332 -5.150194,6.15909 -0.562997,0.53575 -2.795585,3.19769 -4.961309,5.91542 -6.691216,8.39667 -16.095209,19.83397 -17.431654,21.20066 -0.699773,0.71561 -3.044271,3.91702 -5.209995,7.11426 -4.16128,6.14322 -5.795033,7.40513 -4.488444,3.46686 z m 66.481544,-23.7645 c 0.22279,-0.5941 1.5292,-4.28446 2.90315,-8.20081 3.44555,-9.82127 13.66236,-27.15831 19.73886,-33.49506 l 2.48602,-2.59251 2.25191,2.37646 c 2.67739,2.82544 3.88298,2.92759 8.02572,0.68 3.08741,-1.67502 7.69643,-8.22076 20.10229,-28.54928 4.55053,-7.45659 5.01229,-7.939502 5.0346,-5.26516 0.0415,4.9808 -22.21528,41.2544 -29.34472,47.82522 -4.11732,3.7947 -6.18823,4.04757 -8.84718,1.0802 -1.06473,-1.18822 -2.3151,-2.15972 -2.77861,-2.15886 -1.62142,0.003 -12.08302,16.59943 -16.47702,26.13939 -0.82094,1.78235 -1.9443,3.24062 -2.49635,3.24062 -0.55207,0 -0.82147,-0.48609 -0.59867,-1.08021 z m 84.19319,-24.88787 c 0,-7.49007 7.66313,-38.06798 12.33356,-49.21415 3.04458,-7.266013 7.33463,-20.847089 8.32578,-26.35699 0.42748,-2.376449 1.49075,-7.626245 2.36285,-11.666209 0.87207,-4.039964 1.5862,-11.563 1.58694,-16.717855 0.002,-10.935036 -1.20271,-13.589976 -7.10476,-15.663026 -7.62736,-2.67905 -10.16765,-1.47291 -13.00198,6.173428 -1.74243,4.700723 -3.72352,6.856253 -5.44369,5.923006 -1.89626,-1.028794 -1.05403,-4.387566 2.90016,-11.565454 8.13973,-14.77576 14.55936,-18.45654 24.45815,-14.02345 5.65324,2.53175 9.02208,8.60392 9.02208,16.2618 0,9.333563 -7.01946,35.141105 -14.28285,52.511886 -4.47563,10.703728 -11.5668,35.301034 -14.85507,51.528204 -2.1002,10.36421 -3.15113,13.73222 -4.51891,14.48205 -1.5746,0.86323 -1.78226,0.66827 -1.78226,-1.67324 z M 111.73567,93.508133 c -7.1e-4,-8.464568 -0.25892,-9.796146 -2.81265,-14.505144 -2.66535,-4.914782 -7.28206,-9.937882 -9.13385,-9.937882 -0.4676,0 -0.85017,-0.490243 -0.85017,-1.08943 0,-1.557732 8.70129,-12.737188 9.91372,-12.737188 1.73907,0 7.4566,5.456815 9.50728,9.073719 2.60567,4.595744 3.35771,11.337596 2.2795,20.434785 -0.9601,8.100583 -4.13995,15.843567 -7.07234,17.221217 -1.73206,0.81373 -1.83075,0.3578 -1.83149,-8.460077 z M 42.467634,95.79146 c -3.977291,-2.746359 -3.44557,-6.261434 2.439644,-16.127646 4.970535,-8.33282 10.094017,-15.38029 21.43897,-29.489855 6.601357,-8.209992 8.637667,-10.20312 9.579511,-9.376336 0.799394,0.701746 -2.618999,5.390153 -11.474198,15.737111 -16.940162,19.79395 -18.734332,27.221155 -6.575701,27.221155 3.304542,0 6.058837,-0.617002 8.461092,-1.895408 6.360466,-3.38485 18.203678,-11.286415 23.507089,-15.683501 2.848527,-2.361722 5.456729,-4.05036 5.795999,-3.752528 1.04524,0.917548 -4.907057,10.147668 -7.816978,12.121655 -1.511589,1.025416 -5.874113,4.197632 -9.69449,7.049372 -3.820388,2.85174 -8.563965,6.157166 -10.541309,7.345392 -1.977334,1.188224 -4.400156,2.796969 -5.384044,3.574986 C 59.955,94.293656 50.282436,97.5825 47.302128,97.5825 c -1.232383,0 -3.407898,-0.80597 -4.834494,-1.79104 z M 169.05943,62.539562 c -4.35468,-2.677534 -4.37646,-3.982873 -0.1931,-11.57676 l 3.90554,-7.089571 2.54785,2.658058 c 3.02363,3.154415 6.72598,3.451472 12.70923,1.019721 4.8079,-1.95406 8.30397,-5.194275 11.75211,-10.892036 l 2.61484,-4.320814 -0.49413,3.334678 c -0.73833,4.982504 -10.09007,19.207325 -14.90376,22.669936 -7.26038,5.222576 -13.78694,6.749482 -17.93858,4.196788 z m -32.7125,-5.536491 c -1.89501,-0.888629 -8.4802,-6.332726 -14.63377,-12.09799 C 110.18044,34.100098 102.40757,29.31358 96.39395,29.31358 c -4.300218,0 -9.890682,3.33457 -11.790334,7.032628 -2.74495,5.343604 -3.950075,5.711001 -6.196765,1.88915 C 75.250753,32.86649 65.660182,25.85693 61.470527,25.85693 c -0.628489,0 -6.188212,4.49121 -12.354949,9.980456 -11.483232,10.221671 -16.718945,13.296629 -22.701995,13.33298 -3.490867,0.0212 -7.744061,-2.699113 -10.336357,-6.611093 -1.586521,-2.394192 -1.546221,-2.69169 1.094758,-8.081731 1.508064,-3.077822 3.079193,-6.373792 3.491421,-7.324372 0.652211,-1.50398 0.990788,-1.25829 2.608443,1.8928 1.911186,3.72288 6.321032,7.180923 9.157411,7.180923 4.150835,0 11.504527,-4.724593 21.3988,-13.748293 9.555236,-8.71448 10.829873,-9.58412 14.047538,-9.58412 4.293595,0 9.556372,2.77633 14.656374,7.73182 2.069449,2.0108 3.86226,3.5242 3.984029,3.36311 0.12178,-0.16109 0.945137,-1.31084 1.829667,-2.55499 0.88453,-1.24416 3.685604,-3.3308 6.224606,-4.63699 3.686737,-1.89664 5.463317,-2.29109 8.822097,-1.95876 6.8491,0.67769 15.00978,5.73859 25.22338,15.64246 9.22954,8.949677 17.70147,14.387397 22.41549,14.387397 3.79377,0 9.50175,-3.242454 12.44138,-7.067419 2.42259,-3.152211 2.91825,-3.453173 3.17838,-1.929873 0.1695,0.992615 -1.28406,4.871896 -3.23015,8.620627 -3.35987,6.472087 -6.91202,10.130201 -12.7132,13.092455 -3.04983,1.557333 -10.43785,1.258306 -14.36072,-0.581246 z"
       style="fill:url(#linearGradient2425);fill-opacity:1;stroke:#000000;stroke-width:0.97730815" />
    <path
       id="emacs"
       d="M -0.94705426,195.12806 C -10.63777,180.18357 4.9968228,166.32928 14.409493,160.37464 c 6.963497,-4.40524 14.224571,-9.82272 13.070957,-9.82483 -0.996579,-0.002 -3.28511,-0.79177 -5.085617,-1.75545 -6.217876,-3.328 -7.955628,-16.0503 7.055337,-28.37575 16.709358,-12.01621 42.570706,-26.817291 64.900729,-20.35236 3.972325,1.58882 2.904485,4.42259 -3.766368,9.99492 -5.675178,4.74062 -17.792772,11.85728 -18.753492,11.01391 -0.233326,-0.20481 2.490068,-2.19795 6.051979,-4.42919 3.551812,-2.45188 6.827,-5.57228 6.234589,-9.02516 -1.977492,-3.21848 -14.566202,0.87623 -19.657994,3.11811 -8.980399,3.95401 -30.419617,17.3969 -29.389287,24.77996 0.719552,5.15612 9.095912,7.16542 19.107524,2.72826 7.005023,-3.10464 12.660323,-6.60409 12.285323,-4.56715 -0.365454,1.98509 -12.574667,10.22701 -19.359801,12.99119 -10.773868,4.38916 -18.049435,9.35351 -26.510163,16.40859 -7.801376,6.50528 -6.794788,9.58593 -6.794788,14.18989 0,3.11466 2.974668,5.51844 6.829021,5.51844 7.964514,0 8.895804,0.12074 32.270578,-16.5637 5.162282,-3.68473 10.228089,-7.76323 13.653652,-9.77045 4.326017,-2.53484 9.463124,-4.13198 8.976988,-1.65526 -3.779364,7.61077 -5.74585,10.67934 -9.167556,16.15546 8.11118,-6.33235 15.840916,-14.71763 24.306604,-15.7298 2.101063,-0.25121 7.741176,-0.49516 8.636186,0.99596 0.66736,1.11183 -0.45512,5.1162 -2.21368,8.92266 -0.53908,1.16685 1.05142,0.38368 4.675326,-2.30213 7.4413,-5.51505 14.07911,-8.75072 17.95157,-8.75072 4.57712,0 4.83279,1.74832 1.24097,8.48622 -3.75741,7.04855 -6.75962,17.21422 -4.65148,19.88378 1.46622,1.85669 7.96734,-2.91147 10.3276,-4.31865 2.42293,-1.44454 6.05649,-3.67201 7.44149,-4.72955 10.37298,-7.92039 39.1617,-23.15505 40.99851,-21.53603 0.82449,0.72672 -1.6928,2.43145 -10.4509,7.07749 -14.25554,7.56231 -22.59862,14.9854 -22.60932,20.11619 -0.006,2.71011 4.1743,2.15203 7.26381,1.4275 4.40695,-1.03349 12.41622,-3.9676 -0.1736,3.14023 -13.16001,7.42974 -22.48474,6.17813 -16.63437,-3.95665 l 3.73574,-6.16441 -9.13253,6.55379 c -13.1916,9.46671 -19.35595,10.10807 -22.76505,7.11544 -2.6121,-2.29301 -1.99116,-8.56165 1.43897,-14.5266 2.74703,-4.77707 3.88176,-8.84229 2.46817,-8.84229 -2.38604,0 -7.35931,4.53611 -13.269936,10.69747 -9.974903,10.39803 -8.541011,15.10079 -10.591215,15.36938 -1.2597,0.16503 -6.977484,-1.59412 -4.555892,-8.64068 1.80805,-5.26122 4.692881,-8.68747 6.822262,-11.55279 3.866732,-5.2031 1.480467,-5.97342 -3.790272,-3.77097 -3.05613,1.27704 -5.350157,4.83814 -17.152826,15.01371 -13.804895,11.90178 -18.199091,17.31989 -20.790434,11.99664 -1.273249,-2.61557 1.017602,-5.97434 3.23361,-9.57032 4.367498,-7.21553 10.687821,-13.92474 8.632844,-16.40083 -2.050191,0.66573 -5.701417,3.94706 -7.917424,5.72051 -2.216008,1.77344 -5.216905,3.98662 -6.668674,4.91816 -1.451757,0.93154 -5.757863,3.9162 -9.569125,6.63255 -3.811251,2.71637 -10.546273,6.79488 -14.966706,9.06335 -9.5840432,4.91833 -13.8359275,5.33836 -18.57838626,1.83533 z M 159.35672,186.31423 c -4.88506,-3.00364 -1.44968,-15.28518 5.948,-21.26421 3.32796,-2.68976 12.33843,-8.3073 13.32481,-8.3073 0.27463,0 -1.05354,2.61529 -2.9515,5.81174 -5.51025,9.28008 -4.30612,16.29397 2.79731,16.29397 5.95677,0 10.60291,-1.935 15.24759,-9.21089 3.95762,-6.19961 10.07679,-10.04817 15.75277,-13.07984 4.88528,-2.60934 15.49103,-5.23799 19.83723,-4.00272 6.01532,1.70966 5.07061,0.66399 -3.766,4.03459 -9.35359,3.5678 -12.15223,5.23437 -15.80579,9.41222 -4.62835,5.29254 -5.17979,8.5948 -1.91397,11.46168 2.05902,1.80749 3.56776,2.26807 7.41531,2.26374 2.65669,-0.003 5.81168,-1.7253 7.33518,-2.42296 1.52351,-0.69765 3.03519,0.21321 3.03519,0.61971 -5.88638,3.94569 -11.44839,6.45882 -14.00234,7.27145 -2.61375,0.96599 -7.35132,2.03318 -10.23523,1.93803 -5.03631,0.0339 -9.16147,-1.48631 -10.57379,-3.37846 -0.79608,-1.43217 -1.3268,-2.70381 -0.96262,-3.97903 1.0679,-3.73939 0.16517,-2.52343 -4.28527,0.23044 -13.102,8.10733 -21.40719,9.25285 -26.19688,6.30784 z m 75.29251,0.5386 c -1.38501,-0.41486 -3.99134,-0.79396 -5.79185,-0.84243 -5.99934,-0.16153 -3.6372,-2.26466 5.12716,-4.56493 2.24719,-0.58979 2.74693,-0.49039 2.32997,0.46346 -1.0714,2.45099 8.09297,3.14025 13.72804,1.0325 5.4798,-2.04969 7.70684,-5.31293 8.2153,-10.06119 0.16756,-8.34719 -12.6158,-6.31988 -18.32043,-6.36109 -12.98146,-0.0572 -14.34396,-1.01124 -7.14295,-5.00172 9.56822,-5.3023 20.88185,-11.1336 25.8426,-10.44585 5.86061,0.8125 5.42599,3.39743 -0.5575,3.43312 -3.92889,0.0234 -13.80136,5.14348 -14.97622,6.81223 -1.22979,1.74676 2.12319,2.47254 11.4854,2.48607 8.58743,0.0125 9.56792,0.19334 11.8355,2.18392 3.81332,3.3475 3.46341,8.67923 -0.80123,12.20836 -7.5132,6.21744 -19.30064,10.28748 -30.97375,8.65755 z"
       style="opacity:1;fill:url(#linearGradient2556);fill-opacity:1;stroke:#000000;display:inline" />
  </g>
</svg>
