/* XPM */
static char * widen_xpm[] = {
/* columns rows colors chars-per-pixel */
"24 24 3 1",
" 	c None",
".	c #8d4d97577838",
"X	c black",
/* pixels */
"                        ",
"                        ",
"                        ",
"  .                  .  ",
"  .                  .  ",
"  .                  .  ",
"  .                  .  ",
"  .                  .  ",
"  .   XX        XX   .  ",
"  .  XX          XX  .  ",
"  . XX            XX .  ",
"  .XXXXXXXX  XXXXXXXX.  ",
"  .XXXXXXXX  XXXXXXXX.  ",
"  . XX            XX .  ",
"  .  XX          XX  .  ",
"  .   XX        XX   .  ",
"  .                  .  ",
"  .                  .  ",
"  .                  .  ",
"  .                  .  ",
"  .                  .  ",
"                        ",
"                        ",
"                        "};
