#define emacs_width 64
#define emacs_height 64
static char emacs_bits[] = {
 0xff,0xff,0xff,0xff,0xff,0xff,0xff,0xff,0x01,0x00,0x00,0x00,0x00,0x00,0x00,
 0x80,0x01,0x00,0x00,0x00,0x00,0x7e,0x38,0x80,0x01,0x00,0x00,0x00,0x00,0x60,
 0x38,0x80,0x01,0x00,0x00,0x00,0x00,0xfe,0x3f,0x80,0x01,0x00,0x00,0x00,0x00,
 0x01,0x38,0x80,0x01,0x00,0x00,0x00,0x80,0xfc,0x3f,0x80,0x01,0x00,0x00,0x00,
 0x80,0x02,0x38,0x80,0x01,0x00,0x00,0x00,0xc0,0x07,0x38,0x80,0x01,0x00,0x00,
 0x00,0x00,0x00,0x38,0x80,0x01,0x00,0x00,0x00,0x00,0x00,0x38,0x80,0x01,0x00,
 0x00,0x00,0x00,0x00,0x38,0x80,0x01,0x00,0x00,0x00,0x00,0x00,0x38,0x80,0x01,
 0x00,0x00,0x00,0x40,0x08,0x38,0x80,0x01,0x00,0x00,0x00,0xc0,0x0c,0x38,0x80,
 0x01,0x00,0x00,0x00,0x00,0x03,0x38,0x80,0x01,0xc0,0xff,0xff,0xff,0xff,0x7f,
 0x80,0x01,0xa0,0xff,0xff,0xff,0xff,0x7f,0x80,0x01,0x20,0xff,0xff,0xff,0xff,
 0x3f,0x80,0x01,0x20,0x1e,0xfe,0xff,0xff,0x1f,0x80,0x01,0x20,0xee,0xff,0xff,
 0xff,0x1f,0x80,0x01,0x00,0xee,0xc7,0xf6,0xff,0x1f,0x80,0x01,0x00,0x6e,0xb4,
 0xf6,0xff,0x1f,0x80,0x01,0x20,0xee,0xb5,0xf6,0xff,0x1f,0x80,0x01,0x30,0xee,
 0xb5,0xf6,0xff,0x1f,0x80,0x01,0x20,0x1e,0xb6,0xf1,0xff,0x1f,0x80,0x01,0x00,
 0xfe,0xff,0xff,0xff,0x1f,0x80,0x01,0x00,0xfe,0xff,0xff,0xff,0x1f,0x80,0x01,
 0x00,0x7e,0xf0,0xff,0xff,0x1f,0x80,0x01,0x10,0x7e,0xff,0xff,0xff,0x1f,0x80,
 0x01,0x30,0x7e,0x9f,0x8c,0x73,0x1c,0x80,0x01,0x20,0x7e,0x58,0xb5,0xad,0x1f,
 0x80,0x01,0x00,0x7e,0x5f,0xb5,0x7d,0x1e,0x80,0x01,0x00,0x7e,0xdf,0xb5,0xed,
 0x1d,0x80,0x01,0x00,0x7e,0xd0,0x4d,0x33,0x1e,0x80,0x01,0x00,0xfe,0xff,0xff,
 0xff,0x1f,0x80,0x01,0x20,0xfc,0xff,0xff,0xff,0x0f,0x80,0x01,0x20,0xf8,0xff,
 0xff,0xff,0x07,0x80,0x01,0x30,0x00,0xc0,0x06,0x00,0x00,0x80,0x01,0x00,0x00,
 0x80,0xc2,0x03,0x00,0x80,0x01,0x00,0x00,0x80,0x22,0x04,0x00,0x80,0x01,0x00,
 0x00,0x80,0x92,0x09,0x00,0x80,0x01,0x00,0x00,0x80,0x52,0x0a,0x00,0x80,0x01,
 0x20,0x00,0x80,0x4c,0x0a,0x00,0x80,0x01,0x20,0x00,0x00,0x21,0x0a,0x00,0x80,
 0x01,0x50,0x00,0x00,0x1e,0x0a,0x00,0x80,0x01,0x00,0x00,0x00,0x00,0x0a,0x00,
 0x80,0xff,0xff,0xff,0xff,0xff,0xff,0xff,0xff,0x00,0x00,0x00,0x00,0x00,0x00,
 0x00,0x00,0x00,0x00,0x00,0x00,0x00,0x00,0x00,0x00,0x00,0x00,0x00,0x00,0x00,
 0x00,0x00,0x00,0x00,0x00,0x00,0x00,0x00,0x00,0x00,0x00,0x00,0x00,0x00,0x00,
 0x00,0x00,0x00,0x00,0x00,0x00,0x00,0x00,0x00,0x00,0x00,0x00,0x00,0x00,0x00,
 0x00,0x00,0x00,0x00,0x00,0x00,0x00,0x00,0x00,0x00,0x00,0x00,0x00,0x00,0x00,
 0x00,0x00,0x00,0x00,0x00,0x00,0x00,0x00,0x00,0x00,0x00,0x00,0x00,0x00,0x00,
 0x00,0x00,0x00,0x00,0x00,0x00,0x00,0x00,0x00,0x00,0x00,0x00,0x00,0x00,0x00,
 0x00,0x00,0x00,0x00,0x00,0x00,0x00,0x00,0x00,0x00,0x00,0x00,0x00,0x00,0x00,
 0x00,0x00,0x00,0x00,0x00,0x00,0x00,0x00,0x00,0x00,0x00,0x00,0x00,0x00,0x00,
 0x00,0x00};
