/* XPM */
static char * sb_file+_xpm[] = {
"20 15 4 1",
" 	c None",
".	c #828282",
"+	c #000000",
"@	c #FFFFFF",
"       ............ ",
"      .++++++++++++.",
"     .++@@@@@@@@@@+.",
"    .+@+@@@@@@@@@@+.",
"   .+@@+@@@@@@@@@@+.",
"  .+@@@+@@@++@@@@@+.",
" .+@@@@+@@@++@@@@@+.",
".+++++++@++++++@@@+.",
".+@@@@@@@++++++@@@+.",
".+@@@@@@@@@++@@@@@+.",
".+@@@@@@@@@++@@@@@+.",
".+@@@@@@@@@@@@@@@@+.",
".+@@@@@@@@@@@@@@@@+.",
".++++++++++++++++++.",
" .................. "};
