/* XPM */
static char * sb_tag_type_xpm[] = {
"20 15 5 1",
" 	c None",
".	c #B8B8B8",
"+	c #000000",
"@	c #FFF993",
"#	c #828282",
"                    ",
"                    ",
"    ..............  ",
"   .++++++++++++++. ",
"  .+@@@@@@@@@@@@@@+#",
" .+@@@@@@++++++@@@+#",
".+@@@@@@@++++++@@@+#",
".+@++@@@@@@++@@@@@+#",
".+@++@@@@@@++@@@@@+#",
".+@@@@@@@@@++@@@@@+#",
" #+@@@@@@@@++@@@@@+#",
"  #+@@@@@@@@@@@@@@+#",
"   #++++++++++++++# ",
"    ##############  ",
"                    "};
