/* XPM */
static char * alias_xpm[] = {
/* columns rows colors chars-per-pixel */
"24 24 4 1",
" 	c None",
".	c #61b761b7600a",
"X	c #a5d8a5d89550",
"o	c black",
/* pixels */
"                        ",
"                        ",
"                        ",
"     ......             ",
"   ...XXXX..XX          ",
"  o..ooooooo...         ",
" ooo      oooo..X       ",
" o.X        ooo...      ",
" o.X          ooo.XX    ",
" o.X            oo..    ",
" o.X             oo.    ",
" o...            oo..   ",
"  o.X             o..   ",
"  o.XX            oX.   ",
"   o....          oo.   ",
"    o..XX        oooo   ",
"     o...XXX   XXoooo   ",
"      ooo........ooooo  ",
"        oooooXXooooo.oo ",
"            ooo    o..oo",
"                    o...",
"                     ooo",
"                      oo",
"                        "};
