/* XPM */
static char *magick[] = {
/* columns rows colors chars-per-pixel */
"24 24 100 2",
"   c Gray0",
".  c #010101",
"X  c #020202",
"o  c Gray1",
"O  c Gray2",
"+  c #060606",
"@  c #070707",
"#  c Gray3",
"$  c #090909",
"%  c Gray4",
"&  c #0b0b0b",
"*  c #0c0c0c",
"=  c Gray5",
"-  c #0e0e0e",
";  c Gray6",
":  c #101010",
">  c #111111",
",  c Gray7",
"<  c #131313",
"1  c Gray8",
"2  c #151515",
"3  c #161616",
"4  c #181818",
"5  c #494949",
"6  c #4b4b4b",
"7  c #4e4e4e",
"8  c #555555",
"9  c Gray37",
"0  c #686868",
"q  c Gray41",
"w  c #6d6d6d",
"e  c Gray47",
"r  c Gray48",
"t  c #7c7c7c",
"y  c Gray49",
"u  c Gray",
"i  c #808080",
"p  c Gray51",
"a  c #848484",
"s  c Gray52",
"d  c #8b8b8b",
"f  c Gray55",
"g  c #8d8d8d",
"h  c #909090",
"j  c #929292",
"k  c Gray59",
"l  c #989898",
"z  c Gray60",
"x  c #9a9a9a",
"c  c #9b9b9b",
"v  c Gray64",
"b  c #a5a5a5",
"n  c #a7a7a7",
"m  c Gray66",
"M  c #aaaaaa",
"N  c Gray67",
"B  c #acacac",
"V  c #aeaeae",
"C  c Gray69",
"Z  c #b1b1b1",
"A  c #b2b2b2",
"S  c #b4b4b4",
"D  c Gray71",
"F  c #b6b6b6",
"G  c #b7b7b7",
"H  c #b9b9b9",
"J  c Gray73",
"K  c #bbbbbb",
"L  c #bcbcbc",
"P  c None",
"I  c Gray75",
"U  c #c1c1c1",
"Y  c Gray76",
"T  c #c3c3c3",
"R  c #c6c6c6",
"E  c Gray78",
"W  c #cbcbcb",
"Q  c #cdcdcd",
"!  c #d0d0d0",
"~  c Gray82",
"^  c #d2d2d2",
"/  c #d3d3d3",
"(  c #d5d5d5",
")  c #d7d7d7",
"_  c #d8d8d8",
"`  c Gray86",
"'  c #dddddd",
"]  c Gray87",
"[  c #dfdfdf",
"{  c Gray88",
"}  c #e1e1e1",
"|  c #e2e2e2",
" . c Gray89",
".. c #e4e4e4",
"X. c Gray90",
"o. c #e7e7e7",
"O. c #e9e9e9",
"+. c #eaeaea",
"@. c #eeeeee",
"#. c #efefef",
/* pixels */
"P P P P P P P P P P P P P P P P P P P P P P P P ",
"P P P P P P P P P P P P P P P P P P P P P P P P ",
"P P P P P P P P P P P P P P P P P P P P P P P P ",
"P P P P P P P P P P P P P P P P P P P P P P P P ",
"P P P P P P P P   o + @ $ $ @ P P P P P P P P P ",
"P P P P P P . . m U ~ ~ L v 0 ; < P P P P P P P ",
"P P P P P . c ( +.X.} { ` _ Q d 6 3 P P P P P P ",
"P P P P P X ( @.O. .] ] ] ) W I y 4 P P P P P P ",
"P P P P X z #.o. .& ] ' { # J Y z 5 , P P P P P ",
"P P P P o F O.| > $ = [ + # % Z C a 2 P P P P P ",
"P P P P + E ..| ] * O O @ # B Q D l < P P P P P ",
"P P P P $ I ..] [ [ O @ @ ( ^ H A j 1 P P P P P ",
"P P P P * G  .} } @ @ @ # $ P S v i 1 P P P P P ",
"P P P P * k E ( @ # # / $ * > m h w < P P P P P ",
"P P P P % y V T W $ Q ! K : c c t 8 : P P P P P ",
"P P P P P = x N P R F T Z n c r 9 < P P P P P P ",
"P P P P P - p v M m n b c f s q 8 = P P P P P P ",
"P P P P P P ; > u l k g e 9 7 , * P P P P P P P ",
"P P P P P P P P - > 1 2 3 3 , P P P P P P P P P ",
"P P P P P P P P P P P P P P P P P P P P P P P P ",
"P P P P P P P P P P P P P P P P P P P P P P P P ",
"P P P P P P P P P P P P P P P P P P P P P P P P ",
"P P P P P P P P P P P P P P P P P P P P P P P P ",
"P P P P P P P P P P P P P P P P P P P P P P P P "
};
