/* XPM */
static char *magick[] = {
/* columns rows colors chars-per-pixel */
"24 24 24 1",
"  c gray2",
". c #0b0b0b",
"X c #131313",
"o c #181818",
"O c #4b4b4b",
"+ c #555555",
"@ c gray37",
"# c #6a6a6a",
"$ c #7b7b7b",
"% c #838383",
"& c gray55",
"* c gray58",
"= c #9a9a9a",
"- c #a5a5a5",
"; c #aaaaaa",
": c #b4b4b4",
"> c #bcbcbc",
", c gray77",
"< c gray80",
"1 c #d3d3d3",
"2 c #dddddd",
"3 c gray89",
"4 c gray92",
"5 c None",
/* pixels */
"555555555555555555555555",
"555555555555555555555555",
"555555555555555555555555",
"555555555555555555555555",
"55555555       555555555",
"555555  ->11>-#.X5555555",
"55555 =1433321<&OX555555",
"55555 14433221<,$X555555",
"5555 =433.223 >,=OX55555",
"5555 >43...3 ..::%X55555",
"5555 ,332.    ;<:*X55555",
"5555.>3223   11>:*X55555",
"5555.>333 . ..5:-$X55555",
"5555.*<1 . 1..X-*#X55555",
"5555.$;,<.<<>X==$+X55555",
"55555.=;5,:,:-=$@X555555",
"55555.%-;;--=&%#+.555555",
"555555.X>=*&$@OX.5555555",
"55555555.XXXXXX555555555",
"555555555555555555555555",
"555555555555555555555555",
"555555555555555555555555",
"555555555555555555555555",
"555555555555555555555555"
};
