/* XPM */
static char *magick[] = {
/* columns rows colors chars-per-pixel */
"24 24 7 1",
"  c Gray0",
". c #424242423a3a",
"X c #68e968e96363",
"o c #a8b1a8b1992b",
"O c #d3d3d3d3bdbd",
"+ c #e419e419cd6b",
"@ c None",
/* pixels */
"@@@@@@@@@@@@@@@@@@@@@@@@",
"@@@@@@@@@@@@@@@@@@@@@@@@",
"@@@@@@@@@@@@@@@@@@@@@@@@",
"@@@@@@@@@@@@@@@@@@@@@@@@",
"@@@@@@@@@@@@@@@@@@@@@@@@",
"@@@@@@@@  @@@@@@@@@@@@@@",
"@@@@@@  Oo @@@@@@@@@@@@@",
"@@@@ .ooOO @@@@  @@@@@@@",
"@@@@ +XoOOo @  Oo @@@@@@",
"@@@@ +.oO++ .ooOO @@@@@@",
"@@@@ XoO+++ +XoOOo @@@@@",
"@@@@ oOO+++ +.oO++ @@@@@",
"@@@@ oO++++ XoOO++o @@@@",
"@@@@@ +++++ oOO++++o @@@",
"@@@@@ o++++ oO++++++ @@@",
"@@@@@@ ++o   +++++++o @@",
"@@@@@@ o  @@ o++++o  @@@",
"@@@@@@@ @@@@@ ++o  @@@@@",
"@@@@@@@@@@ @@ o  @@@@@@@",
"@@@@@@@     @@ @@@@@@@@@",
"@@@@@@@     @@@@@@@@@@@@",
"@@@@@@@@@@ @@@@@@@@@@@@@",
"@@@@@@@@@@@@@@@@@@@@@@@@",
"@@@@@@@@@@@@@@@@@@@@@@@@"
};
