/* XPM */
static char *magick[] = {
/* columns rows colors chars-per-pixel */
"24 24 24 1",
"  c gray0",
". c #272727",
"X c #42423a",
"o c #616156",
"O c gray44",
"+ c #929283",
"@ c #9f9f8f",
"# c #a5a594",
"$ c #adad9c",
"% c #aeaea8",
"& c #b6b6a4",
"* c #b3b3ac",
"= c #bbbba7",
"- c #d3d3bd",
"; c #d7d7c1",
": c #dbdbc4",
"> c #dfdfc8",
", c #ddddd9",
"< c #e4e4cc",
"1 c #ebebd3",
"2 c #f0f0d7",
"3 c #f3f3da",
"4 c #eaeae2",
"5 c None",
/* pixels */
"555555555555555555555555",
"555555555555555555555555",
"555555555555555555555555",
"555555555555555555555555",
"555555555555555555555555",
"55555555  55555555555555",
"555555  -+ 5555555555555",
"5555 .%&-; 5555  5555555",
"5555 4O*;:$ 5  -+ 555555",
"5555 ,X#:>< .%&-; 555555",
"5555 o#:>>< 4O*;:$ 55555",
"5555 =;:><< ,X#:>< 55555",
"5555 +:><<1 o#::<<& 5555",
"55555 ><<11 =::><11# 555",
"55555 $<111 +:><<113 555",
"555555 <1#   ><<1133# 55",
"555555 @  55 $<112#  555",
"5555555 55555 <1#  55555",
"5555555555 55 @  5555555",
"5555555     55 555555555",
"5555555     555555555555",
"5555555555 5555555555555",
"555555555555555555555555",
"555555555555555555555555"
};
