/* XPM */
static char * display_xpm[] = {
"24 24 2 1",
" 	c #C0C0C0C0C0C0",
".	c #000000000000",
"                        ",
"                        ",
"                        ",
"                        ",
"            ...         ",
"             ..         ",
"             ..         ",
"             ..         ",
"          .....         ",
"         ..  ..         ",
"        ..   ..         ",
"        ..   ..         ",
"        ..   ..         ",
"        ..   ..         ",
"        ..   ..         ",
"         ..  ..         ",
"          ......        ",
"                        ",
"                        ",
"                        ",
"                        ",
"                        ",
"                        ",
"                        "};
