/* XPM */
static char * go_xpm[] = {
"24 24 4 1",
" 	c None",
".	c #000080800000",
"X	c #FFFFFFFFFFFF",
"o	c #F8F8FCFCF8F8",
"                        ",
"                        ",
"       ..........       ",
"      ............      ",
"     ..............     ",
"    ................    ",
"   ..................   ",
"  ......XX...oo.......  ",
"  .....X..X.o..o......  ",
"  .....X....o..o......  ",
"  .....X....o..o......  ",
"  .....X....o..o......  ",
"  .....X.XX.o..o......  ",
"  .....X..X.o..o......  ",
"  .....X..X.o..o......  ",
"  .....X..X.o..o......  ",
"  ......XX...oo.......  ",
"   ..................   ",
"    ................    ",
"     ..............     ",
"      ............      ",
"       ..........       ",
"                        ",
"                        "};
