/* XPM */
static char * home_xpm[] = {
"24 24 9 1",
" 	c None",
".	c #020202",
"+	c #6C7962",
"@	c #7A8A6E",
"#	c #FEFEFE",
"$	c #7E8E76",
"%	c #82927A",
"&	c #C8CEC4",
"*	c #E3E7E1",
"                        ",
"                        ",
"                        ",
"                        ",
"           .  ...       ",
"          .#. .&.       ",
"         .#*%..&.       ",
"        .##&&$.&.       ",
"       .##&&&&$&.       ",
"      .*#&&&&&&@.       ",
"     .##&&&&&&&&+.      ",
"    .###&&&&&&&&&+.     ",
"   ...##&&&&&&&&+...    ",
"     .##&&&&&&&&+.      ",
"     .##....&&&&+.      ",
"     .##.&&.&&&&+.      ",
"     .##.&&.&&&&+.      ",
"     .#*.&&.&&&&+.      ",
"     .&+.++.+++++.      ",
"     .............      ",
"                        ",
"                        ",
"                        ",
"                        "};
