/* XPM */
static char *magick[] = {
/* columns rows colors chars-per-pixel */
"24 24 20 1",
"  c gray0",
". c #626f5a",
"X c #6c7a63",
"o c #7a8a6f",
"O c #7f8f74",
"+ c #839279",
"@ c #a6b19e",
"# c #b7c0b1",
"$ c #b8c1b2",
"% c #c7cec3",
"& c #c8cfc4",
"* c #c9d0c5",
"= c #cdd4ca",
"- c #d2d7ce",
"; c #d3d8cf",
": c #d4d9d0",
"> c #d8ddd4",
", c #e0e4dd",
"< c #eff1ee",
"1 c None",
/* pixels */
"111111111111111111111111",
"111111111111111111111111",
"111111111111111111111111",
"111111111111111111111111",
"11111111111 11   1111111",
"1111111111 1 1 = 1111111",
"111111111 1,+  * 1111111",
"11111111 11:$+ & 1111111",
"1111111 11-=&#O& 1111111",
"111111 <1-&&&*$o 1111111",
"11111 11;&&*&&&$X 111111",
"1111 111*&&*&%%%@. 11111",
"111   11&&&&%%%%X   1111",
"11111 11*&%%%%%%X 111111",
"11111 11    %%%%X 111111",
"11111 11 %% %%%&X 111111",
"11111 11 && &&%%X 111111",
"11111 1> == &&%%X 111111",
"11111 *X XX XXXXX 111111",
"11111             111111",
"111111111111111111111111",
"111111111111111111111111",
"111111111111111111111111",
"111111111111111111111111"
};
