/* XPM */
static char *magick[] = {
/* columns rows colors chars-per-pixel */
"24 24 8 1",
"  c Gray0",
". c #6bcb79c962d2",
"X c #7cfd8d0d71f2",
"o c #838392927979",
"O c #a6a6b1b19e9e",
"+ c #b878c181b272",
"@ c #ca8cd151c6a5",
"# c None",
/* pixels */
"########################",
"########################",
"########################",
"########################",
"########### ##   #######",
"########## # # @ #######",
"######### #@o  @ #######",
"######## ##@+o @ #######",
"####### ##@@@+X@ #######",
"###### @#@@@@@+X #######",
"##### ##@@@@@@@+. ######",
"#### ###@@@@@@@@O. #####",
"###   ##@@@@@@@@.   ####",
"##### ##@@@@@@@@. ######",
"##### ##    @@@@. ######",
"##### ## @@ @@@@. ######",
"##### ## @@ @@@@. ######",
"##### #@ @@ @@@@. ######",
"##### @. .. ..... ######",
"#####             ######",
"########################",
"########################",
"########################",
"########################"
};
