/* XPM */
static char *magick[] = {
/* columns rows colors chars-per-pixel */
"24 24 9 1",
"  c Gray0",
". c #4646424233b4",
"X c #6f4d67895151",
"o c #911b871c69df",
"O c #b3d8a9b58836",
"+ c #c280b9779c39",
"@ c #cd0cc646ae2e",
"# c #e0e0e4e4e0e0",
"$ c None",
/* pixels */
"$$$$$$$$$$$$$$$$$$$$$$$$",
"$$$$$$$$$$$$$$$$$$$$$$$$",
"$$$$$$$$$$$$$$$$$$$$$$$$",
"$$$$                  $$",
"$$$$ ################ $$",
"$$$$ #####  O######## $$",
"$$$$ #### oX O####### $$",
"$$$$      @o          $$",
"$$$$ #### @o O####### $$",
"$$$$ #### @o   O##### $$",
"$$$$ #### @o X.   O## $$",
"$$$$      +o OX oX    $$",
"$$$$ ## X +o Oo Oo oX $$",
"$$$$ ## o +OoOOoOOOOo $$",
"$$$$ ## O +++OOOOOOOX $$",
"$$$$    O O++O+OOOOOX $$",
"$$$$ ## ooO+++O+OOOOX $$",
"$$$$ ### oO++++OOOOo. $$",
"$$$$ ### XOO++O+OOOo $$$",
"$$$$      o++++OOOoX $$$",
"$$$$$$$$$ XOO+++OOoX $$$",
"$$$$$$$$$$ oO++OOOX $$$$",
"$$$$$$$$$$$ OO++OOX $$$$",
"$$$$$$$$$$$$$$$$$$$$$$$$"
};
