/* XPM */
static char * tb_index_xpm[] = {
"24 24 20 1",
" 	c None",
".	c #000000",
"+	c #E0E4E0",
"@	c #949C8C",
"#	c #908669",
"$	c #736B54",
"%	c #CAC3AA",
"&	c #D3CDB8",
"*	c #A3A5A3",
"=	c #7A735A",
"-	c #434032",
";	c #080807",
">	c #C0B799",
",	c #B4A884",
"'	c #948B6D",
")	c #BBB191",
"!	c #C2B99C",
"~	c #998F70",
"{	c #5C5543",
"]	c #494435",
"                        ",
"                        ",
"                        ",
"    ..................  ",
"    .++++++++++++++++.  ",
"    .+++++..@++++++++.  ",
"    .++++.#$.@+++++++.  ",
"    ......%#..........  ",
"    .++++.&#.@+++++++.  ",
"    .++++.%#...*+++++.  ",
"    .++++.%#.=-;..@++.  ",
"    ......>#.,$.'$....  ",
"    .++.$.>#.,#.,#.#$.  ",
"    .++.#.>)#,,#,,,,#.  ",
"    .++.,.>!!)),,,,,$.  ",
"    ....,.,!!)!,,,,,$.  ",
"    .++.#~)!!!)!,,,,{.  ",
"    .+++.#,!!!!),,,#].  ",
"    .+++.$,)!!)!,,,#.   ",
"    ......#!!!!),,#$.   ",
"         .$,,!!!,,#{.   ",
"          .#)!!),,$.    ",
"           .,)!!,,{.    ",
"                        "};
