/* XPM */
static char *magick[] = {
/* columns rows colors chars-per-pixel */
"24 24 6 1",
"  c Gray0",
". c #65658b8b5e5e",
"X c #934ab2448dfb",
"o c #b35dc8c8afaf",
"O c #e0b2e944df83",
"+ c None",
/* pixels */
"++++++++++++++++++++++++",
"++++++++++++++++++++++++",
"++++++++++++++++++++++++",
"++++++++++++++++++++++++",
"+++++++++     ++++++++++",
"++++++++ oOOOO +++++++++",
"+++++++ OOOOOOO ++++++++",
"++++++ oOo   oOo +++++++",
"+++++++ O +++ OO +++++++",
"+++++++O ++++ Oo +++++++",
"++++++++++++ OO. +++++++",
"+++++++++++ OOX ++++++++",
"++++++++++ OOX +++++++++",
"+++++++++ XOX ++++++++++",
"+++++++++ OX +++++++++++",
"+++++++++    +++++++++++",
"++++++++++++++++++++++++",
"++++++++++  ++++++++++++",
"+++++++++ Oo +++++++++++",
"+++++++++ oX +++++++++++",
"++++++++++  ++++++++++++",
"++++++++++++++++++++++++",
"++++++++++++++++++++++++",
"++++++++++++++++++++++++"
};
