/* XPM */
static char *magick[] = {
/* columns rows colors chars-per-pixel */
"24 24 25 1",
"  c gray0",
". c gray13",
"X c #4e5745",
"o c #5c6751",
"O c #636e57",
"+ c #707d63",
"@ c #7c8b6e",
"# c #879776",
"$ c #9e967d",
"% c #b79382",
"& c #a2b58f",
"* c #acc098",
"= c #b5c4a6",
"- c #d2ac99",
"; c #dbb4a4",
": c #c49f8d",
"> c #c7d4ba",
", c #e3c5ba",
"< c #cfdac4",
"1 c #dde5d5",
"2 c #e4e9dd",
"3 c None",
"4 c #faf7f5",
"5 c #ebeae2",
"6 c #ebd7cf",
/* pixels */
"333333333333333333333333",
"333333333333333333333333",
"333333333333333333333333",
"333333333333333333333333",
"333333333333333333333333",
"333333333333333333333333",
"3333333333333...33333333",
"33333333333..6,;..333333",
"33333333333.645,-.333333",
"3333333       6;--.33333",
"3333333 #<11& ;;;%.33333",
"33333333 +=*O ;;-$.33333",
"333333  2>*OO ;-:.333333",
"3333  2<>*#Xo %%..333333",
"333 5<>**#O X ..33333333",
"3333 5***O 3  3333333333",
"33333 1*@X 3333333333333",
"333333 =O 33333333333333",
"3333333 o 33333333333333",
"33333333 333333333333333",
"333333333333333333333333",
"333333333333333333333333",
"333333333333333333333333",
"333333333333333333333333"
};
