/* XPM */
static char * tb_jump_to_xpm[] = {
"24 24 41 1",
" 	c None",
".	c #212121",
"+	c #EAD4CB",
"@	c #E3C5BA",
"#	c #DBB4A4",
"$	c #EEDED7",
"%	c #FAF7F5",
"&	c #F2E5E1",
"*	c #D2AC99",
"=	c #000000",
"-	c #8D9E7C",
";	c #CDD9C2",
">	c #DEE6D7",
",	c #DAE2D1",
"'	c #9BAD89",
")	c #B79382",
"!	c #707D63",
"~	c #B4C6A2",
"{	c #ACC098",
"]	c #636E57",
"^	c #AB8A7A",
"/	c #E4E9DD",
"(	c #657158",
"_	c #C49F8D",
":	c #C3D1B5",
"<	c #808F70",
"[	c #4C5442",
"}	c #58634E",
"|	c #E6EBE0",
"1	c #D4DDC9",
"2	c #CAD7BE",
"3	c #90A17F",
"4	c #5F6A53",
"5	c #535C49",
"6	c #E9EDE4",
"7	c #616D56",
"8	c #A8BC95",
"9	c #7C8B6E",
"0	c #4C5443",
"a	c #B6C2AA",
"b	c #5E6953",
"                        ",
"                        ",
"                        ",
"                        ",
"                        ",
"                        ",
"             ...        ",
"           ..+@#..      ",
"           .$%&@*.      ",
"       =======+#**.     ",
"       =-;>,'=###).     ",
"        =!~{]=##*^.     ",
"      ==/;{(]=#*_.      ",
"    ==/;:{<[}=))..      ",
"   =|12{{34=5=..        ",
"    =6{{{7= ==          ",
"     =>890=             ",
"      =a]=              ",
"       =b=              ",
"        =               ",
"                        ",
"                        ",
"                        ",
"                        "};
