/* XPM */
static char *magick[] = {
/* columns rows colors chars-per-pixel */
"24 24 9 1",
"  c #011b011b011b",
". c #5e0868be52d3",
"X c #7c7c8b8b6e6e",
"o c #8d4d97577838",
"O c #ae51c17b9b26",
"+ c #cedcabd6996e",
"@ c #d305cecebaba",
"# c #e38de39ed709",
"$ c None",
/* pixels */
"$$$$$$$$$$$$$$$$$$$$$$$$",
"$$$$$$$$$$$$$$$$$$$$$$$$",
"$$$$$$$$$$$$$$$$$$$$$$$$",
"$$$$$$$$$$$$$$$$$$$$$$$$",
"$$$$$$$$$$$$$$$$$$$$$$$$",
"$$$$$$$$$$$$$$$$$$$$$$$$",
"$$$$$$$$$$$$$   $$$$$$$$",
"$$$$$$$$$$$  #@+  $$$$$$",
"$$$$$$$$$$$ ###@+ $$$$$$",
"$$$$$$$       #+++ $$$$$",
"$$$$$$$ o@##O ++++ $$$$$",
"$$$$$$$$ .OO. +++o $$$$$",
"$$$$$$  #@O.. +++ $$$$$$",
"$$$$  #@@Oo.. ++  $$$$$$",
"$$$ #@@OOo. .   $$$$$$$$",
"$$$$ #OOO. $  $$$$$$$$$$",
"$$$$$ #OX. $$$$$$$$$$$$$",
"$$$$$$ O. $$$$$$$$$$$$$$",
"$$$$$$$ . $$$$$$$$$$$$$$",
"$$$$$$$$ $$$$$$$$$$$$$$$",
"$$$$$$$$$$$$$$$$$$$$$$$$",
"$$$$$$$$$$$$$$$$$$$$$$$$",
"$$$$$$$$$$$$$$$$$$$$$$$$",
"$$$$$$$$$$$$$$$$$$$$$$$$"
};
