/* XPM */
static char * copy2_xpm[] = {
"24 24 6 1",
" 	c None",
".	c #FFFFFF",
"+	c #000100",
"@	c #6B6B66",
"#	c #BBBDBA",
"$	c #504D46",
"                        ",
" +++++++++++++          ",
" +#..........#+         ",
" +............+         ",
" +.#@@@.#@.@#.+         ",
" +............+         ",
" +.@$.@@#.++++++++++++  ",
" +.......+#..........#+ ",
" +.#@@.@@+............+ ",
" +.......+.#@@#.#@.@#.+ ",
" +.@$$.@@+............+ ",
" +.......+.@@.@@#.#@..+ ",
" +.#@@.@@+............+ ",
" +.......+.#@@.@@#.#@.+ ",
" +#......+............+ ",
"  ++++++++.@@@.@@#.#@.+ ",
"         +............+ ",
"         +.#@@.@@#.#@.+ ",
"         +............+ ",
"         +#..........#+ ",
"         ++++++++++++++ ",
"                        ",
"                        ",
"                        "};
