/* XPM */
static char *magick[] = {
/* columns rows colors chars-per-pixel */
"24 24 25 1",
"  c gray0",
". c #121b12",
"X c #243221",
"o c #36582e",
"O c #375930",
"+ c #48733e",
"@ c #4e7c44",
"# c #516f4a",
"$ c #548149",
"% c #5b8851",
"& c #608c56",
"* c #67925c",
"= c #729a67",
"- c #6fa763",
"; c #7da473",
": c #80a776",
"> c #81a877",
", c #85ab7b",
"< c #b1c7ac",
"1 c #c6d7c3",
"2 c #dce6da",
"3 c #e6ece4",
"4 c #eef2ed",
"5 c #f3f6f2",
"6 c None",
/* pixels */
"666666666666666666666666",
"666666666666666666666666",
"666666666666666666666666",
"666666666666666666666666",
"666666666666666666666666",
"6666666666666666  666666",
"66666666666666  1 666666",
"666666666666  361 666666",
"6666666666  26551 666666",
"66666666  2654551 666666",
"666666 .264444441 666666",
"6666  <6422344441X666666",
"6666  O$=>;>,,,,* 666666",
"666666  #@=>;>,,* 666666",
"66666666  O@=>>,* 666666",
"6666666666  @@=>& 666666",
"666666666666  +-% 666666",
"66666666666666  o 666666",
"6666666666666666  666666",
"666666666666666666666666",
"666666666666666666666666",
"666666666666666666666666",
"666666666666666666666666",
"666666666666666666666666"
};
