/* XPM */
static char *magick[] = {
/* columns rows colors chars-per-pixel */
"24 24 9 1",
"  c Gray0",
". c #36e159032f85",
"X c #484873733e3e",
"o c #4ee879e04578",
"O c #6be296e56112",
"+ c #8383aa2a7979",
"@ c #b1b1c7c7acac",
"# c #e430ebc9e28c",
"$ c None",
/* pixels */
"$$$$$$$$$$$$$$$$$$$$$$$$",
"$$$$$$$$$$$$$$$$$$$$$$$$",
"$$$$$$$$$$$$$$$$$$$$$$$$",
"$$$$$$$$$$$$$$$$$$$$$$$$",
"$$$$$$$$$$$$$$$$$$$$$$$$",
"$$$$$$$$$$$$$$$$  $$$$$$",
"$$$$$$$$$$$$$$  @ $$$$$$",
"$$$$$$$$$$$$  #$@ $$$$$$",
"$$$$$$$$$$  #$##@ $$$$$$",
"$$$$$$$$  #$####@ $$$$$$",
"$$$$$$  #$######@ $$$$$$",
"$$$$  @$########@.$$$$$$",
"$$$$  .OO+O+++++O $$$$$$",
"$$$$$$  ooO+O+++O $$$$$$",
"$$$$$$$$  .oO+++O $$$$$$",
"$$$$$$$$$$  ooO+O $$$$$$",
"$$$$$$$$$$$$  XOO $$$$$$",
"$$$$$$$$$$$$$$  . $$$$$$",
"$$$$$$$$$$$$$$$$  $$$$$$",
"$$$$$$$$$$$$$$$$$$$$$$$$",
"$$$$$$$$$$$$$$$$$$$$$$$$",
"$$$$$$$$$$$$$$$$$$$$$$$$",
"$$$$$$$$$$$$$$$$$$$$$$$$",
"$$$$$$$$$$$$$$$$$$$$$$$$"
};
