/* XPM */
static char *magick[] = {
/* columns rows colors chars-per-pixel */
"24 24 25 1",
"  c gray0",
". c #0f0e0b",
"X c #282828",
"o c #4f4e4c",
"O c #575655",
"+ c #67645e",
"@ c #757470",
"# c #665c4e",
"$ c #8c7c69",
"% c #948874",
"& c #a8967f",
"* c #94948f",
"= c #b09c86",
"- c #b2a38f",
"; c #bbbbb7",
": c #acaba8",
"> c #c8b298",
", c #dac2a5",
"< c #d0d0cb",
"1 c #e6e5dd",
"2 c #eceae4",
"3 c #f0efea",
"4 c #f2f1ed",
"5 c None",
"6 c #f6f5f2",
/* pixels */
"555555555555555555555555",
"555555555555555555555555",
"5555555555555    5555555",
"55555555     @<3; 555555",
"555     +;24443<* 555555",
"55 O;6666444433o;: 55555",
"55 <@O16444333*+;2 55555",
"55 *<:o@<43333o;22 55555",
"555 644;*+*33o@@11: 5555",
"555 <4444<;@o*3*@;1 5555",
"555 :4433+3222221@* 5555",
"5555 333;*22122211@* 555",
"5555 332+22211111<-  555",
"5555 ;2;*21111<*   55555",
"55555 2+211<*     555555",
"55555 @*<:   55X+@ 55555",
"55555 O@  5555 +%%# 5555",
"555555  55555   %& . 555",
"555555555555555 =& 55555",
"55555555555555 %=-$ 5555",
"55555555555555 >>>> 5555",
"5555555555555 -,,,,= 555",
"5555555555555        555",
"555555555555555555555555"
};
