/* XPM */
static char *magick[] = {
/* columns rows colors chars-per-pixel */
"24 24 25 1",
"  c gray0",
". c #4f4e4c",
"X c #575655",
"o c #62615f",
"O c #626260",
"+ c #7a7976",
"@ c #75746f",
"# c #92918c",
"$ c #979692",
"% c #838381",
"& c #a3a29d",
"* c #bbbbb7",
"= c #acaba8",
"- c #cbcbc5",
"; c #d1d1cd",
": c #d9d9d6",
"> c #e8e7df",
", c #e6e4dc",
"< c #ebeae3",
"1 c #efeee8",
"2 c #e9e7e0",
"3 c #f0efea",
"4 c #f2f1ed",
"5 c None",
"6 c #f6f5f2",
/* pixels */
"555555555555555555555555",
"555555555555555555555555",
"555555555555555555555555",
"555555555555555555555555",
"555555555555555555555555",
"55555555555555    555555",
"555555555     +-4* 55555",
"5555     X*24441;$ 55555",
"555 O*6666644411.*= 5555",
"555 -+X:6664411$o*< 5555",
"555 %:=.+:64111.*<< 5555",
"5555 664*$O#11.++2>= 555",
"5555 ;4444**+.$<$@*, 555",
"5555 =4434O1<<22,,@# 555",
"55555 441*$<<222,,,@# 55",
"55555 111O<<22,,,,-&  55",
"55555 *<*$222>,-$   5555",
"555555 <o222-$   5555555",
"555555 +$-=   5555555555",
"555555 X+  5555555555555",
"5555555  555555555555555",
"555555555555555555555555",
"555555555555555555555555",
"555555555555555555555555"
};
