/* XPM */
static char *magick[] = {
/* columns rows colors chars-per-pixel */
"24 24 25 1",
"  c gray0",
". c #756020",
"X c #4f4e4c",
"o c #575655",
"O c #62615f",
"+ c #626260",
"@ c #7a7976",
"# c #8e7d45",
"$ c #ad8e30",
"% c #d8be6a",
"& c #93918d",
"* c #979692",
"= c #838381",
"- c #bbbbb7",
"; c #acaba8",
": c #cbcac6",
"> c #d1d1cd",
", c #d9d9d6",
"< c #e6e5dd",
"1 c #ebeae3",
"2 c #eeece7",
"3 c #f0efea",
"4 c #f2f1ed",
"5 c None",
"6 c #f6f5f2",
/* pixels */
"555555555555555555555555",
"555555555555555555555555",
"5555555555555    5555555",
"55555555     @:4- 555555",
"555     O-<4443>& 555555",
"55 o-6666644433X-; 55555",
"55 :@o,6644443*O-1 55555",
"55 =,;X@,44322X-11 55555",
"555 644-*+&32X@@<<; 5 55",
"555 >4444--@X*1&@-<  % 5",
"555 ;4433+3211<<<@& %# 5",
"5555 332-*2111<<<< %# 55",
"5555 322O111<<<<< %# 555",
"5555 -2-*1<1<<:* %# 5555",
"55555 1O1<<:*   %# 55555",
"55555 @*>;   5 %# 555555",
"55555 o@  555 %# 5555555",
"555555  5555 %# 55555555",
"55555555555$.  555555555",
"55555555555  55555555555",
"555555555555555555555555",
"555555555555555555555555",
"555555555555555555555555",
"555555555555555555555555"
};
