/* XPM */
static char *magick[] = {
/* columns rows colors chars-per-pixel */
"24 24 9 1",
"  c Gray0",
". c #757560602020",
"X c #6711662663d9",
"o c #8e8e7d7d4545",
"O c #adad8e8e3030",
"+ c #d8d8bebe6a6a",
"@ c #a8fba84da483",
"# c #eb79ea70e4f4",
"$ c None",
/* pixels */
"$$$$$$$$$$$$$$$$$$$$$$$$",
"$$$$$$$$$$$$$$$$$$$$$$$$",
"$$$$$$$$$$$$$    $$$$$$$",
"$$$$$$$$     X##@ $$$$$$",
"$$$     X@######@ $$$$$$",
"$$ X@##########X@@ $$$$$",
"$$ #XX########@X@# $$$$$",
"$$ @#@XX######X@## $$$$$",
"$$$ ###@@X@##XXX##@ $ $$",
"$$$ #####@@XX@#@X@#  + $",
"$$$ @####X#######X@ +o $",
"$$$$ ###@@######## +o $$",
"$$$$ ###X######## +o $$$",
"$$$$ @#@@######@ +o $$$$",
"$$$$$ #X####@   +o $$$$$",
"$$$$$ X@#@   $ +o $$$$$$",
"$$$$$ XX  $$$ +o $$$$$$$",
"$$$$$$  $$$$ +o $$$$$$$$",
"$$$$$$$$$$$O.  $$$$$$$$$",
"$$$$$$$$$$$  $$$$$$$$$$$",
"$$$$$$$$$$$$$$$$$$$$$$$$",
"$$$$$$$$$$$$$$$$$$$$$$$$",
"$$$$$$$$$$$$$$$$$$$$$$$$",
"$$$$$$$$$$$$$$$$$$$$$$$$"
};
