/* XPM */
static char *magick[] = {
/* columns rows colors chars-per-pixel */
"24 24 25 1",
"  c gray0",
". c #393937",
"X c gray14",
"o c #4e4e4a",
"O c #505050",
"+ c #7b7b78",
"@ c #646464",
"# c #828274",
"$ c #8f8f80",
"% c #959587",
"& c #a6a695",
"* c #adad9c",
"= c #b2b29f",
"- c #bcbcaa",
"; c #ceceb8",
": c #d4d4bd",
"> c #d7d7c1",
", c #dbdbc4",
"< c #dfdfc8",
"1 c #e3e3cb",
"2 c #ececd3",
"3 c #f0f0d7",
"4 c #f3f3da",
"5 c #ecece8",
"6 c None",
/* pixels */
"666666666666666666666666",
"666666666666666666666666",
"6666666666666 6666666666",
"66666666666  * 666666666",
"666666666  %,1X666666666",
"6666666  &>>,,1 66666666",
"66666  &:>>>,,1= 6666666",
"6666 +@>:>>,,112.6666666",
"6666 5.-:>>,11224 666666",
"6666 55.;:,112224& 66666",
"6666 55.$:,1222444 66666",
"6666 5O$:,112234444 6666",
"6666  %:>1122344444; 666",
"6666 +>>,11224444444> 66",
"6666 %>,111234444444# 66",
"66666 1111223444444  666",
"66666 -1122224444, 66666",
"666666O222224444# 666666",
"666666 2222344> 66666666",
"6666666 32442& 666666666",
"6666666 -44;o 6666666666",
"66666666 4& 666666666666",
"666666666  6666666666666",
"666666666666666666666666"
};
