/* XPM */
static char *magick[] = {
/* columns rows colors chars-per-pixel */
"24 24 7 1",
"  c Gray0",
". c #61b761b7600a",
"X c #828282827474",
"o c #a5d8a5d89550",
"O c #d305d305bc3c",
"+ c #ea03ea03d271",
"@ c None",
/* pixels */
"@@@@@@@@@@@@@@@@@@@@@@@@",
"@@@@@@@@@@@@@@@@@@@@@@@@",
"@@@@@@@@@@@@@ @@@@@@@@@@",
"@@@@@@@@@@@  o @@@@@@@@@",
"@@@@@@@@@  oO+ @@@@@@@@@",
"@@@@@@@  oOOOO+ @@@@@@@@",
"@@@@@  oOOOOOO+o @@@@@@@",
"@@@@ ..OOOOOO+++.@@@@@@@",
"@@@@ +.OOOOO+++++ @@@@@@",
"@@@@ ++.OOO++++++o @@@@@",
"@@@@ ++.oOO+++++++ @@@@@",
"@@@@ +.oOO+++++++++ @@@@",
"@@@@  oOO++++++++++O @@@",
"@@@@ .OOO+++++++++++O @@",
"@@@@ oOO++++++++++++X @@",
"@@@@@ +++++++++++++  @@@",
"@@@@@ O++++++++++O @@@@@",
"@@@@@@.+++++++++X @@@@@@",
"@@@@@@ +++++++O @@@@@@@@",
"@@@@@@@ +++++o @@@@@@@@@",
"@@@@@@@ O++O. @@@@@@@@@@",
"@@@@@@@@ +o @@@@@@@@@@@@",
"@@@@@@@@@  @@@@@@@@@@@@@",
"@@@@@@@@@@@@@@@@@@@@@@@@"
};
