/* XPM */
static char * mail_page_xpm[] = {
/* columns rows colors chars-per-pixel */
"24 24 5 1",
" 	c None",
".	c black",
"X	c #ea03ea03d271",
"o	c #a5d8a5d89550",
"O	c #d305d305bc3c",
/* pixels */
"                        ",
"                        ",
"   ..................   ",
"   .XXXXXXXXXXXXXXXX.   ",
"   .XXXXXXXXXXXXXXXX.   ",
"   .XoooooooooooooXX.   ",
"   .XXXXXXXXXXXXXXXX.   ",
"   .XXXXXXXXXXXXXXXX.   ",
"   .Xoooooooooo..oXX.   ",
"   .XXXXXXXXXXX..XXX.   ",
"   .XXXXXXXXXXX..XXX.   ",
"   .XooooooXXXX..XXX.   ",
"   .XXXXXXXXXXX..XXX.   ",
"   .XXXXXXXXX.O..O.X.   ",
"   .Xoooooooo.....XX.   ",
"   .XXXXXXXXXX....XX.   ",
"   .XXXXXXXXXXX..XXX.   ",
"   .XXXXXXXXXXXooXXX.   ",
"   .XXXXXXXXXXXXXXXX.   ",
"   .XXXXXXXXXXXXXXXX.   ",
"   ..................   ",
"                        ",
"                        ",
"                        "};
