/* XPM */
static char *magick[] = {
/* columns rows colors chars-per-pixel */
"24 24 25 1",
"  c gray0",
". c #272727",
"X c #2f2f2f",
"o c #3c3c3c",
"O c #414141",
"+ c gray30",
"@ c gray35",
"# c #606060",
"$ c #717171",
"% c #7c7c7c",
"& c gray56",
"* c #909090",
"= c gray62",
"- c gray64",
"; c gray67",
": c gray70",
"> c #bcbcbc",
", c #c6c6c6",
"< c #cacaca",
"1 c #d5d5d5",
"2 c gainsboro",
"3 c gray89",
"4 c gray92",
"5 c gray95",
"6 c None",
/* pixels */
"666666666666666666666666",
"666666666666666666666666",
"666666666666666666666666",
"666666666   666666666666",
"6666666  <<< 666666 6666",
"66666  <1<<, 666     666",
"666  1<%X@-,, 66     666",
"66 <<<@2;%o,, 66666 6666",
"66 <<1+;%o<<,, 666666666",
"666 1<$+-,,<,, 6  666666",
"666 <<<<,<,,,,  <& 66666",
"6666 <<<,,<, .::11 66666",
"6666 ,,<,,,, 4$:12; 6666",
"66666 ,,,,,, 2O-122 6666",
"66666 ,,,,,, @-1223: 666",
"666666 ,,,,> >122333- 66",
"666666 >>6>: *2223444 66",
"6666666 >>::  2233445- 6",
"6666666 ::  6 ;3344-  66",
"66666666  6666 34-  6666",
"66666666666666 =  666666",
"666666666666666 66666666",
"666666666666666666666666",
"666666666666666666666666"
};
