/* XPM */
static char *magick[] = {
/* columns rows colors chars-per-pixel */
"24 24 81 1",
"  c Gray0",
". c #272727",
"X c #2f2f2f",
"o c #3c3c3c",
"O c #414141",
"+ c #4c4c4c",
"@ c Gray30",
"# c #585858",
"$ c Gray35",
"% c #606060",
"& c Gray44",
"* c #727272",
"= c #7b7b7b",
"- c #7c7c7c",
"; c Gray49",
": c Gray56",
"> c #909090",
", c #9d9d9d",
"< c #9f9f9f",
"1 c Gray63",
"2 c Gray64",
"3 c #a4a4a4",
"4 c #a5a5a5",
"5 c #aaaaaa",
"6 c Gray67",
"7 c #acacac",
"8 c Gray68",
"9 c #b2b2b2",
"0 c Gray70",
"q c #b4b4b4",
"w c Gray71",
"e c #b6b6b6",
"r c Gray72",
"t c #b9b9b9",
"y c #bbbbbb",
"u c #bcbcbc",
"i c None",
"p c #bebebe",
"a c Gray75",
"s c #c0c0c0",
"d c Gray77",
"f c #c5c5c5",
"g c #c6c6c6",
"h c Gray78",
"j c #c8c8c8",
"k c Gray79",
"l c #cacaca",
"z c #cbcbcb",
"x c Gray80",
"c c #cdcdcd",
"v c #cecece",
"b c Gray81",
"n c Gray82",
"m c Gray83",
"M c #d5d5d5",
"N c Gray84",
"B c #d7d7d7",
"V c #d8d8d8",
"C c Gray85",
"Z c #dadada",
"A c Gray86",
"S c gainsboro",
"D c #dddddd",
"F c Gray87",
"G c #dfdfdf",
"H c Gray88",
"J c #e1e1e1",
"K c #e2e2e2",
"L c Gray89",
"P c #e4e4e4",
"I c Gray90",
"U c #e6e6e6",
"Y c #e7e7e7",
"T c Gray91",
"R c #e9e9e9",
"E c #eaeaea",
"W c Gray92",
"Q c Gray93",
"! c #eeeeee",
"~ c #efefef",
"^ c Gray95",
/* pixels */
"iiiiiiiiiiiiiiiiiiiiiiii",
"iiiiiiiiiiiiiiiiiiiiiiii",
"iiiiiiiiiiiiiiiiiiiiiiii",
"iiiiiiiii   iiiiiiiiiiii",
"iiiiiii  xzl iiiiii iiii",
"iiiii  cxzlk iii     iii",
"iii  vc;X#<kj ii     iii",
"ii vvv$D6=okj iiiii iiii",
"ii vvc@6-okjjh iiiiiiiii",
"iii cx*+1kjjhg i  iiiiii",
"iii xxzlkkjhhf  b: iiiii",
"iiii zlkkjjh .8wnM iiiii",
"iiii lkkjjhg R&9mV5 iiii",
"iiiii kjjhgf DO2BAG iiii",
"iiiii kjhhgd %2NZFJ9 iii",
"iiiiii jgdsu tMCDHPT1 ii",
"iiiiii apiue >VSGLYW~ ii",
"iiiiiii yr09  AGKUE!^4 i",
"iiiiiii q0  i 7JIRQ3  ii",
"iiiiiiii  iiii PT1  iiii",
"iiiiiiiiiiiiii ,  iiiiii",
"iiiiiiiiiiiiiii iiiiiiii",
"iiiiiiiiiiiiiiiiiiiiiiii",
"iiiiiiiiiiiiiiiiiiiiiiii"
};
