/* XPM */
static char *magick[] = {
/* columns rows colors chars-per-pixel */
"24 24 8 1",
"  c Gray0",
". c #9adf6c4a4e4e",
"X c #adad8e8e3030",
"o c #858585857979",
"O c #a4ffa1fc996c",
"+ c #d791c99a9b6c",
"@ c #e113e0eee0c4",
"# c None",
/* pixels */
"########################",
"########################",
"########################",
"#############  #########",
"###########  @@ ##### ##",
"#########  @@@@ #### + #",
"######   @@@@@@+ ## +. #",
"####  @@@@@@@+@@ # +. ##",
"### @@@@@.@@@@o@@ +. ###",
"### @@@@@.O@oo@@ +. ####",
"#### @@@@.@o@@@ +. #####",
"#### @@.O.@@@@ +. @ ####",
"##### @@..@@@ +. @@+ ###",
"##### @@@@@@ +. @@@+o ##",
"###### @@@@X@  +OOOOo ##",
"###### @@@@  OOOOOO+ ###",
"####### @OooO@@@@@  ####",
"####### @@@@@@@@@ ######",
"######## @@@@@@  #######",
"######## @@@@+ #########",
"######### @@  ##########",
"##########  ############",
"########################",
"########################"
};
