/* XPM */
static char *magick[] = {
/* columns rows colors chars-per-pixel */
"24 24 24 1",
"  c gray0",
". c #756020",
"X c #767670",
"o c #8e7d45",
"O c #a85555",
"+ c #aa6c6c",
"@ c #ad8e30",
"# c #858579",
"$ c #8e8e8e",
"% c #a6a699",
"& c #adb0af",
"* c #c48b8b",
"= c #dccb94",
"- c #d4c38d",
"; c #c3c3bd",
": c gray80",
"> c #c5c5c5",
", c #d9d9d8",
"< c #dacaca",
"1 c #dbe1e1",
"2 c #e9dddd",
"3 c gray90",
"4 c None",
"5 c #f4f4f4",
/* pixels */
"444444444444444444444444",
"444444444444444444444444",
"444444444444444444444444",
"4444444444444  444444444",
"44444444444  3: 44444 44",
"444444444  :333 4444 = 4",
"444444   ,33333> 44 =o 4",
"4444  :3333:3>33 4 =o 44",
"444 ,3333O3,3:$3, =o 444",
"444 ,3333O&3$$33 =o 4444",
"4444 3355O3X333 =o 44444",
"4444 ,<O*+3333 =o , 4444",
"44444 32OO333 =o :3> 444",
"44444 ,33333 -o ,3,;# 44",
"444444 3335@.  ;%%%%# 44",
"444444 ,311  %%%%%%> 444",
"4444444 3%##&,,,3,  4444",
"4444444 ,3333333: 444444",
"44444444 333333  4444444",
"44444444 ,333> 444444444",
"444444444 3,  4444444444",
"4444444444  444444444444",
"444444444444444444444444",
"444444444444444444444444"
};
