/* XPM */
static char * preferences_xpm[] = {
"24 24 8 1",
" 	c None",
".	c #000000",
"+	c #E1E0E0",
"@	c #D7C99B",
"#	c #9A6C4E",
"$	c #A4A199",
"%	c #858579",
"&	c #AD8E30",
"                        ",
"                        ",
"                        ",
"             ..         ",
"           ..++.     .  ",
"         ..++++.    .@. ",
"      ...+++++++.  .@#. ",
"    ..++++++++++. .@#.  ",
"   .++++++#++++++.@#.   ",
"   .+++++#++++++.@#.    ",
"    .++#+#+++++.@#.     ",
"    .++#$#++++.@#.+.    ",
"     .++##+++.@#.++@.   ",
"     .++++++.@#.+++@%.  ",
"      .++++&+..@$$$$%.  ",
"      .++++..$$$$$$@.   ",
"       .+$%%$+++++..    ",
"       .+++++++++.      ",
"        .++++++..       ",
"        .++++@.         ",
"         .++..          ",
"          ..            ",
"                        ",
"                        "};
