/* XPM */
static char *magick[] = {
/* columns rows colors chars-per-pixel */
"24 24 25 1",
"  c gray0",
". c gray17",
"X c #393939",
"o c #403f3f",
"O c #444443",
"+ c #4b4b4b",
"@ c #595958",
"# c #504f4c",
"$ c #666665",
"% c #787877",
"& c #888787",
"* c #989897",
"= c #a5a29e",
"- c #a7a7a7",
"; c #b6b5b5",
": c #c9c9c7",
"> c #d9d8d7",
", c #e3e2de",
"< c #ecebeb",
"1 c #e6e5e3",
"2 c #f1f0ee",
"3 c #f3f3f3",
"4 c None",
"5 c #f8f7f6",
"6 c #f0efed",
/* pixels */
"444444444444444444444444",
"444444444444444444444444",
"444444444444444444444444",
"444444444444  4444444444",
"44444444444 5:@  4444444",
"4444444444 55336:O   444",
"444444444 :532<<11,= 444",
"444444444.332<<11,: 4444",
"4444444  -326111,>@44444",
"44444  :;*%<<1,,,;  4444",
"444  :<<<1;@@&;,:o$$  44",
"44 &;<53532<6&$#$O$O. 44",
"44 ---;13<26<<<<>O.XX 44",
"44 ;;;--->1<213>+XXXO 44",
"44 $=;;;--=*>,:o.XXXX 44",
"44 $O$------*%..XXOXX 44",
"44 @@+O+$&==*%XXoXXX  44",
"444  ##@#OO+$%XX.XX 4444",
"44444   O@@$%$o.X  44444",
"44444444   +%%Xo 4444444",
"44444444444     44444444",
"444444444444444444444444",
"444444444444444444444444",
"444444444444444444444444"
};
