/* XPM */
static char *magick[] = {
/* columns rows colors chars-per-pixel */
"24 24 6 1",
"  c #043904390439",
". c #40403f3f3f3f",
"X c #5a1a5a0458f3",
"o c #a74da686a5ec",
"O c #e88de7c9e66c",
"+ c None",
/* pixels */
"++++++++++++++++++++++++",
"++++++++++++++++++++++++",
"++++++++++++++++++++++++",
"++++++++++++  ++++++++++",
"+++++++++++ OOX  +++++++",
"++++++++++ OOOOOO.   +++",
"+++++++++ OOOOOOOOOo +++",
"+++++++++.OOOOOOOOO ++++",
"+++++++  oOOOOOOOOX+++++",
"+++++  OooXOOOOOOo  ++++",
"+++  OOOOOoXXooOO.XX  ++",
"++ ooOOOOOOOOoXXX.X.. ++",
"++ ooooOOOOOOOOOO.... ++",
"++ ooooooOOOOOOO..... ++",
"++ XooooooooOOO...... ++",
"++ X.XoooooooX....... ++",
"++ XX...XooooX......  ++",
"+++  XXXX...XX..... ++++",
"+++++   .XXXXX...  +++++",
"++++++++   .XX.. +++++++",
"+++++++++++     ++++++++",
"++++++++++++++++++++++++",
"++++++++++++++++++++++++",
"++++++++++++++++++++++++"
};
