/* XPM */
static char * refile_xpm[] = {
/* columns rows colors chars-per-pixel */
"24 24 7 1",
" 	c None",
".	c black",
"X	c #a5d8a5d89550",
"o	c #d305d305bc3c",
"O	c #ea03ea03d271",
"+	c #828282827474",
"@	c #61b761b7600a",
/* pixels */
"             .          ",
"           ..X.         ",
"         ..XoO....      ",
"       ..XooooO.+.      ",
"     ..XooooooOX..  ..  ",
"    .@@ooooooOOO@. ...  ",
"    .O@oooooOOOOO..@@.  ",
"    .OO@oooOOOOOO..@@.  ",
"  ...OO@XooOOOOO...@@.  ",
" ..+.O@XooOOOO..@@@@@.  ",
" .++..XooOOOO..@@@@@@.  ",
" .++.@oooOO...@@@@@@@.  ",
" ..+.XooOOO..@@@@@@@.   ",
"  .++.OOOO.@@@@@@@@.    ",
"   .+.oOO..@@@@@@@.     ",
"   .++.OO.@@@@@@@.      ",
"    .++.O.@@@@@..       ",
"    ..+.O.@@@@@.        ",
"     .++..@@@@.         ",
"     ..++.@@@.          ",
"       .+.@@.           ",
"       ...@.            ",
"        ...             ",
"         .              "};
