/* XPM */
static char * mail_repack_xpm[] = {
/* columns rows colors chars-per-pixel */
"24 24 6 1",
" 	c None",
".	c black",
"X	c #a5d8a5d89550",
"o	c #d305d305bc3c",
"O	c #ea03ea03d271",
"+	c #828282827474",
/* pixels */
"                        ",
"                        ",
"       ..............   ",
"      .XXXXXXXXXXXX..   ",
"     .XXXXXXXXXXXX.X.   ",
"    .XXXXXXXXXXXX.oo.   ",
"   ..............ooo.   ",
"   .OOOOOOOOOOOO.oo.    ",
"   .O++++++++++O.oo.    ",
"   .O+XXXXXXXX+O.o.     ",
"    .+XXXXXXXX+.o..     ",
"    .+XX...XXX+....     ",
"     ....o.......oo.    ",
"     ....o.....Oooo.    ",
"    .OOO...OOOO.oooo.   ",
"    .++++++++++.oooo.   ",
"    .+XXXXXXXX+.oooo.   ",
"   .O+XXXXXXXX+O.ooX.   ",
"   .O+XXXXXXXX+O.oo..   ",
"   .O++++++++++O.o..    ",
"  ..OOOOOOOOOOOO...     ",
"  ................      ",
"                        ",
"                        "};
