/* XPM */
static char * mail_rescan_xpm[] = {
/* columns rows colors chars-per-pixel */
"24 24 6 1",
" 	c None",
".	c black",
"X	c #a5d8a5d89550",
"o	c #d305d305bc3c",
"O	c #ea03ea03d271",
"+	c #828282827474",
/* pixels */
"                        ",
"                        ",
"       ..............   ",
"      .XXXXXXXXXXXX..   ",
"     .XXXXXXXXXXXX.X.   ",
"    .XXXXXXXXXXXX.oo.   ",
"   ..............ooo.   ",
"   .OOOOOOOOOOOO.ooo.   ",
"   .O++++++++++O.ooo.   ",
"   .O+XXXXXXXX+O.ooo.   ",
"   .O+XXXXXXXX+O.ooo.   ",
"   .O+XXXXXXXX+O.ooo.   ",
"   .O+XXXXXXXX+O.ooo.   ",
"   .O++++++++++O.ooo.   ",
"   .OOOOOOOOOOOO.ooo.   ",
"   .O++++++++++O.ooo.   ",
"   .O+XXXXXXXX+O.ooo.   ",
"   .O+XXXXXXXX+O.ooX.   ",
"   .O+XXXXXXXX+O.oo..   ",
"   .O++++++++++O.o..    ",
"  ..OOOOOOOOOOOO...     ",
"  ................      ",
"                        ",
"                        "};
