/* XPM */
static char *magick[] = {
/* columns rows colors chars-per-pixel */
"24 24 9 1",
"  c Gray0",
". c #3a3a5d1d3171",
"X c #4eb572d945ac",
"o c #7131975767e8",
"O c #8484a9a97a7a",
"+ c #9494b5b589df",
"@ c #b1b1c7c7acac",
"# c #e84eee98e67f",
"$ c None",
/* pixels */
"$$$$$$$$$$$$$$$$$$$$$$$$",
"$$$$$$$$$$$$$$$$$$$$$$$$",
"$$$$$$$$$$$$$$$$$$$$$$$$",
"$$$$$$$$$$$$$$$$$$$$$$$$",
"$$$$$$$$$$$$$$$$$$$$$$$$",
"$$$$$$  $$$$$$$$$$$$$$$$",
"$$$$$$ #  $$$$$$$$$$$$$$",
"$$$$$$ $##  $$$$$$$$$$$$",
"$$$$$$ $###@  $$$$$$$$$$",
"$$$$$$ $#####@  $$$$$$$$",
"$$$$$$ $#######@  $$$$$$",
"$$$$$$.$#########@  $$$$",
"$$$$$$ ++OOOOoOoo.  $$$$",
"$$$$$$ +OOOOOoX.  $$$$$$",
"$$$$$$ ++OOoXX  $$$$$$$$",
"$$$$$$ +ooX.  $$$$$$$$$$",
"$$$$$$ Oo.  $$$$$$$$$$$$",
"$$$$$$ .  $$$$$$$$$$$$$$",
"$$$$$$  $$$$$$$$$$$$$$$$",
"$$$$$$$$$$$$$$$$$$$$$$$$",
"$$$$$$$$$$$$$$$$$$$$$$$$",
"$$$$$$$$$$$$$$$$$$$$$$$$",
"$$$$$$$$$$$$$$$$$$$$$$$$",
"$$$$$$$$$$$$$$$$$$$$$$$$"
};
