/* XPM */
static char *magick[] = {
/* columns rows colors chars-per-pixel */
"24 24 25 1",
"  c gray0",
". c #181818",
"X c gray17",
"o c #3b5c33",
"O c #37592f",
"+ c #3f6534",
"@ c #445840",
"# c #4b7040",
"$ c #537c49",
"% c #5b8352",
"& c #759a6b",
"* c #7ea476",
"= c #84a97a",
"- c #88ac80",
"; c #97b88c",
": c #9dbb90",
"> c #b1c7ac",
", c #cbdac8",
"< c #dae4d8",
"1 c #e1eadf",
"2 c #eef2ec",
"3 c #f0f4ef",
"4 c None",
"5 c #f2f6f2",
"6 c #e5ece3",
/* pixels */
"444444444444444444444444",
"444444444444444444444444",
"444444444444444444444444",
"444444444444444444444444",
"444444444444444444444444",
"444444  4444444444444444",
"444444 1  44444444444444",
"444444 42<  444444444444",
"444444 4522,  4444444444",
"444444 453225,  44444444",
"444444 42522262,. 444444",
"444444X422226<<<2>  4444",
"444444 :-====*=&%O  4444",
"444444 :=====&$@  444444",
"444444 ;-==&$#  44444444",
"444444 ;*&$o  4444444444",
"444444 =%O  444444444444",
"444444 +  44444444444444",
"444444  4444444444444444",
"444444444444444444444444",
"444444444444444444444444",
"444444444444444444444444",
"444444444444444444444444",
"444444444444444444444444"
};
