/* XPM */
static char *magick[] = {
/* columns rows colors chars-per-pixel */
"24 24 25 1",
"  c gray0",
". c #3e4d50",
"X c #37474a",
"o c #49575a",
"O c #465e63",
"+ c #536e75",
"@ c #50696f",
"# c #62787c",
"$ c #606364",
"% c #779fa8",
"& c #7ea4ac",
"* c #758d92",
"= c #8c9596",
"- c #8daeb5",
"; c #aab0b2",
": c #a0bcc1",
"> c #aac2c6",
", c #bfd1d5",
"< c #bcc2c3",
"1 c #d7d9d9",
"2 c #ccd5d7",
"3 c #e3e8e9",
"4 c None",
"5 c #f2f4f5",
"6 c #eaf1f2",
/* pixels */
"444444444444444444444444",
"444444444444444444444444",
"444444444444444444444444",
"44444444444444  44444444",
"444444444444  %o 4444444",
"4444444444  ,>3% 4444444",
"44444444  ,>,45%o 444444",
"444444  ,>,44443% 444444",
"4444  ->,4444445-. 44444",
"444 ->24444444443% 44444",
"444 *-64444444446%O 4444",
"4444 >3444444453%%% 4444",
"4444 #-6444453%%++%O 444",
"44444 :34463%%Oo+%+% 444",
"44444 #-33%%o;33$%+%o 44",
"444444 -%%@25533;O%OX 44",
"444444 *-%<5@1311=%.  44",
"4444444 -%+5X-11;#  4444",
"4444444 +%%23;1=o 444444",
"44444444 O%+1=  44444444",
"444444444     4444444444",
"444444444444444444444444",
"444444444444444444444444",
"444444444444444444444444"
};
