/* XPM */
static char *magick[] = {
/* columns rows colors chars-per-pixel */
"24 24 57 1",
"  c Gray0",
". c #060606",
"X c Gray14",
"o c #272727",
"O c Gray17",
"+ c #373737",
"@ c Gray22",
"# c Gray23",
"$ c #3f3f3f",
"% c #484848",
"& c Gray29",
"* c #4e4e4e",
"= c Gray32",
"- c Gray34",
"; c Gray37",
": c #5f5f5f",
"> c #777777",
", c #7b7b7b",
"< c #7c7c7c",
"1 c #868686",
"2 c #898989",
"3 c #8d8d8d",
"4 c #909090",
"5 c #939393",
"6 c #959595",
"7 c Gray62",
"8 c Gray67",
"9 c Gray69",
"0 c #b1b1b1",
"q c Gray70",
"w c Gray72",
"e c #bcbcbc",
"r c None",
"t c #bebebe",
"y c #c3c3c3",
"u c #c6c6c6",
"i c #d0d0d0",
"p c #d3d3d3",
"a c #dadada",
"s c Gray86",
"d c gainsboro",
"f c Gray87",
"g c #dfdfdf",
"h c #e2e2e2",
"j c Gray89",
"k c Gray90",
"l c #e6e6e6",
"z c #e9e9e9",
"x c #eaeaea",
"c c #ececec",
"v c Gray93",
"b c #efefef",
"n c #f1f1f1",
"m c Gray95",
"M c #f3f3f3",
"N c #f4f4f4",
"B c #f9f9f9",
/* pixels */
"rrrrrrrrrrrrrrrrrrrrrrrr",
"rrrrrrrrrrrrrrrrrrrrrrrr",
"rrrrrrrrrrrrrrrrrrr rrrr",
"rrrrrrrrrrrrrrrrrr e rrr",
"rrrrrrrrrrrrr  rr e< rrr",
"rrrrrrrrrrr  3@  e< rrrr",
"rrrrrrrrr  ptv3 e< rrrrr",
"rrrrrrr  ptpBm e< rrrrrr",
"rrrrr  ptpBBB e< rrrrrrr",
"rrr  7ypBBBB e< O rrrrrr",
"rr 8yfBB5BB e< v3 rrrrrr",
"rr >8nB5BB e< Bb3@ rrrrr",
"rrr txB5B0:  hx333 rrrrr",
"rrr ;7nB5. Mx33**3@ rrrr",
"rrrr wxB5Mx33#+=3*3 rrrr",
"rrrr ;7bx33#8vz%3*3@ rrr",
"rrrrr 833*immxlq$3#X rrr",
"rrrrr ,73uN&dzjg23O  rrr",
"rrrrrr 83*mo6gkw-  rrrrr",
"rrrrrr =33ac9s1O rrrrrrr",
"rrrrrrr $3*h4  rrrrrrrrr",
"rrrrrrrr     rrrrrrrrrrr",
"rrrrrrrrrrrrrrrrrrrrrrrr",
"rrrrrrrrrrrrrrrrrrrrrrrr"
};
