/* XPM */
static char *magick[] = {
/* columns rows colors chars-per-pixel */
"24 24 9 1",
"  c Gray0",
". c #3abb4a4a4d4d",
"X c #500165be6ab9",
"o c #77569e75a73b",
"O c #9439aab9af82",
"+ c #a0a0bcbcc1c1",
"@ c #b5c9c9b5cd7e",
"# c #e3c1e81de903",
"$ c None",
/* pixels */
"$$$$$$$$$$$$$$$$$$$$$$$$",
"$$$$$$$$$$$$$$$$$$$$$$$$",
"$$$$$$$$$$$$$$$$$$$$$$$$",
"$$$$$$$$$$$$$$  $$$$$$$$",
"$$$$$$$$$$$$  oX $$$$$$$",
"$$$$$$$$$$  @+#o $$$$$$$",
"$$$$$$$$  @+@$#oX $$$$$$",
"$$$$$$  @+@$$$$#o $$$$$$",
"$$$$  O+@$$$$$$#O. $$$$$",
"$$$ O+@$$$$$$$$$#o $$$$$",
"$$$ oO#$$$$$$$$$#oX $$$$",
"$$$$ +#$$$$$$$##ooo $$$$",
"$$$$ XO#$$$$##ooXXoX $$$",
"$$$$$ +#$$##ooXXXoXo $$$",
"$$$$$ XO##ooX+##XoXoX $$",
"$$$$$$ OooX@####+XoX. $$",
"$$$$$$ oOo@#X####Oo.  $$",
"$$$$$$$ OoX#.O##+X  $$$$",
"$$$$$$$ Xoo@#+#OX $$$$$$",
"$$$$$$$$ XoX#O  $$$$$$$$",
"$$$$$$$$$     $$$$$$$$$$",
"$$$$$$$$$$$$$$$$$$$$$$$$",
"$$$$$$$$$$$$$$$$$$$$$$$$",
"$$$$$$$$$$$$$$$$$$$$$$$$"
};
