/* XPM */
static char * tb_save_xpm[] = {
"24 24 64 1",
" 	c None",
".	c #000000",
"+	c #779FA8",
"@	c #495A5E",
"#	c #BFD1D5",
"$	c #A8C1C5",
"%	c #E4ECED",
"&	c #FFFFFF",
"*	c #EEF3F4",
"=	c #E0E9EB",
"-	c #87AAB2",
";	c #AEC4C9",
">	c #F5F8F9",
",	c #8BADB5",
"'	c #3E4D50",
")	c #94B2B9",
"!	c #CFDCDF",
"~	c #E4ECEE",
"{	c #788A8D",
"]	c #EBF1F2",
"^	c #E8EFF0",
"/	c #F2F6F7",
"(	c #607A7F",
"_	c #F0F4F5",
":	c #536E75",
"<	c #A0BCC1",
"[	c #465E63",
"}	c #4B575A",
"|	c #557278",
"1	c #A4ABAD",
"2	c #EAEAEA",
"3	c #E4E4E4",
"4	c #606364",
"5	c #C6CACC",
"6	c #F3F3F3",
"7	c #F1F1F1",
"8	c #E7E7E7",
"9	c #E1E1E1",
"0	c #A9B2B4",
"a	c #486166",
"b	c #34464A",
"c	c #729096",
"d	c #BCC2C3",
"e	c #F6F6F6",
"f	c #57696D",
"g	c #CFD8DA",
"h	c #DEDEDE",
"i	c #D8D8D8",
"j	c #8C9394",
"k	c #F2F2F2",
"l	c #3A474A",
"m	c #7EA4AC",
"n	c #D5DADA",
"o	c #E0E0E0",
"p	c #B4B4B4",
"q	c #657376",
"r	c #D0D5D6",
"s	c #E9E9E9",
"t	c #A7B0B2",
"u	c #D2D4D5",
"v	c #899293",
"w	c #484848",
"x	c #DDDDDD",
"y	c #8F9A9B",
"                        ",
"                        ",
"                        ",
"              ..        ",
"            ..+@.       ",
"          ..#$%+.       ",
"        ..#$#&*+@.      ",
"      ..#$#&&&&=+.      ",
"    ..-;#&&&&&&>,'.     ",
"   .);!&&&&&&&&&~+.     ",
"   .{)]&&&&&&&&&^+@.    ",
"    .$=&&&&&&&/=+++.    ",
"    .(-]&&&&_=++::+@.   ",
"     .<=&&_=++[}|+:+.   ",
"     .(-^=++[1234+:+@.  ",
"      .)++:567890a+[b.  ",
"      .c-+defg3hij+'..  ",
"       .)+:klmnopq..    ",
"       .|++rstuvw.      ",
"        .a+:xy..        ",
"         .....          ",
"                        ",
"                        ",
"                        "};
