/* XPM */
static char *magick[] = {
/* columns rows colors chars-per-pixel */
"24 24 5 1",
"  c #01be01be01be",
". c #62dd62dd62dd",
"X c Gray62",
"o c #e625e625e625",
"O c None",
/* pixels */
"OOOOOOOOOOOOOOOOOOOOOOOO",
"OOOOOOOOOOOOOOOOOOOOOOOO",
"OOOOOOOOOOOOOOOOOOO OOOO",
"OOOOOOOOOOOOOOOOOO X OOO",
"OOOOOOOOOOOOO  OO X. OOO",
"OOOOOOOOOOO  X.  X. OOOO",
"OOOOOOOOO  oXoX X. OOOOO",
"OOOOOOO  oXoOo X. OOOOOO",
"OOOOO  oXoOoO X. OOOOOOO",
"OOO  XooOOoO X.   OOOOOO",
"OO XooOoXoO X. oX OOOOOO",
"OO .XooXoO X. OoX. OOOOO",
"OOO XooXOX.  ooXXX OOOOO",
"OOO .XoOX  ooXX..X. OOOO",
"OOOO XoOXooXX...X.X OOOO",
"OOOO .XooXX.Xoo.X.X. OOO",
"OOOOO XXX.oooooX.X.  OOO",
"OOOOO .XXoo.ooooXX   OOO",
"OOOOOO XX.o XooX.  OOOOO",
"OOOOOO .XXooXoX  OOOOOOO",
"OOOOOOO .X.oX  OOOOOOOOO",
"OOOOOOOO     OOOOOOOOOOO",
"OOOOOOOOOOOOOOOOOOOOOOOO",
"OOOOOOOOOOOOOOOOOOOOOOOO"
};
