/* XPM */
static char *magick[] = {
/* columns rows colors chars-per-pixel */
"24 24 24 1",
"  c gray0",
". c gray15",
"X c gray17",
"o c #373737",
"O c gray23",
"+ c gray30",
"@ c gray33",
"# c gray37",
"$ c #777777",
"% c #7c7c7c",
"& c #868686",
"* c #8d8d8d",
"= c #939393",
"- c gray62",
"; c gray67",
": c #b1b1b1",
"> c #bcbcbc",
", c gray77",
"< c #d3d3d3",
"1 c #dddddd",
"2 c #e4e4e4",
"3 c gray92",
"4 c gray95",
"5 c None",
/* pixels */
"555555555555555555555555",
"555555555555555555555555",
"5555555555555555555 5555",
"555555555555555555 > 555",
"5555555555555  55 >% 555",
"55555555555  *o  >% 5555",
"555555555  <>3* >% 55555",
"5555555  <><54 >% 555555",
"55555  <><545 >% 5555555",
"555  -,<5545 >% . 555555",
"55 ;,154=45 >% 3* 555555",
"55 $;44=45 >% 53*o 55555",
"555 >34=5:#  23*** 55555",
"555 #-45=  43**++*o 5555",
"5555 >35=43**oo@*+* 5555",
"5555 #-33**o;32+*+*o 555",
"55555 ;**+<4432>O*O. 555",
"55555 %-*,4+1321**.  555",
"555555 ;*+4.=12>@  55555",
"555555 @**13;1&X 5555555",
"5555555 O*+2=  555555555",
"55555555     55555555555",
"555555555555555555555555",
"555555555555555555555555"
};
