/* XPM */
static char *magick[] = {
/* columns rows colors chars-per-pixel */
"24 24 5 1",
"  c #01be01be01be",
". c #62dd62dd62dd",
"X c Gray62",
"o c #e625e625e625",
"O c None",
/* pixels */
"OOOOOOOOOOOOOOOOOOOOOOOO",
"OOOOOOOOOOOOOOOOOOOOOOOO",
"OOOOOOOOOOOOOOOOOOOOOOOO",
"OOOOOOOOOOOOOOOOOOOOOOOO",
"OOOOOOOOOOOOO  OOOOOOOOO",
"OOOOOOOOOOO  X. OOOOOOOO",
"OOOOOOOOO  oXoX OOOOOOOO",
"OOOOOOO  oXoooXX OOOOOOO",
"OOOOO  oXoooooo. OOOOOOO",
"OOO  XoooooooooX  OOOOOO",
"OO XooooooooooooX OOOOOO",
"OO .XoooooooooooX. OOOOO",
"OOO XooooooooooXXX OOOOO",
"OOO .XoooooooXX..X. OOOO",
"OOOO XoooooXX...X.X OOOO",
"OOOO .XooXX.Xoo.X.X. OOO",
"OOOOO XXX.oooooX.X.  OOO",
"OOOOO .XXoo.ooooXX   OOO",
"OOOOOO XX.o XooX.  OOOOO",
"OOOOOO .XXooXoX  OOOOOOO",
"OOOOOOO .X.oX  OOOOOOOOO",
"OOOOOOOO     OOOOOOOOOOO",
"OOOOOOOOOOOOOOOOOOOOOOOO",
"OOOOOOOOOOOOOOOOOOOOOOOO"
};
