/* XPM */
static char *magick[] = {
/* columns rows colors chars-per-pixel */
"24 24 25 1",
"  c gray0",
". c #090908",
"X c #373733",
"o c #46463e",
"O c #756020",
"+ c #4a4a44",
"@ c #505050",
"# c #72726d",
"$ c #8e7d45",
"% c #878779",
"& c #d5bc6b",
"* c #979788",
"= c #8f8f80",
"- c #a9a997",
"; c #babaa7",
": c #c2c2ae",
"> c #d4d4bd",
", c #cdcdb7",
"< c #dadac3",
"1 c #ddddd0",
"2 c #e3e3cb",
"3 c #ebebd3",
"4 c #f3f3da",
"5 c #ecece8",
"6 c None",
/* pixels */
"666666666666666666666666",
"6666666666666666  666666",
"666666666666666 &$ 66666",
"66666666666 66 &$ 666666",
"666666666  -  &$ 6666666",
"6666666  *22 &$ 66666666",
"66666  -<<< &$ 666666666",
"666  -><>< &$  666666666",
"66.##>>>>&O  3X666666666",
"66 5X;><<  2333 66666666",
"66 55X>><<23334- 6666666",
"66 55X%>;+..+;44 6666666",
"66 5@=>-X*>:=X:44 666666",
"66  *><o*25:;#+44; 66666",
"66 #><<.>6:;-*.444< 6666",
"66 *<<2.,1;-*%.444% 6666",
"666 <22+=;-*=#+44  66666",
"666 :22;X%-=#  < 6666666",
"6666@233;+..o#  66666666",
"6666 3333434<    6666666",
"66666 34443- 66   666666",
"66666 ;44,+ 6666   66666",
"666666 4- 6666666  66666",
"6666666  666666666666666"
};
