/* XPM */
static char *magick[] = {
/* columns rows colors chars-per-pixel */
"24 24 25 1",
"  c gray0",
". c #090908",
"X c #33332e",
"o c #353533",
"O c #46463e",
"+ c #4a4a44",
"@ c #505050",
"# c #72726d",
"$ c #878779",
"% c #979788",
"& c #8f8f80",
"* c #a7a796",
"= c #b1b19e",
"- c #babaa7",
"; c #c2c2ae",
": c #cdcdb7",
"> c #d4d4bd",
", c #dbdbc4",
"< c #ddddd0",
"1 c #e3e3cb",
"2 c #ebebd3",
"3 c #e2e2d0",
"4 c #f3f3da",
"5 c #ecece8",
"6 c None",
/* pixels */
"666666666666666666666666",
"666666666666666666666666",
"6666666666666 6666666666",
"66666666666  = 666666666",
"666666666  &,,X666666666",
"6666666  *,,,,, 66666666",
"66666  *>,,,,,1- 6666666",
"6666 ##,>>,,,113o6666666",
"6666 5o->,,,11222 666666",
"6666 55O:>,112224* 66666",
"6666 55o$>=O..+;44 66666",
"6666 5@&>=X%>;$X;44.6666",
"6666  %>,O%15;=$+44; 666",
"6666 #,,,.>6;-*&.444, 66",
"6666 %,,1.:1-*%$.444$ 66",
"66666 ,11O$-=*$#+44  666",
"66666 -11-X$*&#  , 66666",
"666666@222-+..+#  666666",
"666666 2222444>    66666",
"6666666 24442* 66   6666",
"6666666 -44:+ 6666   666",
"66666666 4* 6666666  666",
"666666666  6666666666666",
"666666666666666666666666"
};
