/* XPM */
static char * tb_search_replace_xpm[] = {
"24 24 126 2",
"  	c None",
". 	c #000000",
"+ 	c #D8BE6A",
"@ 	c #8E7D45",
"# 	c #ADAD9C",
"$ 	c #959585",
"% 	c #DCDCC5",
"& 	c #DFDFC8",
"* 	c #A7A796",
"= 	c #D7D7C1",
"- 	c #D9D9C3",
"; 	c #DCDCC4",
"> 	c #A6A694",
", 	c #D6D6BF",
"' 	c #D8D8C2",
") 	c #7C7C7C",
"! 	c #646464",
"~ 	c #D5D5BD",
"{ 	c #D5D5BF",
"] 	c #D7D7C0",
"^ 	c #C6B273",
"/ 	c #756020",
"( 	c #E9E9D1",
"_ 	c #343434",
": 	c #E7E7E7",
"< 	c #373736",
"[ 	c #B8B8A6",
"} 	c #D3D3BC",
"| 	c #D9D9C2",
"1 	c #060605",
"2 	c #E5E5CD",
"3 	c #E8E8D0",
"4 	c #ECECD4",
"5 	c #EEEED5",
"6 	c #ECECEC",
"7 	c #EDEDED",
"8 	c #3D3D37",
"9 	c #CECEB7",
"0 	c #DBDBC4",
"a 	c #E0E0C8",
"b 	c #E6E6CE",
"c 	c #EAEAD2",
"d 	c #F1F1D8",
"e 	c #A5A594",
"f 	c #EEEEE5",
"g 	c #3C3C3C",
"h 	c #8F8F80",
"i 	c #D0D0B9",
"j 	c #B4B4A0",
"k 	c #46463E",
"l 	c #090908",
"m 	c #4A4A42",
"n 	c #C1C1AD",
"o 	c #F2F2D9",
"p 	c #F3F3DA",
"q 	c #EEEEE6",
"r 	c #505050",
"s 	c #929282",
"t 	c #D1D1B9",
"u 	c #B0B09D",
"v 	c #33332D",
"w 	c #9D9D8D",
"x 	c #CFCFB9",
"y 	c #C4C4AF",
"z 	c #8D8D7F",
"A 	c #34342F",
"B 	c #C3C3AF",
"C 	c #F4F4DB",
"D 	c #F5F5DC",
"E 	c #969686",
"F 	c #D2D2BC",
"G 	c #45453E",
"H 	c #9C9C8C",
"I 	c #E2E2D0",
"J 	c #EDEDE5",
"K 	c #C0C0AC",
"L 	c #B2B29F",
"M 	c #828274",
"N 	c #4B4B43",
"O 	c #BEBEAB",
"P 	c #797973",
"Q 	c #D8D8C1",
"R 	c #DDDDC6",
"S 	c #080807",
"T 	c #FBFBFA",
"U 	c #C3C3AE",
"V 	c #B5B5A2",
"W 	c #A6A695",
"X 	c #959586",
"Y 	c #98988F",
"Z 	c #080808",
"` 	c #CACAB5",
" .	c #DDDDD0",
"..	c #B7B7A4",
"+.	c #AAAA98",
"@.	c #9B9B8B",
"#.	c #8C8C7D",
"$.	c #818174",
"%.	c #DFDFC7",
"&.	c #E2E2CA",
"*.	c #46463F",
"=.	c #929283",
"-.	c #BABAA7",
";.	c #ADAD9B",
">.	c #9F9F8E",
",.	c #909081",
"'.	c #727266",
").	c #4B4B44",
"!.	c #BEBEAE",
"~.	c #33332E",
"{.	c #878779",
"].	c #A0A090",
"^.	c #737367",
"/.	c #DADAC3",
"(.	c #4E4E4E",
"_.	c #BEBEAA",
":.	c #404040",
"<.	c #6F6F6F",
"[.	c #EBEBD3",
"}.	c #EDEDD4",
"|.	c #EFEFD6",
"1.	c #F0F0D7",
"2.	c #BBBBA8",
"3.	c #CDCDB8",
"4.	c #4D4D45",
"5.	c #A6A696",
"                                                ",
"                                . .             ",
"                              . + @ .           ",
"                      .     . + @ .             ",
"                  . . # . . + @ .               ",
"              . . $ % & . + @ .                 ",
"          . . * = - ; . + @ .                   ",
"      . . > , = = ' . + @ . .                   ",
"    . ) ! , ~ { ] ^ / . . ( _                   ",
"    . : < [ } = | 1 . 2 3 4 5 .                 ",
"    . 6 7 8 9 { 0 a b 3 c 5 d e .               ",
"    . f f g h i j k l l m n o p .               ",
"    . q r s t u v w x y z A B C D .             ",
"    . . E F 0 G H I J K L M N D D O .           ",
"    . P Q | R S { T U V W X l D D D ' .         ",
"    . Y 0 % & Z `  ...+.@.#.l D D D $..         ",
"      . %.a &.*.=.-.;.>.,.'.).D D . .           ",
"      . !.2 2 -.~.{.].=.^.. . /..               ",
"        (.3 ( c _.m l l :.<.. .                 ",
"        . [.4 }.|.d o o /.. . . .               ",
"          . |.1.d o ( e .     . . .             ",
"          . 2.o p 3.4..         . . .           ",
"            . p 5..               . .           ",
"              . .                               "};
