/* XPM */
static char * tb_search_xpm[] = {
"24 24 128 2",
"  	c None",
" .	c #000000",
" +	c #ADAD9C",
" @	c #959585",
" #	c #DCDCC5",
" $	c #DFDFC8",
" %	c #242424",
" &	c #A7A796",
" *	c #D7D7C1",
" =	c #D9D9C3",
" -	c #DCDCC4",
" ;	c #DDDDC7",
" >	c #E1E1CA",
" ,	c #A6A694",
" '	c #D6D6BF",
" )	c #D8D8C2",
" !	c #DBDBC4",
" ~	c #DFDFC7",
" {	c #E3E3CB",
" ]	c #B2B29F",
" ^	c #7C7C7C",
" /	c #646464",
" (	c #D5D5BD",
" _	c #D5D5BF",
" :	c #D7D7C0",
" <	c #DADAC3",
" [	c #DEDEC6",
" }	c #E1E1C9",
" |	c #E5E5CD",
" 1	c #E9E9D1",
" 2	c #343434",
" 3	c #E7E7E7",
" 4	c #373736",
" 5	c #B8B8A6",
" 6	c #D3D3BC",
" 7	c #D9D9C2",
" 8	c #DDDDC5",
" 9	c #E0E0C8",
" 0	c #E8E8D0",
" a	c #ECECD4",
" b	c #EEEED5",
" c	c #ECECEC",
" d	c #EDEDED",
" e	c #3D3D37",
" f	c #CECEB7",
" g	c #E6E6CE",
" h	c #EAEAD2",
" i	c #F1F1D8",
" j	c #A5A594",
" k	c #EEEEE5",
" l	c #3C3C3C",
" m	c #8F8F80",
" n	c #D0D0B9",
" o	c #B4B4A0",
" p	c #46463E",
" q	c #090908",
" r	c #4A4A42",
" s	c #C1C1AD",
" t	c #F2F2D9",
" u	c #F3F3DA",
" v	c #EEEEE6",
" w	c #505050",
" x	c #929282",
" y	c #D1D1B9",
" z	c #B0B09D",
" A	c #33332D",
" B	c #9D9D8D",
" C	c #CFCFB9",
" D	c #C4C4AF",
" E	c #8D8D7F",
" F	c #34342F",
" G	c #C3C3AF",
" H	c #F4F4DB",
" I	c #F5F5DC",
" J	c #969686",
" K	c #D2D2BC",
" L	c #45453E",
" M	c #9C9C8C",
" N	c #E2E2D0",
" O	c #EDEDE5",
" P	c #C0C0AC",
" Q	c #828274",
" R	c #4B4B43",
" S	c #BEBEAB",
" T	c #797973",
" U	c #D8D8C1",
" V	c #DDDDC6",
" W	c #080807",
" X	c #FBFBFA",
" Y	c #C3C3AE",
" Z	c #B5B5A2",
" `	c #A6A695",
". 	c #959586",
"..	c #98988F",
".+	c #080808",
".@	c #CACAB5",
".#	c #DDDDD0",
".$	c #B7B7A4",
".%	c #AAAA98",
".&	c #9B9B8B",
".*	c #8C8C7D",
".=	c #818174",
".-	c #E2E2CA",
".;	c #46463F",
".>	c #929283",
".,	c #BABAA7",
".'	c #ADAD9B",
".)	c #9F9F8E",
".!	c #909081",
".~	c #727266",
".{	c #4B4B44",
".]	c #BEBEAE",
".^	c #33332E",
"./	c #878779",
".(	c #A0A090",
"._	c #737367",
".:	c #4E4E4E",
".<	c #BEBEAA",
".[	c #404040",
".}	c #6F6F6F",
".|	c #EBEBD3",
".1	c #EDEDD4",
".2	c #EFEFD6",
".3	c #F0F0D7",
".4	c #BBBBA8",
".5	c #CDCDB8",
".6	c #4D4D45",
".7	c #A6A696",
"                                                ",
"                                                ",
"                           .                    ",
"                       . . + .                  ",
"                   . . @ # $ %                  ",
"               . . & * = - ; > .                ",
"           . . , ' * * ) ! ~ { ] .              ",
"         . ^ / ' ( _ : < [ } | 1 2              ",
"         . 3 4 5 6 * 7 8 9 | 0 a b .            ",
"         . c d e f _ ! 9 g 0 h b i j .          ",
"         . k k l m n o p q q r s t u .          ",
"         . v w x y z A B C D E F G H I .        ",
"         . . J K ! L M N O P ] Q R I I S .      ",
"         . T U 7 V W _ X Y Z `.  q I I I ) .    ",
"         ... ! # $.+.@.#.$.%.&.* q I I I.= .    ",
"           . ~ 9.-.;.>.,.'.).!.~.{ I I . .      ",
"           ..] | |.,.^./.(.>._ . . < .          ",
"            .: 0 1 h.< r q q.[.} . .            ",
"             ..| a.1.2 i t t < . . . .          ",
"               ..2.3 i t 1 j .     . . .        ",
"               ..4 t u.5.6 .         . . .      ",
"                 . u.7 .               . .      ",
"                   . .                          ",
"                                                "};
