/* XPM */
static char * tb_spellcheck_xpm[] = {
"24 24 10 1",
" 	c None",
".	c #000000",
"+	c #486640",
"@	c #415B39",
"#	c #4C6B42",
"$	c #5B8050",
"%	c #648C58",
"&	c #537549",
"*	c #496640",
"=	c #4F6F46",
"                        ",
"                        ",
"                        ",
"                        ",
"    ..  ...   ..        ",
"   .  . .  . .  .       ",
"   .... ...  .          ",
"   .  . .  . .  .       ",
"   .  . ...   ..    ..  ",
"                   ..   ",
"           ..     ..    ",
"           .+.   .@.    ",
"            .#. .#.     ",
"            .+$.$@.     ",
"             .#%&.      ",
"             .*%@.      ",
"              .#.       ",
"              .=.       ",
"               .        ",
"                        ",
"                        ",
"                        ",
"                        ",
"                        "};
