/* XPM */
static char *magick[] = {
/* columns rows colors chars-per-pixel */
"24 24 109 2",
"   c Gray0",
".  c Gray2",
"X  c Gray6",
"o  c Gray7",
"O  c #131313",
"+  c Gray8",
"@  c Gray9",
"#  c #181818",
"$  c #191919",
"%  c Gray10",
"&  c #1b1b1b",
"*  c Gray11",
"=  c #1d1d1d",
"-  c Gray12",
";  c #202020",
":  c Gray13",
">  c #222222",
",  c #232323",
"<  c Gray15",
"1  c #272727",
"2  c #282828",
"3  c #2a2a2a",
"4  c Gray17",
"5  c #2c2c2c",
"6  c #2d2d2d",
"7  c Gray18",
"8  c #2f2f2f",
"9  c Gray19",
"0  c #323232",
"q  c #353535",
"w  c Gray21",
"e  c #373737",
"r  c Gray22",
"t  c #3a3a3a",
"y  c Gray23",
"u  c Gray24",
"i  c #3f3f3f",
"p  c #414141",
"a  c Gray26",
"s  c Gray27",
"d  c Gray30",
"f  c #4e4e4e",
"g  c #515151",
"h  c #535353",
"j  c Gray34",
"k  c #5b5b5b",
"l  c Gray45",
"z  c #767676",
"x  c #7b7b7b",
"c  c #7c7c7c",
"v  c Gray49",
"b  c Gray51",
"n  c #888888",
"m  c Gray56",
"M  c #909090",
"N  c Gray57",
"B  c #929292",
"V  c Gray58",
"C  c #959595",
"Z  c Gray59",
"A  c #979797",
"S  c Gray60",
"D  c #9a9a9a",
"F  c #9b9b9b",
"G  c Gray61",
"H  c #9d9d9d",
"J  c #a2a2a2",
"K  c #a4a4a4",
"L  c #a5a5a5",
"P  c Gray65",
"I  c #a7a7a7",
"U  c Gray66",
"Y  c #a9a9a9",
"T  c #aaaaaa",
"R  c Gray67",
"E  c #acacac",
"W  c Gray68",
"Q  c #aeaeae",
"!  c #afafaf",
"~  c Gray69",
"^  c #b1b1b1",
"/  c #b2b2b2",
"(  c Gray70",
")  c Gray71",
"_  c #b6b6b6",
"`  c #b7b7b7",
"'  c #bbbbbb",
"]  c #bcbcbc",
"[  c Gray74",
"{  c #bebebe",
"}  c Gray75",
"|  c #c0c0c0",
" . c #c1c1c1",
".. c Gray76",
"X. c #c3c3c3",
"o. c Gray77",
"O. c #c5c5c5",
"+. c #c6c6c6",
"@. c Gray78",
"#. c #c8c8c8",
"$. c Gray79",
"%. c #cacaca",
"&. c #cbcbcb",
"*. c Gray80",
"=. c #cdcdcd",
"-. c #cecece",
";. c Gray81",
":. c Gray82",
">. c Gray84",
/* pixels */
"#.+.............................................",
"O.X.| | | | | | | | | | | | | | | | | | | | | | ",
"..| ] } X.X.} } X.@.o.} ] } X.X.} ] ] ] ] ] ] [ ",
"..|  ...L L O.O.R K I ..O.X.P P X. .[ [ [ [ [ [ ",
"..X.o.S w q J / ; * r Z #.S 6 3 M  .| [ [ [ [ [ ",
"..$.U 7 x x e C = z v f C 0 B A s T X.[ [ [ [ [ ",
"..%.T . : : X S # 2 p n L @ ` >.m '  .| o.o.| [ ",
"..%.L O V V - N ; z v d C 0 B A s T @.O.W P } { ",
"..$.L 7 _ ) w V < * t H :.G 5 3 M O.=.S o 3 E } ",
"..X.{ Y | | E  .Q I R ( ) *.R L @.;.F $ + V o.{ ",
"..| } ..| | X. .o.;./ @ ; H :.-.&.G :   S -. .[ ",
"..| ] [ [ [ [ [ ] O.Y ; : 8 D ;.F 7 = 2 / +.[ [ ",
"..| ] [ [ [ [ [ [ | #.S % 0 t b y 8 $ A #.} [ [ ",
"..| ] [ [ [ [ [ [ [ @.~ 1 s g 9 h u < ^ @.[ [ [ ",
"..| ] [ [ [ [ [ [ [ | #.C $ j l k # Z #.} [ [ [ ",
"..| ] [ [ [ [ [ [ [ [ @.^ , s c i > ^ @.[ [ [ [ ",
"..| ] [ [ [ [ [ [ [ [ } #.C * a & V #.} [ [ [ [ ",
"..| ] [ [ [ [ [ [ [ [ [ @.! 1 4 1 ! @.[ [ [ [ [ ",
"..| ] [ [ [ [ [ [ [ [ [ | O.V e V O.| [ [ [ [ [ ",
"..| ] [ [ [ [ [ [ [ [ [ [  ...W .. .[ [ [ [ [ [ ",
"..| ] [ [ [ [ [ [ [ [ [ [ [ | ..| [ [ [ [ [ [ [ ",
"..| ] [ [ [ [ [ [ [ [ [ [ [ [ [ [ [ [ [ [ [ [ [ ",
"..| ] [ [ [ [ [ [ [ [ [ [ [ [ [ [ [ [ [ [ [ [ [ ",
"..| [ [ [ [ [ [ [ [ [ [ [ [ [ [ [ [ [ [ [ [ [ [ "
};
