/* XPM */
static char *magick[] = {
/* columns rows colors chars-per-pixel */
"24 24 5 1",
"  c Gray0",
". c #6a3731cb1616",
"X c #80803c3c1b1b",
"o c #8d8d428b1dd5",
"O c None",
/* pixels */
"OOOOOOOOOOOOOOOOOOOOOOOO",
"OOOOOOOOOOOOOOOOOOOOOOOO",
"OOOOOOOOOOOOOOOOOOOOOOOO",
"OOOOOOOOOOOOOOOOOOOOOOOO",
"OOOOOOOOOOOOOOOOOOOOOOOO",
"OOOOOOOOOOOOOOOOOOOOOOOO",
"OOOOOOOOO OOOOOOOOOOOOOO",
"OOOOOOOO  OOOOOOOOOOOOOO",
"OOOOOOO oX   OOOOOOOOOOO",
"OOOOOO ooooX.  OOOOOOOOO",
"OOOOOOO oo   .. OOOOOOOO",
"OOOOOOOO  OOO . OOOOOOOO",
"OOOOOOOOO OOOO . OOOOOOO",
"OOOOOOOOOOOOOOO  OOOOOOO",
"OOOOOOOOOOOOOOO  OOOOOOO",
"OOOOOOOOOOOOOOO OOOOOOOO",
"OOOOOOOOOOOOOO OOOOOOOOO",
"OOOOOOOOOOOOOOOOOOOOOOOO",
"OOOOOOOOOOOOOOOOOOOOOOOO",
"OOOOOOOOOOOOOOOOOOOOOOOO",
"OOOOOOOOOOOOOOOOOOOOOOOO",
"OOOOOOOOOOOOOOOOOOOOOOOO",
"OOOOOOOOOOOOOOOOOOOOOOOO",
"OOOOOOOOOOOOOOOOOOOOOOOO"
};
