/* XPM */
static char *magick[] = {
/* columns rows colors chars-per-pixel */
"25 24 42 1",
"  c Gray0",
". c #121b12",
"X c #243221",
"o c #36582e",
"O c #375930",
"+ c #46703c",
"@ c #49763f",
"# c #4e7c44",
"$ c #516f4a",
"% c #548149",
"& c #5b8851",
"* c #608c56",
"= c #67925c",
"- c #709864",
"; c #719a67",
": c #729b68",
"> c #739c6a",
", c #6fa763",
"< c #7da473",
"1 c #80a776",
"2 c #81a877",
"3 c #81a878",
"4 c #83aa7a",
"5 c #84a979",
"6 c #87ac7d",
"7 c None",
"8 c #b1c7ac",
"9 c #c6d7c3",
"0 c #d7e3d5",
"q c #dce6d9",
"w c #dee7dc",
"e c #dfe8dd",
"r c #e4ebe2",
"t c #e9efe8",
"y c #ebf1ea",
"u c #eef3ed",
"i c #eff3ee",
"p c #f1f5f0",
"a c #f2f6f1",
"s c #f3f7f3",
"d c #f4f7f4",
"f c Gray100",
/* pixels */
"7777777777777777777777777",
"7777777777777777777777777",
"7777777777777777777777777",
"7777777777777777777777777",
"777777777777  77777777777",
"777777777777  77777777777",
"77777777777 O8 7777777777",
"77777777777 %f.7777777777",
"7777777777 $:tw 777777777",
"7777777777 #10f 777777777",
"777777777 O><wuq 77777777",
"777777777 #52ryf 77777777",
"77777777 @-14yyae 7777777",
"77777777 #236iiif 7777777",
"7777777 +;164iipsr 777777",
"7777777 ,1646iidsf 777777",
"777777 o&*===999999 77777",
"777777       X      77777",
"7777777777777777777777777",
"7777777777777777777777777",
"7777777777777777777777777",
"7777777777777777777777777",
"7777777777777777777777777",
"7777777777777777777777777"
};
