/* XPM */
static char *magick[] = {
/* columns rows colors chars-per-pixel */
"24 24 25 1",
"  c gray0",
". c #121b12",
"X c #243221",
"o c #36582e",
"O c #375930",
"+ c #48733e",
"@ c #4e7c44",
"# c #516f4a",
"$ c #548149",
"% c #5b8851",
"& c #608c56",
"* c #67925c",
"= c #729a67",
"- c #6fa763",
"; c #7da473",
": c #80a776",
"> c #81a877",
", c #85ab7b",
"< c #b1c7ac",
"1 c #c6d7c3",
"2 c #dce6da",
"3 c #e6ece4",
"4 c #eef2ed",
"5 c #f3f6f2",
"6 c None",
/* pixels */
"666666666666666666666666",
"666666666666666666666666",
"666666666666666666666666",
"666666666666666666666666",
"66666666666  66666666666",
"66666666666  66666666666",
"6666666666 <O 6666666666",
"6666666666.6$ 6666666666",
"666666666 23=# 666666666",
"666666666 62;@ 666666666",
"66666666 242;=O 66666666",
"66666666 643>,@ 66666666",
"6666666 2544,;=+ 6666666",
"6666666 6444,,>@ 6666666",
"666666 35545,,;=+ 666666",
"666666 65544,,,>- 666666",
"66666 111111***&%o 66666",
"66666      X       66666",
"666666666666666666666666",
"666666666666666666666666",
"666666666666666666666666",
"666666666666666666666666",
"666666666666666666666666",
"666666666666666666666666"
};
