/* XPM */
static char *magick[] = {
/* columns rows colors chars-per-pixel */
"24 24 9 1",
"  c Gray0",
". c #36e159032f85",
"X c #484873733e3e",
"o c #4f0f793945c6",
"O c #6e3b98ba6385",
"+ c #8484aaea7a7a",
"@ c #b1b1c7c7acac",
"# c #e416ebb8e26a",
"$ c None",
/* pixels */
"$$$$$$$$$$$$$$$$$$$$$$$$",
"$$$$$$$$$$$$$$$$$$$$$$$$",
"$$$$$$$$$$$$$$$$$$$$$$$$",
"$$$$$$$$$$$$$$$$$$$$$$$$",
"$$$$$$$$$$$  $$$$$$$$$$$",
"$$$$$$$$$$$  $$$$$$$$$$$",
"$$$$$$$$$$ @. $$$$$$$$$$",
"$$$$$$$$$$ $O $$$$$$$$$$",
"$$$$$$$$$ ##Oo $$$$$$$$$",
"$$$$$$$$$ $#Oo $$$$$$$$$",
"$$$$$$$$ ###OO. $$$$$$$$",
"$$$$$$$$ $##++o $$$$$$$$",
"$$$$$$$ ####+OOX $$$$$$$",
"$$$$$$$ $###+++o $$$$$$$",
"$$$$$$ #####++OOX $$$$$$",
"$$$$$$ $####++++O $$$$$$",
"$$$$$ @@@@@@OOOOO. $$$$$",
"$$$$$      .       $$$$$",
"$$$$$$$$$$$$$$$$$$$$$$$$",
"$$$$$$$$$$$$$$$$$$$$$$$$",
"$$$$$$$$$$$$$$$$$$$$$$$$",
"$$$$$$$$$$$$$$$$$$$$$$$$",
"$$$$$$$$$$$$$$$$$$$$$$$$",
"$$$$$$$$$$$$$$$$$$$$$$$$"
};
