/* XPM */
static char * up_arrow_xpm[] = {
"24 24 42 1",
" 	c None",
".	c #000000",
"+	c #B1C7AC",
"@	c #375930",
"#	c #121B12",
"$	c #FFFFFF",
"%	c #548149",
"&	c #DEE7DC",
"*	c #E9EFE8",
"=	c #729B68",
"-	c #516F4A",
";	c #D7E3D5",
">	c #80A776",
",	c #4E7C44",
"'	c #DCE6D9",
")	c #EEF3ED",
"!	c #7DA473",
"~	c #739C6A",
"{	c #EBF1EA",
"]	c #E4EBE2",
"^	c #81A877",
"/	c #84A979",
"(	c #DFE8DD",
"_	c #F2F6F1",
":	c #83AA7A",
"<	c #709864",
"[	c #49763F",
"}	c #EFF3EE",
"|	c #87AC7D",
"1	c #81A878",
"2	c #F3F7F3",
"3	c #F1F5F0",
"4	c #719A67",
"5	c #46703C",
"6	c #F4F7F4",
"7	c #6FA763",
"8	c #C6D7C3",
"9	c #67925C",
"0	c #608C56",
"a	c #5B8851",
"b	c #36582E",
"c	c #243221",
"                        ",
"                        ",
"                        ",
"                        ",
"           ..           ",
"           ..           ",
"          .+@.          ",
"          #$%.          ",
"         .&*=-.         ",
"         .$;>,.         ",
"        .')&!~@.        ",
"        .${]^/,.        ",
"       .(_{{:><[.       ",
"       .$}}}|1^,.       ",
"      .]23}}:|>45.      ",
"      .$26}}|:|>7.      ",
"     .8888889990ab.     ",
"     ......c.......     ",
"                        ",
"                        ",
"                        ",
"                        ",
"                        ",
"                        "};
