/* XPM */
static char * repack_xpm[] = {
"24 24 40 1",
" 	c None",
".	c #000000",
"+	c #DBD99B",
"@	c #3A3824",
"#	c #5E5B3A",
"$	c #12120B",
"%	c #7E7A4E",
"&	c #222114",
"*	c #A29E6A",
"=	c #595741",
"-	c #43412B",
";	c #5A573B",
">	c #89865A",
",	c #8C895C",
"'	c #CDCBB0",
")	c #4B4A37",
"!	c #D1CFB6",
"~	c #D3D3BC",
"{	c #1D1C12",
"]	c #373624",
"^	c #1F1E13",
"/	c #928E5F",
"(	c #413E2A",
"_	c #79764F",
":	c #817E54",
"<	c #B2B097",
"[	c #17160E",
"}	c #888458",
"|	c #4D4A32",
"1	c #747047",
"2	c #A6A272",
"3	c #A9A576",
"4	c #A7A374",
"5	c #ABA779",
"6	c #65623E",
"7	c #AFAC80",
"8	c #666443",
"9	c #E1E1D1",
"0	c #EBEAE1",
"a	c #ADA97C",
"                        ",
"                        ",
"       ..............   ",
"      .++++++++++++..   ",
"     .++++++++++++.@.   ",
"    .++++++++++++.@#$   ",
"   ..............@#%&   ",
"   .************.#%$    ",
"   .**=------;**.%#.    ",
"   .**->>>>>,'**$%.     ",
"    .*-,*****'*$%$.     ",
"    .*)*...**!*...$     ",
"     ....~.......{#.    ",
"     ....~.....]^#%.    ",
"    ./(_...::<:.#%%#[   ",
"    .*(*/::}*!*.%%%%.   ",
"    .*|******!*$#%%1.   ",
"   .**|234533!**$%%6.   ",
"   .**|557777!**.%6..   ",
"   .**8999999043.6..    ",
"   .**********4a...     ",
"  ................      ",
"                        ",
"                        "};
