/* XPM */
static char * reply_from_xpm[] = {
/* columns rows colors chars-per-pixel */
"24 24 9 1",
" 	c None",
".	c black",
"X	c #673e666663d4",
"o	c #eb46ea1de471",
"O	c #a852a7bea3d2",
"+	c #ae51c17b9b26",
"@	c #8d4d97577838",
"#	c #7c7c8b8b6e6e",
"$	c #5e0868be52d3",
/* pixels */
"                        ",
"                        ",
"              ....      ",
"         .....XooO.     ",
"    .....XOooooooO.     ",
"   .XOooooooooooXOO.    ",
"   .oXXooooooooOXOo.    ",
"   .OoOXXooooooXOoo.    ",
"    .oooOOXOooXXXooO.   ",
"    ........XXOoOXOo.   ",
"    ..++++@.ooooooXO.   ",
"     ..+@@@.oooooooXO.  ",
"    ..+@@@#.oooooooO..  ",
"  ..++@@@#$.ooooO...    ",
"        #.$.oO...       ",
"   ...O . ....          ",
"   ...O                 ",
"   .O                   ",
"   ...O ..O .... .O O.  ",
"   ...O ..O .OO. .....  ",
"   .O   .O  .  . . . .  ",
"   .O   .O  .OO. . . .  ",
"   .O   .O  .... . O .  ",
"                        "};
