/* XPM */
static char * save2_xpm[] = {
"24 24 12 1",
" 	c None",
".	c #FFFFFF",
"+	c #000100",
"@	c #BBBDBA",
"#	c #7A98B0",
"$	c #6B6B66",
"%	c #EBA291",
"&	c #3E4850",
"*	c #B0CCE2",
"=	c #4D687C",
"-	c #504D46",
";	c #974F3D",
"                        ",
"  +++++++++++++++++++   ",
" +**$%%%%%%%%%%%%@$**+  ",
" +*#$%%%%%%%%;;%;;$#=+  ",
" +*#$%%%%%%;%;%;;;$#=+  ",
" +*#$.............$#=+  ",
" +*#$.............$#=+  ",
" +*#$@@@@@@@@@@@@@$#=+  ",
" +*#$.............$#=+  ",
" +*#$.............$#=+  ",
" +*#$@@@@@@@@@@@@@$#$+  ",
" +*#$.............$#&+  ",
" +*##$$$$$$$$$$$$$$#&+  ",
" +*#################&+  ",
" +*###&&&==$$$$&&&#*&+  ",
" +*##&@@....@@@@$==*&+  ",
" +*##&@.$--@@@@@&==*&+  ",
" +*##&..$--@@@@@&==*&+  ",
" +*##&..---@@@..&==*&+  ",
" +###&@@---@@...&==*&+  ",
"  +==&@@@@@@..@@&==*&+  ",
"   ++++++++++++++++&+   ",
"                        ",
"                        "};
