/* XPM */
static char * picon-bar_xpm[] = {
"6 48 2 1",
" 	c white s background",
".	c black",
"  ..  ",
"  ..  ",
"  ..  ",
"  ..  ",
"  ..  ",
"  ..  ",
"  ..  ",
"  ..  ",
"  ..  ",
"  ..  ",
"  ..  ",
"  ..  ",
"  ..  ",
"  ..  ",
"  ..  ",
"  ..  ",
"  ..  ",
"  ..  ",
"  ..  ",
"  ..  ",
"  ..  ",
"  ..  ",
"  ..  ",
"  ..  ",
"  ..  ",
"  ..  ",
"  ..  ",
"  ..  ",
"  ..  ",
"  ..  ",
"  ..  ",
"  ..  ",
"  ..  ",
"  ..  ",
"  ..  ",
"  ..  ",
"  ..  ",
"  ..  ",
"  ..  ",
"  ..  ",
"  ..  ",
"  ..  ",
"  ..  ",
"  ..  ",
"  ..  ",
"  ..  ",
"  ..  ",
"  ..  ",
"  ..  "};
