/* XPM */
static char * rot13_xpm[] = {
"24 24 5 1",
" 	c None",
".	c #A5A5A5A59595",
"X	c #C7C7C6C6C6C6",
"o	c #E1E1E0E0E0E0",
"O	c #919187876969",
"                        ",
"                        ",
"                        ",
"             .          ",
"           ..X.         ",
"         ..XXX.         ",
"       ..XXXXXo.        ",
"    ...XXXXXXooo.       ",
"    .o.XXXXXoooo.       ",
"    .oo.XXXooOooo.      ",
"    .oo..XXoOXOOoo.     ",
"    .oo.XXoOXooOXoo.    ",
"    .o.XoooOOXXOXooX.   ",
"     .XXooOOXOOXoooo.   ",
"     .XooOOOooooooo.    ",
"      .oOOXOXooooo.     ",
"      .oOOXoooooo.      ",
"       .oOOXooo..       ",
"       .oooooo.         ",
"        .ooo..          ",
"        .oo.            ",
"         ..             ",
"                        ",
"                        "};
