/* XPM */
static char * icon-catchup_xpm[] = {
"32 32 4 1",
" 	c #BFBFBFBFBFBF s backgroundToolBarColor",
".	c #000000000000",
"X	c #999999999999",
"o	c #FFFFFFFFFFFF",
"                                ",
"                                ",
"                                ",
"                                ",
"         ....                   ",
"        .XXXX.             .... ",
"        .XXXX.            .XXXX.",
"         .XXX.            .XXXX.",
" .........XX.              .XXX.",
".ooooooooo..       .........XX. ",
".o....ooooo...... .ooooooooo..  ",
"X.   .ooooooooo.X..o....ooooo.  ",
"X.   .oooo........X.   .ooooo.  ",
".   .oooo.       .X.   .ooooo.  ",
"    .oooo.       ..   .oooo.o.  ",
"   .oooo.             .oooo.o.  ",
"   ......            .ooooo.oo..",
"  .ooooo.            ...... ..X.",
"  .ooooo.           .ooooo.   ..",
" .o..ooo.           ..oooo.     ",
".ooo..ooo.XXXXXXXXX.o..ooo.XXXXX",
"ooo.XX.oo.XXX......ooo..ooo.XXXX",
"oo.XXX.oo.XXX..oooooo.XX.oo.XXXX",
"..XXXX.oo.XXX..ooooo.XXX.oo.XXXX",
"XXXXXXX.oo.XX.......XXX .oo.XXXX",
"XXXXXXX.....X..XXXXXXXXXX.oo.XXX",
"XXXXXXXXXXXXX.XXXXXXXXXXX.....XX",
"XXXXXXXXXXXXXXXXXXXXXXXXX......X",
"XXXXXXXXXXXXXXXXXXXXXXXXXXXXXXXX",
"XXXXXXXXXXXXXXXXXXXXXXXXXXXXXXXX",
"XXXXXXXXXXXXXXXXXXXXXXXXXXXXXXXX",
"XXXXXXXXXXXXXXXXXXXXXXXXXXXXXXXX"};
