/* XPM */
static char *magick[] = {
/* columns rows colors chars-per-pixel */
"24 24 43 1",
"  c Gray0",
". c #099909990999",
"X c Gray6",
"o c #133313331333",
"O c Gray9",
"+ c Gray11",
"@ c Gray12",
"# c #23f323f323f3",
"$ c Gray15",
"% c #2ff12ff12ff1",
"& c #3fff3fff3fff",
"* c Gray25",
"= c #4ccc4ccc4ccc",
"- c #519151915191",
"; c #53ed53ed53ed",
": c #565b565b565b",
"> c Gray35",
", c #5b1a5b1a5b1a",
"< c #5fe95fe95fe9",
"1 c #626262626262",
"2 c Gray40",
"3 c #67e767e767e7",
"4 c Gray42",
"5 c #6fff6fff6fff",
"6 c Gray45",
"7 c Gray46",
"8 c #77e977e977e9",
"9 c #7bdb7bdb7bdb",
"0 c #7ccc7ccc7ccc",
"q c Gray50",
"w c #866586658665",
"e c Gray56",
"r c Gray60",
"t c #9bcb9bcb9bcb",
"y c #9fff9fff9fff",
"u c #a7c7a7c7a7c7",
"i c #af0eaf0eaf0e",
"p c Gray70",
"a c Gray75",
"s c Gray81",
"d c #dfffdfffdfff",
"f c #efffefffefff",
"g c Gray100",
/* pixels */
"aaaaaaaaaaaaaaaaaaaaaaaa",
"aaaaaaaaaaaaaaaaaaaaaaaa",
"aaaaaaaaaaaaaaaaaaaaaaaa",
"aaaaaa7$$*uaaaaaaaaareep",
"aaaaaa$rr6<aaaaaaaae;==>",
"aaaaaa7<r6<aaaaaaaa<6rr$",
"9&&&&&&>6;aaaareeeee#rw*",
"&aqqagga@<<<7e7qqqqqq=:u",
"33e4qgggsaa%1Oa&&&ggge<a",
"17a9ygf7%%%%#=$aa%ggga<a",
"7aa&gga<aaaae$>ae7ggya<a",
"aa;sgg;uaaaapepa<agg&a<a",
"au;&&&%aaaaaaaae<aaa;a6.",
"a<aggg%aaaaaaaa3qqq&e<:o",
"r7<5gg%aaaaaaaaXyggqeaue",
"6gs$6fa=re6666=s@egy3rrr",
"ga>r=aa=r6 <qqdd3=yg&rrr",
"&>er=aa=r6 aggg=wr&g&rrr",
"rrrrr$a<:6 @$$$rri=d5qrr",
"rrrrr<===6$wrrrrrr6&qo6r",
"rrrrrrrrrewrrrrrrr6   oq",
"rrrrrrrrrrrrrrrrrrrrrrrr",
"rrrrrrrrrrrrrrrrrrrrrrrr",
"rrrrrrrrrrrrrrrrrrrrrrrr"
};
