/* XPM */
static char * icon-catchup_xpm[] = {
"32 32 4 1",
" 	c #BFBFBFBFBFBF s backgroundToolBarColor",
".	c #000000000000",
"X	c #FFFFFFFFFFFF",
"o	c #999999999999",
"                                ",
"                                ",
"                                ",
"                                ",
"                                ",
"                                ",
"                                ",
"               ......           ",
"           ..  .XXXX.           ",
"          .X.  .XXXX.           ",
"        ..XX...XXXXX....        ",
"      ..XXXXX..XXXXX.XX...      ",
"      ..XXXXX..XXXX.XXXX..      ",
"       .XXXX........XXXX.       ",
"       ..XXX.XXXXX.......       ",
"       ..XXX.XXXXX..XXX.        ",
"       .X.XX.XXXXX.XXXX.        ",
"       ...XX.XXXXX.XXXX.        ",
"        ...X.XXXXX.X...         ",
"         .X.........XX.         ",
"         .  .XX.XX.XX.          ",
"ooooooooo....XX.XX....oooooooooo",
"oooooooooo. .......  .oooooooooo",
"oooooooooo.X.XX.X .X.ooooooooooo",
"oooooooooo. .X .  . .ooooooooooo",
"oooooooooo...........ooooooooooo",
"oooooooooo...X..XX...ooooooooooo",
"oooooooooo...X ..X...ooooooooooo",
"oooooooooo..........oooooooooooo",
"oooooooooooo.......ooooooooooooo",
"oooooooooooooooooooooooooooooooo",
"oooooooooooooooooooooooooooooooo"};
