/* XPM */
static char * icon-describe-group_xpm[] = {
"32 32 4 1",
" 	c #000000000000",
".	c #999999999999 s backgroundToolBarColor",
"X	c #FFFFFFFFFFFF",
"o	c #BFBFBFBFBFBF",
" ... ... ... ... ... ... ... ...",
"................................",
"................................",
".......................XXXXX....",
" ... ... ... ... ... XXX XXXXX..",
"....................XXXXXXXXXXX.",
"...................XXXXXXXXXXXXX",
"..................XXXXXXXXXXXXXX",
" ... ... ... ... XXX XXX XXX XXX",
"................XXXXXXXXXXXXXXXX",
"................XXXXXXXXXXXXXXXX",
"................XXXXXXXXXXXXXXXX",
" ... ... ... ... XXX XXX XXX XXX",
"................XXXXXXXXXXXXXXXX",
"................XXXXXXXXXXXXXXXX",
"................XXXXXXXXXXXXXXXX",
" ... ... ... ... XXX XXX XXX XXX",
".................XXXXXXXXXXXXXXX",
".................XXXXXXXXXXXXXXX",
".......    .......XXXXXXXXXXXXXX",
" ... . oooo  ... ..X XXX XXX XXX",
"..... o...oo .......XXXXXXXXXXX.",
".... .o....o. .......XXXXXXXXX..",
".... o . ...  .........XXXXX....",
" ...  o .. .  .. ... ... ... ...",
"...  o   . .  ..................",
"..  X . . .  ...................",
".  o .   .  ....................",
"   o       . ... ... ... ... ...",
" o     .........................",
"o .   ...o......................",
"     ..........................."};
