/* XPM */
static char *magick[] = {
/* columns rows colors chars-per-pixel */
"24 24 42 1",
"  c Gray0",
". c #099909990999",
"X c #0bfb0bfb0bfb",
"o c #133313331333",
"O c Gray9",
"+ c Gray11",
"@ c #23f323f323f3",
"# c Gray15",
"$ c #2d8d2d8d2d8d",
"% c #399939993999",
"& c #433243324332",
"* c #4ccc4ccc4ccc",
"= c #519151915191",
"- c #53e353e353e3",
"; c #565656565656",
": c Gray36",
"> c #5fdf5fdf5fdf",
", c Gray42",
"< c #6fff6fff6fff",
"1 c Gray45",
"2 c #77f777f777f7",
"3 c #7ccc7ccc7ccc",
"4 c Gray50",
"5 c #865a865a865a",
"6 c Gray58",
"7 c Gray60",
"8 c #9bfb9bfb9bfb",
"9 c Gray62",
"0 c #9fff9fff9fff",
"q c #a0c0a0c0a0c0",
"w c Gray64",
"e c Gray65",
"r c Gray70",
"t c #b635b635b635",
"y c Gray73",
"u c Gray75",
"i c #d332d332d332",
"p c Gray85",
"a c #e665e665e665",
"s c #eccbeccbeccb",
"d c #f998f998f998",
"f c Gray100",
/* pixels */
"&77&77&77&77&77&77&77&77",
"777777777777777777777777",
"77777777777777777iaaa777",
"&77&77&77&77&77<ff<fffp0",
"77777777777777uffffffffp",
"7777777777777udfffffffff",
"&77&77&77&77<ff<ff<ff<ff",
"777777777777ffffffffffff",
"777777777777ffffffffffff",
"&77&77&77&77<ff<ff<ff<ff",
"777777777777ffffffffffff",
"777777777777ffffffffffff",
"&77&77&77&77:ff<ff<ff<ff",
"777777777777rfffffffffff",
"77777&##37770pffffffffff",
"&77%-6ty-#77&7i<ff<ff<fs",
"777*5w7wy*17777pffffffae",
"777$13&7w+*77770rsfffre7",
"&73X:@3*1 *7&77&77&77&77",
"71o2;o***o17777777777777",
"3o,**X%*X377777777777777",
"XO,  +##3&77&77&77&77&77",
":;o #50w7777777777777777",
"@oX+57707777777777777777"
};
