/* XPM */
static char *magick[] = {
/* columns rows colors chars-per-pixel */
"24 24 46 1",
"  c Gray0",
". c Gray6",
"X c #133313331333",
"o c Gray11",
"O c Gray12",
"+ c Gray15",
"@ c #2ff82ff82ff8",
"# c Gray20",
"$ c #399939993999",
"% c #3fff3fff3fff",
"& c Gray25",
"* c Gray28",
"= c #4ccc4ccc4ccc",
"- c #53e353e353e3",
"; c #565e565e565e",
": c #5b1a5b1a5b1a",
"> c #5ff55ff55ff5",
", c #626262626262",
"< c Gray40",
"1 c #67e767e767e7",
"2 c Gray42",
"3 c #6ff96ff96ff9",
"4 c Gray45",
"5 c #77d777d777d7",
"6 c #7ccc7ccc7ccc",
"7 c Gray50",
"8 c Gray56",
"9 c #97f797f797f7",
"0 c Gray60",
"q c #9bd19bd19bd1",
"w c #9ff29ff29ff2",
"e c #a7cba7cba7cb",
"r c Gray67",
"t c #afd5afd5afd5",
"y c Gray70",
"u c Gray75",
"i c #c3c3c3c3c3c3",
"p c Gray78",
"a c #cbcbcbcbcbcb",
"s c Gray81",
"d c #d7d8d7d8d7d8",
"f c #dff2dff2dff2",
"g c Gray89",
"h c #e7e7e7e7e7e7",
"j c #eff8eff8eff8",
"k c Gray100",
/* pixels */
"kkkkkkkkkufkkkku7skkkkkk",
"kkkkkkkkw>%fkkw 7kkkkkkk",
"kk3%wkkksu ukk%u7skkkkkk",
"kww>>@@uu3f@8 @@7.@Owskk",
"kkwf777%>77O> >>%7777wkk",
"kkkkkss7j8O.@ 8jujsfjkkk",
"kkkjuuwO @> @>@@ujkkkkkk",
"kkk>%O77O$ > %f  >kkkkkk",
"kkk87sj7<=u>@7s8>@%wkkkk",
"kkkkkkq==u>>u ukk3u7kkkk",
"7uwfuw+=>u u> >fuw7uwwuf",
"8twut#>:8q q8* uprwswwtu",
"ipuge&,5uq5uau-@uuuuuadu",
"psuu>4@uuuuuduu5uuduuuuu",
"uugu>4@uuguuuuuuuuauuuuu",
"uuuy:>-uuuuuuugguaaugguu",
"psu8=+uuuuspuuuuudduuuuu",
"ipu8=+uuujfhguuuuuudauuu",
"ue82=+8euuuuishspujdgguu",
"e@$$+X=;>uu5ttp9sduuuuuu",
"&4$8$ 7=4@@5y>qejdjduuuu",
";$4O4444444O@eye5@uuusfd",
">>>>3<>@*<3>@wp9f7uuufsd",
"uuujfhgedhfjqpswsiuuuuuu"
};
