/* XPM */
static char * icon-exit-gnus_xpm[] = {
"32 32 4 1",
" 	c #FFFFFFFFFFFF s backgroundToolBarColor",
".	c #000000000000",
"X	c #999999999999",
"o	c #BFBFBFBFBFBF",
"                      .         ",
"            ..      ..          ",
"           . ..    ...          ",
"   ...       ..    .  .         ",
"  . . ...   .  . .... .....     ",
"   . .. ....  ..... .. . . ..   ",
"       .  . .. . ... .. . .     ",
"         .   ......             ",
"         .... ... ...           ",
"     .... ......... ...         ",
"    .. . . .X.. ..  ....        ",
"     .    .X.  .. .  . ...      ",
"         .X. . . ..    . .      ",
"        .X.  ..  ..      .      ",
".. . . ..X.. .. .... . ..  .. . ",
"ooooooo.X.ooo..ooo..oo ooooooooo",
"oooo oo.X.ooo.ooooo..oooooooo oo",
"o oooo.X.ooooooo ooo.ooooooooooo",
"oooooo.X.ooooooooooooooo ooooooo",
"ooo oo.X.ooo ooooooooooooooooooo",
"oooooo.X.oooooooooo  oooooo  ooo",
"ooooo.X.ooooooooooooooo  ooooooo",
"o ooo.X.oooooo ooooooooooooooooo",
"ooooo.X.oooo  o  ooooooooo ooooo",
"ooooo.X.ooooooooooo oooo  o  ooo",
"oo....X...ooooooo  o  oooooooooo",
"o..XX...XX..ooo.o.oo.oo oooooooo",
".XX.XX..X.XX...ooo.oo  o  oooooo",
"X.XX.XXXXXXXXXX..oooo.o.oooooo o",
".................o.o oo.oooo  o ",
"oooooo ooo.oo oo.o  .  ooooooooo",
"oooo  o  oo  o  oooooooooooooooo"};
