/* XPM */
static char *magick[] = {
/* columns rows colors chars-per-pixel */
"24 24 15 1",
"  c Gray0",
". c #0bfb0bfb0bfb",
"X c Gray9",
"o c #23f323f323f3",
"O c #2fef2fef2fef",
"+ c Gray28",
"@ c #53e353e353e3",
"# c #5fdf5fdf5fdf",
"$ c Gray42",
"% c #77d777d777d7",
"& c Gray56",
"* c #9bcb9bcb9bcb",
"= c #a7c7a7c7a7c7",
"- c Gray70",
"; c Gray75",
/* pixels */
"@;;@;;@;;@;;@;;@;;@;;@;;",
";;;;;;;;;;;;;;;;;;;;;;;;",
";;;;;;;;;;;;;;;;;;;;;;;;",
"@;;@;;&=@OOOo     O;;@;;",
";;;;;;X&;;;;=##   O;;;;;",
";;;;;;.%;;;;;;;   O;;;;;",
"@;;@;;@;;@;;*;;   O;;@;;",
";;;;;;;;;;;;%;;   O;;;;;",
";;;;;;O%;;;;;;;   O;;;;;",
"@;;@;;o=;@;;-&-   O;;@;;",
";;;;;;X&;;;;+ &   O;;;;;",
";;;;;;.%;;;;$ &   O;;;;;",
"@;;@;;o=;@;;;;;   O;;@;;",
";;;;;;X&;;;;;;;   O;;;;;",
";;;;;;*;;;;;@;;   O;;;;;",
"@;;@;;&=;@;;;;;   O;;@;;",
";;;;;; #;;;;;&#XO+O;;;;;",
";;;;;;o=;*OO*#o%#+*;;;;;",
"@;;@;@;%OOOO@%*@%*@;;@;;",
";;;;;;;;;;;;;;;;;;;;;;;;",
";;;;;;;;;;;;;;;;;;;;;;;;",
"@;;@;;@;;@;;@;;@;;@;;@;;",
";;;;;;;;;;;;;;;;;;;;;;;;",
";;;;;;;;;;;;;;;;;;;;;;;;"
};
