/* XPM */
static char * icon-exit-summary_xpm[] = {
"32 32 2 1",
" 	c #000000000000",
".	c #BFBFBFBFBFBF s backgroundToolBarColor",
" ... ... ... ... ... ... ... ...",
"................................",
"................................",
"................................",
" ... ......              ... ...",
"........  .......        .......",
"........ ...........     .......",
"........  ..........     .......",
" ... ... ... .......     ... ...",
"................ ...     .......",
"....................     .......",
"........  ..........     .......",
" ... ... ... .......     ... ...",
"........  .......  .     .......",
"........ .......   .     .......",
"........  .......  .     .......",
" ... ... ... .......     ... ...",
"........  ..........     .......",
"........ ...........     .......",
"................ ...     .......",
" ... ....... .......     ... ...",
"........  ..........     .......",
"........  ........   . . .......",
"........ ....   . . . . ........",
" ... .. ..       . . . . ... ...",
"................................",
"................................",
"................................",
" ... ... ... ... ... ... ... ...",
"................................",
"................................",
"................................"};
