/* XPM */
static char *magick[] = {
/* columns rows colors chars-per-pixel */
"24 24 24 1",
"  c Gray0",
". c Gray6",
"X c Gray9",
"o c Gray12",
"O c #2ff22ff22ff2",
"+ c #3fff3fff3fff",
"@ c Gray28",
"# c #53ed53ed53ed",
"$ c #5fee5fee5fee",
"% c #67e767e767e7",
"& c #6fff6fff6fff",
"* c #77f077f077f0",
"= c #7bdb7bdb7bdb",
"- c Gray50",
"; c Gray56",
": c #9bd79bd79bd7",
"> c #9fff9fff9fff",
", c #a7c7a7c7a7c7",
"< c Gray70",
"1 c Gray75",
"2 c Gray81",
"3 c #dfffdfffdfff",
"4 c #efffefffefff",
"5 c Gray100",
/* pixels */
"<,1<,1<,1<,1<,1<,1<,1<,1",
",;1,;1,;1,;1,;1,;1,;1,;1",
"111111111111111111111111",
"<,1<,1<,1<,:=+.<,1<,1<,1",
",;1,;1,;1;O*>5+$;1,;1,;1",
"11111111##142+>O11111111",
"<,1<,:=+2555 o2#,1<,1<,1",
",;1;O*>5555>-151$1,;1,;1",
"111<@15555525554*:111111",
"<,1<$:5555555555>=<,1<,1",
",;1,;*>553--55555+,;1,;1",
"111111=>&$1O555552#11111",
"<,111:=+241$+55555#,1<,1",
",;1,$*>55$ 1+555551$1,;1",
"11##14555 $4>>55554*:111",
"<@155555&5551-55555>=<,1",
",O15555555553-355551o,;1",
"1,#55555555553$555+%;111",
"<,#25555555555&1*O<,1<,1",
",;1+55555555555X;1,;1,;1",
"111=>5555555555:*1111111",
"<,1:*45555555552%<<,1<,1",
",;11$15555555555-;,;1,;1",
"1111,#55555555553#111111"
};
