/* XPM */
static char * icon-followup-w-orig_xpm[] = {
"32 32 3 1",
" 	c #BFBFBFBFBFBF s backgroundToolBarColor",
".	c #000000000000",
"X	c #FFFFFFFFFFFF",
"                                ",
" .   .   .   .   .   .   .   .  ",
"                                ",
"                                ",
"                                ",
" .   .   .   .   .   .   .   .  ",
"                                ",
"                 ..             ",
"                ...             ",
" .   .   .   .  ..   .   .   .  ",
"               .                ",
"                                ",
"                                ",
" .   .   .   .   .   .   .   .  ",
"             ..                 ",
"           ..XX.                ",
"         ..XXXX.                ",
" .     ..XXX...X.    .   .   .  ",
"     ..XXX..XX..X.              ",
"   ..XXX..XXX...X.              ",
"   .XX..XXXXX...XX.             ",
" . ...XXXXXX.XX.XX.  .   .   .  ",
"   .XXXXXXXXXXXX.XX.            ",
"  .XXXXXXXXXXXXX.XX.            ",
"  .XXXXXXXXXXXXXX.XX.           ",
" . .XXXXXXXXXXXXX.XX.    .   .  ",
"   .XXXXXXXXXXXXXX.XX.          ",
"    .XXXXXXXXXXXXX.XX.          ",
"    .XXXXXXXXXXXXXX.XX.         ",
" .   .XXXXXXXXXXXXX.XX.  .   .  ",
"     .XXXXXXXXXXXXXX.XX.        ",
"      .XXXXXXXXXXXXX.XX.        "};
