/* XPM */
static char *magick[] = {
/* columns rows colors chars-per-pixel */
"24 24 38 1",
"  c Gray0",
". c #0bfb0bfb0bfb",
"X c Gray6",
"o c #133313331333",
"O c Gray9",
"+ c Gray11",
"@ c Gray12",
"# c #23f323f323f3",
"$ c Gray15",
"% c #2ff32ff32ff3",
"& c #399939993999",
"* c #3fff3fff3fff",
"= c Gray25",
"- c #433243324332",
"; c Gray28",
": c #4ccc4ccc4ccc",
"> c #519151915191",
", c #53e753e753e7",
"< c #565a565a565a",
"1 c Gray35",
"2 c #5b1a5b1a5b1a",
"3 c #5fe55fe55fe5",
"4 c Gray45",
"5 c Gray46",
"6 c #77d777d777d7",
"7 c #7ccc7ccc7ccc",
"8 c Gray50",
"9 c #866586658665",
"0 c Gray56",
"q c Gray60",
"w c #9bcb9bcb9bcb",
"e c #9fff9fff9fff",
"r c #a7c7a7c7a7c7",
"t c Gray70",
"y c Gray75",
"u c Gray81",
"i c #dfffdfffdfff",
"p c Gray100",
/* pixels */
"0000000ryyyyyyyyyyyyyyyy",
"@8888833yyyyyyyyyyyyyyyy",
"*pppppy3yyyyyyyyyyyyyyyy",
"*pppppy3yyyyyr=$$6yyyyyy",
"*ppppp3%3yyyr<9qq36yyyyy",
"*ppppp ;0>yy0:qqqq%yyyyy",
"*pppppy @82tq>0qq8>yyyyy",
"*pppppy%>q42y0>q42yyyyyy",
"*pppppy3q=q8%%.=:#%6yyyy",
"%yyyyy03y0:qqqqqqqq:0yyy",
"33333330yr<9qqqqqqq42yyy",
"yyyyyyyyyyr=qqqqqqqq$yyy",
"yyyyyyyyyyyy$:%***$q$**X",
"yyyyyyyyyyyy$:yppe3q$pp*",
"yyyyyyyyyyyy$:ypp*q3qpp*",
"yyyyyyyyyyyy$:yp8402upp*",
"yyyyyyyyyyyyo$yi*&48ppp*",
"yyyyyyyyyyy>4&u>00:ippp*",
"yyyyyyyyyyy%q:00Oq%yyyy%",
"yyyyyyyyyyy%q4:o<3&%3333",
"yyyyyyyyyyy%qqq$9443yyyy",
"yyyyyyyyyyy%44@0&4<3yyyy",
"yyyyyyyyyyy6o$;r%&O0yyyy",
"yyyyyyyyyyyy$:0y34%yyyyy"
};
