/* XPM */
static char * icon-get-new-news_xpm[] = {
"32 32 4 1",
" 	c #BFBFBFBFBFBF s backgroundToolBarColor",
".	c #000000000000",
"X	c #FFFFFFFFFFFF",
"o	c #999999999999",
"                                ",
"..........                      ",
".XXXXXXXX.                      ",
".XXXXXXXX.                      ",
".XXXXXXXX.         ....         ",
".XXXXXXXX.        .oooo.        ",
".XXXXXXX....     .oooooo.       ",
".XXXXXXX..  .    .oooooo.       ",
".XXXXXXXX...o.   .oooooo.       ",
".XXXXXXXX..ooo.   .oooo.        ",
".XXXXXXXX. .ooo.   .oo.         ",
".XXXXXXXX.  .ooo.....o....      ",
".XXXXXXXX.   .oooooooooooo.     ",
"..........   .oooooooooooo.     ",
"              .oooooooooooo.    ",
"               .ooooooooooo.    ",
"                .o.......oo.....",
"                .o.XXXXX.oo.XXX.",
"                .o.XXXX.ooo.XXX.",
"                .o.XXXX.oo.XXXX.",
"                .o.XXX.ooo.XXXX.",
"                .o.XXX.oo.XXXXX.",
"                ...XX...o.XXXXX.",
"               .oo.X.   .XXXXXX.",
"               .oo.XX.. .XXXXXX.",
"               .oo....  ........",
"               .oooo.o..o.      ",
"               .oooo.oooo.      ",
"               .ooo. .ooo.      ",
"               ..... .....      ",
"                .o.   .o.       ",
"                .o.   .o.       "};
