/* XPM */
static char * icon-get-new-news-this-group_xpm[] = {
"32 32 4 1",
" 	c #BFBFBFBFBFBF s backgroundToolBarColor",
".	c #000000000000",
"X	c #FFFFFFFFFFFF",
"o	c #999999999999",
"                                ",
" ..........                     ",
" .XXXXXXXX.                     ",
" .XXXXXXXX.                     ",
" .XXXXXXXX.         ....        ",
" .XXXXXXXX.        .oooo.       ",
" .XXXXXXX....     .oooooo.      ",
" .XXXXXXX..  .    .oooooo.      ",
" .XXXXXXXX...o.   .oooooo.      ",
" .XXXXXXXX..ooo.   .oooo.       ",
" .XXXXXXXX. .ooo.   .oo.        ",
" .XXXXXXXX.  .ooo.....o....     ",
" .XXXXXXXX.   .oooooooooooo.    ",
" ..........   .oooooooooooo.    ",
"               .oooooooooooo.   ",
"                .oooooooo.oo.   ",
"                 .ooooooo.oo.   ",
"                 .ooooooo.oo.   ",
"                 .ooooooo.oo.   ",
"                 .ooooooo.oo.   ",
"                 .ooooooo.oo.   ",
"                 .ooooooo.oo.   ",
"                 ............   ",
"                .oooooo.   .    ",
"                .ooooooo.. .    ",
"                .ooooooo.  .    ",
"                .oooo.oo...     ",
"                .oooo.oooo.     ",
"                .ooo. .ooo.     ",
"                ..... .....     ",
"                 .o.   .o.      ",
"                 .o.   .o.      "};
