/* XPM */
static char *magick[] = {
/* columns rows colors chars-per-pixel */
"24 24 34 1",
"  c Gray0",
". c #099909990999",
"X c #0bfb0bfb0bfb",
"o c #133313331333",
"O c Gray9",
"+ c Gray11",
"@ c #23f323f323f3",
"# c Gray15",
"$ c #2fef2fef2fef",
"% c #399939993999",
"& c #3fff3fff3fff",
"* c Gray25",
"= c #433243324332",
"- c Gray28",
"; c #4ccc4ccc4ccc",
": c #519151915191",
"> c #566656665666",
", c #5fed5fed5fed",
"< c #626262626262",
"1 c Gray42",
"2 c Gray45",
"3 c Gray46",
"4 c #77d777d777d7",
"5 c #7ccc7ccc7ccc",
"6 c Gray50",
"7 c #866586658665",
"8 c Gray56",
"9 c Gray60",
"0 c #9bcb9bcb9bcb",
"q c #a7c7a7c7a7c7",
"w c Gray70",
"e c Gray75",
"r c #dfffdfffdfff",
"t c Gray100",
/* pixels */
"w8888888weeeeeeeeeeeeeee",
"8&66666&8eeeeeeeeeeeeeee",
"86ttttt68eeeeeeeeeeeeeee",
"86ttttt68eeeee0###0eeeee",
"86ttttr&-4eee8:000:8eeee",
"86tttte 144ee,20002,eeee",
"86ttttt6 =,4e4<000<4eeee",
"86ttttt6-,0,4e4,0,4eeeee",
"86ttttt684,0<$$.,#$$0eee",
"8,eeeee,8e,200000000#eee",
"q,,,,,,,qe8:00000000,4ee",
"eeeeeeeeeee0=000006,0$ee",
"eeeeeeeeeeee8;00002;0$ee",
"eeeeeeeeeeee8;00002;0$ee",
"eeeeeeeeeeee8;00002;0$ee",
"eeeeeeeeeeee8;00002;0$ee",
"eeeeeeeeeeee8#;;;;%#;$ee",
"eeeeeeeeeeee=2222+88@0ee",
"eeeeeeeeeeee#00000.4$eee",
"eeeeeeeeeeee#00720O,,eee",
"eeeeeeeeeeee#002;02%8eee",
"eeeeeeeeeeee+22$,>2%8eee",
"eeeeeeeeeeee-#o48O%$qeee",
"eeeeeeeeeeee8;#ee$2,eeee"
};
