/* XPM */
static char *magick[] = {
/* columns rows colors chars-per-pixel */
"24 24 20 1",
"  c Gray0",
". c Gray6",
"X c Gray12",
"o c #2ff42ff42ff4",
"O c #3fff3fff3fff",
"+ c Gray28",
"@ c #53e353e353e3",
"# c #5fe25fe25fe2",
"$ c #67e767e767e7",
"% c #6fff6fff6fff",
"& c #77d777d777d7",
"* c Gray50",
"= c Gray56",
"- c #9fff9fff9fff",
"; c Gray70",
": c Gray75",
"> c Gray81",
", c #dfffdfffdfff",
"< c #efffefffefff",
"1 c Gray100",
/* pixels */
"::::::::::::::::::::::::",
"::::::::::::::::::::::::",
"::::::::::::::::::::::::",
"::::#oOOOOOOOOOo+;::::::",
"::::#:111111111:O$::::::",
"::::#:1111-O%11:*>@:::::",
"::::#:111=X.o#<>OOo#::::",
"::::#:111 OX# :111:#::::",
"::::#:111  =  :111:#::::",
"::::#:111>Xo.-1111:#::::",
"::::#:1111*:O11111:#::::",
"::::#:11%1*oO->111:#::::",
"::::#:1-O:,1:*O111:#::::",
"::::#:111****:1111:#::::",
"::::#:1111* 111111:#::::",
"::::#:1,:O-1O*:111:#::::",
"::::#:1:X1111*#111:#::::",
"::::#:11>1111,<111:#::::",
"::::#:111111111111:#::::",
"::::#:111111111111:#::::",
"::::#:111111111111:#::::",
"::::&oooooooooooooo&::::",
"::::::::::::::::::::::::",
"::::::::::::::::::::::::"
};
