/* XPM */
static char * icon-killfile_xpm[] = {
"32 32 3 1",
" 	c #BFBFBFBFBFBF s backgroundToolBarColor",
".	c #000000000000",
"X	c #FFFFFFFFFFFF",
"                                ",
"                                ",
"                                ",
"                                ",
"      ................          ",
"      .XXXXXXXXXXXXXX..         ",
"      .XXXXXXXXXXXXXX.X.        ",
"      .XXXXXXX...XXXX.XX.       ",
"      .XXXXXX.....XXX.....      ",
"      .XXXXX..X.X..XXXXXX.      ",
"      .XXXXX.......XXXXXX.      ",
"      .XXXXX...X...XXXXXX.      ",
"      .XXXXXX.....XXXXXXX.      ",
"      .XXXXXXX.X.XXXXXXXX.      ",
"      .XXXXXXX.X.XXXXXXXX.      ",
"      .XXXX.XX...X.XXXXXX.      ",
"      .XXX..XXXXXX..XXXXX.      ",
"      .XXXXX..XX..XXXXXXX.      ",
"      .XXXXXXX..XXXXXXXXX.      ",
"      .XXXXXXX..XXXXXXXXX.      ",
"      .XXXXX..XX..XXXXXXX.      ",
"      .XXX..XXXXXX..XXXXX.      ",
"      .XXXX.XXXXXX.XXXXXX.      ",
"      .XXXXXXXXXXXXXXXXXX.      ",
"      .XXXXXXXXXXXXXXXXXX.      ",
"      .XXXXXXXXXXXXXXXXXX.      ",
"      .XXXXXXXXXXXXXXXXXX.      ",
"      .XXXXXXXXXXXXXXXXXX.      ",
"      ....................      ",
"                                ",
"                                ",
"                                "};
