/* XPM */
static char *magick[] = {
/* columns rows colors chars-per-pixel */
"24 24 21 1",
"  c Gray0",
". c Gray6",
"X c Gray12",
"o c #2ff02ff02ff0",
"O c #3fff3fff3fff",
"+ c Gray28",
"@ c #53f353f353f3",
"# c #5ff95ff95ff9",
"$ c #67e767e767e7",
"% c #6fff6fff6fff",
"& c #77dc77dc77dc",
"* c Gray50",
"= c Gray56",
"- c #9beb9beb9beb",
"; c #9fff9fff9fff",
": c Gray70",
"> c Gray75",
", c Gray81",
"< c #dfffdfffdfff",
"1 c #efffefffefff",
"2 c Gray100",
/* pixels */
">>>>>>>>>>>>>>>==:>>>>>>",
">>>>>>>>>>>>>>&**$&>>>>>",
">>>>>>>>>>>>>&-22,-o->>>",
">>>>>>>>>=$O@$,,2222O>>>",
">>>>>>>=#*>2*>2O222>$>>>",
">>>>>>o&>222O2%,22,$:>>>",
">>>:$O2222<#2*>222=+:>>>",
">>&$>;;2;2*>2><22;**$&>>",
">>o.;,,2,,*1%222;;,O;o>>",
">>o2;O><2O2,%221#o%22o>>",
">>o222***O2;22;**<222o>>",
">>o2222<>.;2,O;,22222o>>",
">>o2221>#2;O%;;,22222o>>",
">>o222**<22222;*>2222o>>",
">>o22%,222222221*,222o>>",
">>o;O,22222222222%#<2o>>",
">>o;22222222222222<**o>>",
">>oOOOOOOOOOOOOOOOOX o>>",
">>>>>>>>>>>>>>>>>>>>>>>>",
">>>>>>>>>>>>>>>>>>>>>>>>",
">>>>>>>>>>>>>>>>>>>>>>>>",
">>>>>>>>>>>>>>>>>>>>>>>>",
">>>>>>>>>>>>>>>>>>>>>>>>",
">>>>>>>>>>>>>>>>>>>>>>>>"
};
