/* XPM */
static char * icon-mail-reply_xpm[] = {
"32 32 3 1",
" 	c #BFBFBFBFBFBF s backgroundToolBarColor",
".	c #000000000000",
"X	c #FFFFFFFFFFFF",
"                                ",
"                    ...         ",
"                   .XXX..       ",
"                  .XXXXXX..     ",
"              ... .XXXXXXXX.    ",
"            ..XXX.XX.XXXXXX.    ",
"          ..XXXX.XXX.XXXXX.     ",
"        ..XXXXXX.XX.XXXXX.      ",
"      ..XXXXXXX.XX.XXXXXX.      ",
"     .XXXXXXXX.XXX.XXXXX...     ",
"   ..XX..XX.XX.XXXXXXXX.XXX..   ",
"   ...XXXXXXX.XX.XXXXX.XX..X.   ",
"   .XX..XXXX.XXX.XXXXX...XXX.   ",
"   .XXXX..XX.XX.XXXXX..XXXXX.   ",
"   .XXXXXX...XXXXXX..XXXXXXX.   ",
"   .XXXXXXXX..XXX..XXXXXXXXX.   ",
"   .XXXXXXX.XX...X.XXXXXXXXX.   ",
"   .XXXXX..XXXXXXXX..XXXXXXX.   ",
"   .XXXX.XXXXXXXXXXXX.XXXXXX.   ",
"   .XXX.XXXXXXXXXXXXXX.XXXXX.   ",
"   .X..XXXXXXXXXXXXXXXX..XXX.   ",
"   ..XXXXXXXXXXXXXXXXXXXX.XX.   ",
"   .XXXXXXXXXXXXXXXXXXXXXX...   ",
"   ..........................   ",
"                                ",
"                                ",
"                                ",
"                                ",
"                                ",
"                                ",
"                                ",
"                                "};
