/* XPM */
static char * icon-next-unread_xpm[] = {
"32 32 4 1",
" 	c #BFBFBFBFBFBF s backgroundToolBarColor",
".	c #000000000000",
"X	c #FFFFFFFFFFFF",
"o	c #999999999999",
"                                ",
" .   .   .   .   .   .   .   .  ",
"                                ",
"                                ",
"                 ...            ",
" .   .   .   . ..XX. .   .   .  ",
"             ..XXXX..           ",
"           ..XXXX..X.           ",
"         ..XXXXX...X.           ",
" .   . ..XXXXXXX..XXX.   .   .  ",
"     ..XXXXXXXX.XXXXX.          ",
"      .XXXXXXXXXXXXXXX.         ",
"      .XXXXXXXXXXXXXXX.         ",
" .   . .XXXXXXXXXXXXXXX. .   .  ",
"        .XXXX...XXXXXXX.        ",
"         .X..XX.XXXXXXXX.       ",
"         ..XXXX..XXXXXXX.       ",
" .     ..XXXX..X.XXXXXXXX.   .  ",
"     ..XXXXX...X.XXXXXXXX.      ",
"   ..XXXXXXX..XXX.XXXXXXXX.     ",
"  .XXXXXXXX.XXXXX.XXXXXXXX.     ",
" ..XXXXXXXXXXXXXX.XXXXXXXXX. .  ",
"  .XXXXXXXXXXXXXXX.XXXXXXX..    ",
"   .XX.....XXXXXXX.....X..      ",
"   .X.ooooo.XXXXX.oooo..        ",
" .  .oXooooo.XXX.oXooooo..   .  ",
"    .ooooooo.X.X.ooooooo.       ",
"    .ooooooo..X..ooooooo.       ",
"    ..oooooo.XXX.ooooooo.       ",
" .   ..oooo.XXXXX.oooo.. .   .  ",
"      .....XXXXXXX.....         ",
"       .XXXXXXXXXXXXXXX.        "};
