/* XPM */
static char * icon-post_xpm[] = {
"32 32 3 1",
" 	c #BFBFBFBFBFBF s backgroundToolBarColor",
".	c #000000000000",
"X	c #FFFFFFFFFFFF",
"                                ",
" .   .   .   .   .   .   .   .  ",
"                                ",
"                                ",
"                 ...            ",
" .   .   .   . ..XX. .   .   .  ",
"             ..XXXX..           ",
"           ..XXXX..X.           ",
"         ..XXXXX...X.           ",
" .   . ..XXXXXXX..XXX.   .   .  ",
"     ..XXXXXXXX.XXXXX.          ",
"      .XXXXXXXXXXXXXXX.         ",
"      .XXXXXXXXXXXXXXX.         ",
" .   . .XXXXXXXXXXXXXXX. .   .  ",
"       .XXXXXXXXXXXXXXX.        ",
"        .XXXXXXXXXXXXXXX.       ",
"        .XXXXXXXXXXXXXXX.       ",
" .   .   .XXXXXXXXXXXXXXX.   .  ",
"         .XXXXXXXXXXXXXXX.      ",
"          .XXXXXXXXXXXXXXX.     ",
"          .XXXXXXXXXXXXXXX.     ",
" .   .   . .XXXXXXXXXXXXXXX. .  ",
"           .XXXXXXXXXXXXXX..    ",
"            .XXXXXXXXXX...      ",
"            .XXXXXXXXX.         ",
" .   .   .   .XXXXXX..   .   .  ",
"             .XXX...            ",
"              ....              ",
"                                ",
" .   .   .   .   .   .   .   .  ",
"                                ",
"                                "};
