/* XPM */
static char *magick[] = {
/* columns rows colors chars-per-pixel */
"24 24 35 1",
"  c Gray0",
". c Gray6",
"X c Gray9",
"o c Gray12",
"O c #23f323f323f3",
"+ c Gray15",
"@ c #2ff22ff22ff2",
"# c #399939993999",
"$ c #3fff3fff3fff",
"% c Gray28",
"& c #53ed53ed53ed",
"* c Gray35",
"= c #5b1a5b1a5b1a",
"- c Gray36",
"; c #5fef5fef5fef",
": c Gray40",
"> c #67e767e767e7",
", c #6ffa6ffa6ffa",
"< c Gray45",
"1 c #77ea77ea77ea",
"2 c #799979997999",
"3 c #7bdb7bdb7bdb",
"4 c Gray50",
"5 c Gray56",
"6 c Gray60",
"7 c #9bde9bde9bde",
"8 c #9fff9fff9fff",
"9 c #a7c7a7c7a7c7",
"0 c #acccacccaccc",
"q c Gray70",
"w c Gray75",
"e c Gray81",
"r c #dfffdfffdfff",
"t c #efffefffefff",
"y c Gray100",
/* pixels */
"q9wq9wq9wq9wq9wq9wq9wq9w",
"95w95w95w95w95w95w95w95w",
"wwwwwwwwwwwwwwwwwwwwwwww",
"q9wq9wq9wq973$.q9wq9wq9w",
"95w95w95w5@18y$;5w95w95w",
"wwwwwwww&&wte$8@wwwwwwww",
"q9wq973$eyyy oe&9wq9wq9w",
"95w5@18yyyy84wyw;w95w95w",
"wwwq%wyyyyyeyyyt17wwwwww",
"q9wq;7yyyyyyyyyy45q9wq9w",
"95w9518yyr44yyyy4%%@995w",
"wwwww&.3;;w@yyye=<<#Owww",
"q9wq=;:$etw;$rt+w0777O9w",
"95w5+<8yy; wo44+77777X5w",
"ww&&wtyyy ;t@re+77777@ww",
"q%wyyyyy,yyyw4ye=<<#Oq9w",
"9@wyyyyyyyyyr4rywo;;995w",
"w9&yyyyyyyyyy4we$3wwwwww",
"q9&eyyyyyyyyyy,@wwq9wq9w",
"95w$yyyyyyyyyyy@ww95w95w",
"www38yyyyyyyyyy71wwwwwww",
"q9w54yyyyyyyyyye:qq9wq9w",
"95w9,ryyyyyyyyyy4595w95w",
"wwww9&yyyyyyyyyyr&wwwwww"
};
