/* XPM */
static char * icon-prev-unread_xpm[] = {
"32 32 4 1",
" 	c #BFBFBFBFBFBF s backgroundToolBarColor",
".	c #000000000000",
"X	c #FFFFFFFFFFFF",
"o	c #999999999999",
"                                ",
" .   .   .   .   .   .   .   .  ",
"                                ",
"                                ",
"                 ...            ",
" .   .   .   . ..XX. .   .   .  ",
"             ..XXXX..           ",
"           ..XXXX..X.           ",
"         ..XXXXX...X.           ",
" .   . ..XXXXXXX..XXX.   .   .  ",
"     ..XXXXXXXX.XXXXX.          ",
"      .XXXXXXXXXXXXXXX.         ",
"      .XXXXXXXXXXXXXXX.         ",
" .   . .XXXXXXXXXXXXXX.  .   .  ",
"        .XXXX...XXXXXX.....     ",
"       ...o..XX.XXXXX.oooo..    ",
"      .oo..XXXX..XXX.oXooooo.   ",
" .   .o..XXXX..X.X.X.ooooooo..  ",
"     ..XXXXX...X..X..ooooooo.   ",
"   ..XXXXXXX..XX.XXX.ooooooo.   ",
"  .XXXXXXXX.XXXXX.XXX.oooo..    ",
" ..XXXXXXXXXXXXXX.XXXX.....  .  ",
"  .XXXXXXXXXXXXXXX.XXXX.        ",
"   .XXXXXXXXXXXXXX.XX..         ",
"   .XXXXXXXXXXXXXXX..           ",
" .  .XXXXXXXXXXXXXXX.    .   .  ",
"    .XXXXXXXXXXXXXXX.           ",
"     .XXXXXXXXXXXXXXX.          ",
"     .XXXXXXXXXXXXXXX.          ",
" .   .XXXXXXXXXXXXXXXX.  .   .  ",
"      .XXXXXXXXXXXXXXX.         ",
"       .XXXXXXXXXXXXXXX.        "};
