/* XPM */
static char * icon-follow-up_xpm[] = {
"32 32 4 1",
" 	c #BFBFBFBFBFBF s backgroundToolBarColor",
".	c #000000000000",
"X	c #FFFFFFFFFFFF",
"o	c #999999999999",
"                                ",
"                                ",
"                                ",
"                                ",
"                                ",
"                   .            ",
"                  .X..          ",
"             ... .XXXX.         ",
"           ..XXX.XXXXXX..       ",
"         ..XXXX.XXXXXXXXX.      ",
"       ..XXXXX.XXXXXXXXX..      ",
"     ..XXXXXXX.XXXXXXXX....     ",
"   ..XXXXXXXX.XXXXXXXXX.oXX..   ",
"  .X..X.X.X..XXXXXXXXX..o...o.  ",
"  ..XXXXXXX.XXXXXXXXX..ooXXX..  ",
"  .X...XXXX.XXXXXXXX..ooX...X.  ",
"  .XXXX.XX.XXXXXXXX..oX..XXXX.  ",
"  .XXXXX..XXXXXXXX..oX.XXXXXX.  ",
"  .XXXXXXX..XXXXX..X..XXXXXXX.  ",
"oo.XXXXXXXXX.XXX....XXXXXXXXX.oo",
"oo.XXXXXXXXX...X...XXXXXXXXXX.oo",
"oo.XXXXXXXX.XX...XX.XXXXXXXXX.oo",
"oo.XXXXXXX.XXXXXXXXX.XXXXXXXX.oo",
"oo.XXXXXX.XXXXXXXXXXX.XXXXXXX.oo",
"oo.XXXX..XXXXXXXXXXXXX..XXXXX.oo",
"oo.XXX.XXXXXXXXXXXXXXXXX.XXXX.oo",
"oo.XX.XXXXXXXXXXXXXXXXXXX.XXX.oo",
"oo...XXXXXXXXXXXXXXXXXXXXX....oo",
"oo..XXXXXXXXXXXXXXXXXXXXXXXX..oo",
"oo............................oo",
"oooooooooooooooooooooooooooooooo",
"oooooooooooooooooooooooooooooooo"};
