/* XPM */
static char *magick[] = {
/* columns rows colors chars-per-pixel */
"24 24 35 1",
"  c Gray0",
". c Gray6",
"X c Gray9",
"o c Gray12",
"O c #23f323f323f3",
"+ c #2ffe2ffe2ffe",
"@ c #399939993999",
"# c #3fff3fff3fff",
"$ c Gray25",
"% c #499949994999",
"& c #4ccc4ccc4ccc",
"* c #519151915191",
"= c #53f353f353f3",
"- c Gray35",
"; c #5feb5feb5feb",
": c #67e767e767e7",
"> c #6fff6fff6fff",
", c Gray45",
"< c #77ef77ef77ef",
"1 c #7bdb7bdb7bdb",
"2 c Gray50",
"3 c Gray56",
"4 c Gray60",
"5 c #9bd39bd39bd3",
"6 c #9fff9fff9fff",
"7 c Gray64",
"8 c #a7c7a7c7a7c7",
"9 c Gray70",
"0 c #b998b998b998",
"q c #bcccbcccbccc",
"w c Gray75",
"e c Gray81",
"r c #dfffdfffdfff",
"t c #efffefffefff",
"y c Gray100",
/* pixels */
"wwwwwwwwwwwwwwwwwwwwwwww",
"wwwwwwwwwwwwwwwwwwwwwwww",
"wwwwwwwwwwwwwwwwwwwwwwww",
"wwwwwwwwwww5+o1wwwwwwwww",
"wwwwwwwwww3<w26;3wwwwwww",
"wwwwwwwww5<tw2yw<5wwwwww",
"wwwwww93=#yy#yyyy>O8wwww",
"wwwww<:226yy#yyyw2 ;wwww",
"www5+5e66yyy#6##2w X5www",
"w8=>ye#6yy2+#6yyr+9y>$8w",
"w;;yw2yw22#wyyyr#@9yy@;w",
"w;3#o+#2w3;tyyy+@3w##3;w",
"w;wyy>wry66yyr+%0;>yyw;w",
"w;wyyy222#yyr#;-2ryyyw;w",
"7=wyyyyrw.6y+ +wryyyyw=7",
"5&wyyyyye#o3.#6yyyyyyw&5",
"5&wyyyyw2yw26y66yyyyyw&5",
"5&wyyye2tyyyyyy66yyyyw&5",
"5&wyr;>yyyyyyyyy6#eyyw&5",
"5&wr2ryyyyyyyyyyyy2wyw&5",
"5&+;ryyyyyyyyyyyyyt2#+&5",
"5& wwwwwwwwwwwwwwwwww &5",
"5,&&&&&&&&&&&&&&&&&&&&,5",
"555555555555555555555555"
};
