/* XPM */
static char *magick[] = {
/* columns rows colors chars-per-pixel */
"24 24 34 1",
"  c Gray0",
". c Gray6",
"X c Gray9",
"o c Gray12",
"O c #2ffb2ffb2ffb",
"+ c #399939993999",
"@ c #3fff3fff3fff",
"# c Gray25",
"$ c #499949994999",
"% c #4ccc4ccc4ccc",
"& c #519151915191",
"* c #53f353f353f3",
"= c Gray35",
"- c #5feb5feb5feb",
"; c #67e767e767e7",
": c #6fff6fff6fff",
"> c Gray45",
", c #77ef77ef77ef",
"< c Gray50",
"1 c Gray56",
"2 c #933293329332",
"3 c Gray60",
"4 c #9bd29bd29bd2",
"5 c #9fff9fff9fff",
"6 c Gray64",
"7 c #a7c7a7c7a7c7",
"8 c Gray70",
"9 c #b998b998b998",
"0 c #bcccbcccbccc",
"q c Gray75",
"w c Gray81",
"e c #dfffdfffdfff",
"r c #efffefffefff",
"t c Gray100",
/* pixels */
"qqqqqqqqqqqqqqqqqqqqqqqq",
"qqqqqqqqqqqqqqqqqqqqqqqq",
"qqqqqqqqqqqqqqqqqqqqqqqq",
"qqqqqqqqqqqqqq4qqqqqqqqq",
"qqqqqqqqqqqqq1,-1qqqqqqq",
"qqqqqqqqq4OO4,rq,4qqqqqq",
"qqqqqq81*:tw:tttt:*7qqqq",
"qqqqq,;<etq<tttttt--qqqq",
"qqq4O4wttt<qttttt: X4qqq",
"q7*Oewrew55ttttteO6qO#7q",
"q--<q5eq@5ttttte@+2<<+-q",
"q-1@@wtt@ttttttO+1q@@1-q",
"q-qtt:q<wtttteO$9-:ttq-q",
"q-qttt<<<ttte@-=<etttq-q",
"6*qtttteq:ttO Oqettttq*6",
"4%qtttttw@o1.@5ttttttq%4",
"4%qttttq<tq<5t55tttttq%4",
"4%qtttw<rtttttt55ttttq%4",
"4%qte-:ttttttttt5@wttq%4",
"4%qe<etttttttttttt<qtq%4",
"4%O-etttttttttttttr<@O%4",
"4% qqqqqqqqqqqqqqqqqq %4",
"4>%%%%%%%%%%%%%%%%%%%%>4",
"444444444444444444444444"
};
