/* XPM */
static char * icon-follow-up-incl_xpm[] = {
"32 32 4 1",
" 	c #BFBFBFBFBFBF s backgroundToolBarColor",
".	c #000000000000",
"X	c #FFFFFFFFFFFF",
"o	c #999999999999",
"                                ",
"                                ",
"                                ",
"                                ",
"                ...             ",
"               .X.X.            ",
"              .XX.XX..          ",
"             .XXX.XXXX.         ",
"           ..XXX.XXXXXX..       ",
"         ..X.XXX.XXXXXXX..      ",
"       ..XX.XXXX.XXXXX....      ",
"     ..XXX.XXXXX.X....XX...     ",
"   ..XXX..XXXX....XXXXX.oXX..   ",
"  .XXXX.XXXXXX.XXXXXXX..oXXXo.  ",
"  ..XX.XXX.....XXXXXX..ooXXX..  ",
"  .X......XXX.XXXXXX..ooX...X.  ",
"  .XXXX.XXXXX.XXXXX..oX..XXXX.  ",
"  .XXXXX..XX.XXXXX..oX.XXXXXX.  ",
"  .XXXXXXX...XXXX..X..XXXXXXX.  ",
"oo.XXXXXXXXX..XX....XXXXXXXXX.oo",
"oo.XXXXXXXXX...X...XXXXXXXXXX.oo",
"oo.XXXXXXXX.XX...XX.XXXXXXXXX.oo",
"oo.XXXXXXX.XXXXXXXXX.XXXXXXXX.oo",
"oo.XXXXXX.XXXXXXXXXXX.XXXXXXX.oo",
"oo.XXXX..XXXXXXXXXXXXX..XXXXX.oo",
"oo.XXX.XXXXXXXXXXXXXXXXX.XXXX.oo",
"oo.XX.XXXXXXXXXXXXXXXXXXX.XXX.oo",
"oo...XXXXXXXXXXXXXXXXXXXXX....oo",
"oo..XXXXXXXXXXXXXXXXXXXXXXXX..oo",
"oo............................oo",
"oooooooooooooooooooooooooooooooo",
"oooooooooooooooooooooooooooooooo"};
