/* XPM */
static char * icon-rot13_xpm[] = {
"32 32 3 1",
" 	c #BFBFBFBFBFBF s backgroundToolBarColor",
".	c #000000000000",
"X	c #FFFFFFFFFFFF",
"                                ",
"                                ",
"                                ",
"                                ",
"      ................          ",
"      .XXXXXXXXXXXXXX..         ",
"      .XX..XX...XXX...X.        ",
"      .X.XX.X.XX.X.XX.XX.       ",
"      .X.XX.X.X.XX.XX.....      ",
"      .X....X.XX.X.XXXXXX.      ",
"      .X.XX.X...XXX...XXX.      ",
"      .XXXXXXXXXXXXXXXXXX.      ",
"      .XX.XXXXX.XXXX.XXXX.      ",
"      .XXXXXXXXXXXXXXXXXX.      ",
"      .X..X.XX..XX...XXXX.      ",
"      .X..X.X.XX.X.XX.XXX.      ",
"      .X.X..X.XX.X...XXXX.      ",
"      .X.X..X.XX.X.XXXXXX.      ",
"      .X.XX.XX..XX.XXXXXX.      ",
"      .XXXXXXXXXXXXXXXXXX.      ",
"      .XXXX..XXXXXXXXXXXX.      ",
"      .XXX....XXXXXXXXXXX.      ",
"      .XX..XX.........XXX.      ",
"      .XX..XX.........XXX.      ",
"      .XXX....XXX.X.X.XXX.      ",
"      .XXXX..XXXX.X.X.XXX.      ",
"      .XXXXXXXXXXXX.XXXXX.      ",
"      .XXXXXXXXXXXXXXXXXX.      ",
"      ....................      ",
"                                ",
"                                ",
"                                "};
