/* XPM */
static char * icon-save-mail_xpm[] = {
"32 32 6 1",
" 	c #BFBFBFBFBFBF s backgroundToolBarColor",
".	c #000000000000",
"X	c #FFFFFFFFFFFF",
"o	c #999999999999",
"O	c #E5E5E5E5E5E5",
"+	c #666666666666",
"                                ",
"                                ",
"                                ",
"       ........................ ",
"       ...XXXXXXXXXXXXXXXXXX... ",
"       .XX..XXXXXXXXXXXXXX..XX. ",
"       .XXXX..XXXXXXXXXX..XXXX. ",
"       .XXXXXX..XXXXXX..XXXXXX. ",
"       .XXXXXXX...XX..XXXXXXXX. ",
"       .XXXXX..XXX..XX..XXXXXX. ",
"       .XXXX.XXXXXXXXXXX.XXXXX. ",
"       .XXX.XXXXXXXXXXXXX..XXX. ",
"       .X..XXXXXXXXXXXXXXXX..X. ",
"  ..................XXXXXXXXX.. ",
"  .oo.OOOOOOOOOO.oo.XXXXXXXXXX. ",
"  .oo.OOOOOOOOOO.oo............ ",
"  .oo.OOOOOOOOOO.oo.            ",
"  .oo.OOOOOOOOOO.oo.            ",
"  .oo.OOOOOOOOOO.oo.            ",
"  .oo.OOOOOOOOOO.oo.            ",
"  .oo.OOOOOOOOOO.oo.            ",
"  .oo.OOOOOOOOOO.oo.            ",
"  .oo............oo.            ",
"  .oooooooooooooooo.            ",
"  .oooooooooooooooo.            ",
"  .oo............oo.            ",
"  .oo.+++++++.OO.oo.            ",
"  .oo.+++++++.OO.oo.            ",
"  .oo.+++++++.OO.oo.            ",
"   .o.+++++++.OO.oo.            ",
"    ................            ",
"                                "};
