/* XPM */
static char *magick[] = {
/* columns rows colors chars-per-pixel */
"24 24 32 1",
"  c Gray0",
". c #133313331333",
"X c #199919991999",
"o c Gray12",
"O c #23f323f323f3",
"+ c Gray15",
"@ c #2fef2fef2fef",
"# c Gray20",
"$ c #398739873987",
"% c #3fff3fff3fff",
"& c #4ccc4ccc4ccc",
"* c #53e353e353e3",
"= c #5fe65fe65fe6",
"- c #626262626262",
"; c Gray40",
": c #6fff6fff6fff",
"> c #72f272f272f2",
", c Gray45",
"< c #77d777d777d7",
"1 c #7ccc7ccc7ccc",
"2 c Gray50",
"3 c Gray56",
"4 c Gray60",
"5 c #9bcb9bcb9bcb",
"6 c #9fff9fff9fff",
"7 c #a7c7a7c7a7c7",
"8 c Gray75",
"9 c Gray81",
"0 c #dfffdfffdfff",
"q c Gray90",
"w c #efffefffefff",
"e c Gray100",
/* pixels */
"888888888888888888888888",
"888888888888888888888888",
"88888*@@@@@@@@@@@@@@@@@4",
"88888@%28eeeeeeeeee08%o3",
"88888@e8228eeeeeee222e23",
"88888@eee82%eeee6%80ee23",
"88888@eeew8=%28%28eeee23",
"88888@eee220e82e826eee23",
"88888@ee:9eeeeeeee6%9e23",
"87333O3 3888888eeeee:==3",
"8=$$$>>>>>>>.&.eeeeee0%3",
"8=>>>qqqqqqq+4+%%%%%%%o3",
"8=>>>qqqqqqq+4+888888888",
"8=>>>qqqqqqq+4+888888888",
"8=>>>qqqqqqq+4+888888888",
"8=>>>qqqqqqq+4+888888888",
"8=>>$>>>>>>>+4+888888888",
"8=>3>>>>>>>>24+888888888",
"8=>3>>>>>>>>24+888888888",
"8=>>X####+$>+4+888888888",
"8=>>#;;;;&>q+4+888888888",
"8<->#;;;;&>q+4+888888888",
"88<$X####+$>.&.888888888",
"888333333333333888888888"
};
