/* XPM */
static char * icon-save-text_xpm[] = {
"32 32 6 1",
" 	c #BFBFBFBFBFBF s backgroundToolBarColor",
".	c #000000000000",
"X	c #FFFFFFFFFFFF",
"o	c #999999999999",
"O	c #E5E5E5E5E5E5",
"+	c #666666666666",
"                                ",
"                                ",
"                                ",
"          ................      ",
"          .XXXXXXXXXXXXX.X.     ",
"          .XXXXXXXXXXXXX.XX.    ",
"          .XXXXXXXXXXXXX.XXX.   ",
"          .XXXXXXXXXXXXX.....   ",
"          .XXXXXXXXXXXXXXXXX.   ",
"          .XXXXXXXXXXXXXXXXX.   ",
"          .XXXXXXXXXXXXXXXXX.   ",
"          .XXXXXXXXXXXXXXXXX.   ",
"          .XXXXXXXXXXXXXXXXX.   ",
"  ..................XXXXXXXX.   ",
"  .oo.OOOOOOOOOO.oo.XXXXXXXX.   ",
"  .oo.OOOOOOOOOO.oo.XXXXXXXX.   ",
"  .oo.OOOOOOOOOO.oo.XXXXXXXX.   ",
"  .oo.OOOOOOOOOO.oo.XXXXXXXX.   ",
"  .oo.OOOOOOOOOO.oo.XXXXXXXX.   ",
"  .oo.OOOOOOOOOO.oo.XXXXXXXX.   ",
"  .oo.OOOOOOOOOO.oo.XXXXXXXX.   ",
"  .oo.OOOOOOOOOO.oo.XXXXXXXX.   ",
"  .oo............oo.XXXXXXXX.   ",
"  .oooooooooooooooo.XXXXXXXX.   ",
"  .oooooooooooooooo.XXXXXXXX.   ",
"  .oo............oo..........   ",
"  .oo.+++++++.OO.oo.            ",
"  .oo.+++++++.OO.oo.            ",
"  .oo.+++++++.OO.oo.            ",
"   .o.+++++++.OO.oo.            ",
"    ................            ",
"                                "};
