/* XPM */
static char * icon-unsubscribe_xpm[] = {
"32 32 3 1",
" 	c #BFBFBFBFBFBF s backgroundToolBarColor",
".	c #000000000000",
"X	c #FFFFFFFFFFFF",
"                                ",
"                                ",
"                                ",
"                                ",
"      ................          ",
"      .XXXXXXXX.XXXXX..         ",
"      .XX.X.XXX.XXXXX.X.        ",
"      .XXX.XXXX.XXXXX.XX.       ",
"      .XX.X.XXX.XXXXX.....      ",
"      .XXXXXXXX.XXXXXXXXX.      ",
"      ..........XXXXXXXXX.      ",
"      .XXXXXXXX.XXXXXXXXX.      ",
"      .XX.X.XXX.XXXXXXXXX.      ",
"      .XXX.XXXX.XXXXXXXXX.      ",
"      .XX.X.XXX.XXXXXXXXX.      ",
"      .XXXXXXXX.XXXXXXXXX.      ",
"      ..........XXXXXXXXX.      ",
"      .XXXXXXXX.XXXXXXXXX.      ",
"      .XX.X.XXX.XXXXXXXXX.      ",
"      .XXX.XXXX.XXXXXXXXX.      ",
"      .XX.X.XXX.XXXXXXXXX.      ",
"      .XXXXXXXX.XXXXXXXXX.      ",
"      ..........XXXXXXXXX.      ",
"      .XXXXXXXX.XXXXXXXXX.      ",
"      .XXXXXXXX.XXXXXXXXX.      ",
"      .XXXXXXXX.XXXXXXXXX.      ",
"      .XXXXXXXX.XXXXXXXXX.      ",
"      .XXXXXXXX.XXXXXXXXX.      ",
"      ....................      ",
"                                ",
"                                ",
"                                "};
