/* XPM */
static char * icon-subscribe_xpm[] = {
"32 32 3 1",
" 	c #BFBFBFBFBFBF s backgroundToolBarColor",
".	c #000000000000",
"X	c #FFFFFFFFFFFF",
"                                ",
"                                ",
"                                ",
"                                ",
"      ................          ",
"      .XXXXXXXX.XXXXX..         ",
"      .XXXXXX.X.XXXXX.X.        ",
"      .XXXXX.XX.XXXXX.XX.       ",
"      .XX.X.XXX.XXXXX.....      ",
"      .XXX.XXXX.XXXXXXXXX.      ",
"      ..........XXXXXXXXX.      ",
"      .XXXXXXXX.XXXXXXXXX.      ",
"      .XXXXXX.X.XXXXXXXXX.      ",
"      .XXXXX.XX.XXXXXXXXX.      ",
"      .XX.X.XXX.XXXXXXXXX.      ",
"      .XXX.XXXX.XXXXXXXXX.      ",
"      ..........XXXXXXXXX.      ",
"      .XXXXXXXX.XXXXXXXXX.      ",
"      .XXXXXX.X.XXXXXXXXX.      ",
"      .XXXXX.XX.XXXXXXXXX.      ",
"      .XX.X.XXX.XXXXXXXXX.      ",
"      .XXX.XXXX.XXXXXXXXX.      ",
"      ..........XXXXXXXXX.      ",
"      .XXXXXXXX.XXXXXXXXX.      ",
"      .XXXXXXXX.XXXXXXXXX.      ",
"      .XXXXXXXX.XXXXXXXXX.      ",
"      .XXXXXXXX.XXXXXXXXX.      ",
"      .XXXXXXXX.XXXXXXXXX.      ",
"      ....................      ",
"                                ",
"                                ",
"                                "};
