/* XPM */
static char *magick[] = {
/* columns rows colors chars-per-pixel */
"24 24 18 1",
"  c #2fef2fef2fef",
". c #3fff3fff3fff",
"X c #4ccc4ccc4ccc",
"o c #53e353e353e3",
"O c #566656665666",
"+ c #5fe35fe35fe3",
"@ c Gray45",
"# c #77d777d777d7",
"$ c Gray50",
"% c #866586658665",
"& c Gray56",
"* c Gray60",
"= c #9fff9fff9fff",
"- c Gray75",
"; c Gray81",
": c #dfffdfffdfff",
"> c #efffefffefff",
", c Gray100",
/* pixels */
"------------------------",
"------------------------",
"------------------------",
"------------------------",
"-----#+++++++++++++&----",
"----- @@@@@@@@@@@@O+----",
"----- *%@@@@@@@@@&@+----",
"----- *X+$$$$$$$.@@+----",
"----- *X-,,,,,,,$@@+----",
"----- *X-,,;,,,,$@@+----",
"----- *X-:$$$-=,$@@+----",
"----- *X-+-+-$=,$@@+----",
"----- *X->$;;,,,$@@+----",
"----- *X--.$.,,,$@@+----",
"----- *X->--==,,$@@+----",
"----- *X-,,,,=;,$@@+----",
"----- *X-,,,,,,,$@@+----",
"----- *X-,,,,,,,$@@+----",
"----- *X&-------+@@+----",
"----- *@XXXXXXXXX%@+----",
"----- ************@+----",
"-----o             #----",
"------------------------",
"------------------------"
};
