/* XPM */
static char * icon-post-pic_xpm[] = {
"32 32 4 1",
" 	c #000000000000",
".	c #BFBFBFBFBFBF s backgroundToolBarColor",
"X	c #999999999999",
"o	c #FFFFFFFFFFFF",
" ... ... ... ... ... ... ... ...",
"................................",
"................ ...............",
"..............  .  .............",
" ... ... ...  .. ..  ... ... ...",
"..........  .........  .........",
"........  .............  .......",
".......                   ......",
" ... .. XXXXXXXXXXXXXXXXX .. ...",
"....... XXXXXXXXXXXXXXXXX ......",
"....... XX             XX ......",
"....... XX ooooooooooo XX ......",
" ... .. XX ooooooooooo XX .. ...",
"....... XX ooooooooooo XX ......",
"....... XX oooo oooooo XX ......",
"....... XX oo  o  o oo XX ......",
" ... .. XX o oo oo ooo XX .. ...",
"....... XX ooo ooooooo XX ......",
"....... XX oo oo ooooo XX ......",
"....... XX oo    ooooo XX ......",
" ... .. XX oooooo oooo XX .. ...",
"....... XX ooooooo ooo XX ......",
"....... XX ooooooooooo XX ......",
"....... XX ooooooooooo XX ......",
" ... .. XX ooooooooooo XX .. ...",
"....... XX ooooooooooo XX ......",
"....... XX             XX ......",
"....... XXXXXXXXXXXXXXXXX ......",
" ... .. XXXXXXXXXXXXXXXXX .. ...",
".......                   ......",
"................................",
"................................"};
